M48
; DRILL file {KiCad (7.0.0)} date Mon Jan 29 13:59:19 2024
; FORMAT={-:-/ absolute / metric / decimal}
; #@! TF.CreationDate,2024-01-29T13:59:19+01:00
; #@! TF.GenerationSoftware,Kicad,Pcbnew,(7.0.0)
; #@! TF.FileFunction,NonPlated,1,4,NPTH
FMAT,2
METRIC
; #@! TA.AperFunction,NonPlated,NPTH,ComponentDrill
T1C1.750
; #@! TA.AperFunction,NonPlated,NPTH,ComponentDrill
T2C3.050
; #@! TA.AperFunction,NonPlated,NPTH,ComponentDrill
T3C4.000
%
G90
G05
T1
X152.075Y-103.163
X152.103Y-84.013
X152.133Y-64.965
X162.235Y-103.163
X162.263Y-84.013
X162.293Y-64.965
X171.221Y-103.132
X171.262Y-84.026
X171.275Y-64.961
X181.381Y-103.132
X181.422Y-84.026
X181.435Y-64.961
X190.346Y-103.165
X190.387Y-84.073
X190.401Y-64.96
X200.506Y-103.165
X200.547Y-84.073
X200.561Y-64.96
T2
X153.345Y-100.623
X153.373Y-81.473
X153.403Y-62.425
X159.695Y-98.083
X159.723Y-78.933
X159.753Y-59.885
X172.491Y-100.592
X172.532Y-81.486
X172.545Y-62.421
X178.841Y-98.052
X178.882Y-78.946
X178.895Y-59.881
X191.616Y-100.625
X191.657Y-81.533
X191.671Y-62.42
X197.966Y-98.085
X198.007Y-78.993
X198.021Y-59.88
T3
X157.155Y-103.163
X157.183Y-84.013
X157.213Y-64.965
X176.301Y-103.132
X176.342Y-84.026
X176.355Y-64.961
X195.426Y-103.165
X195.467Y-84.073
X195.481Y-64.96
T0
M30
