%TF.GenerationSoftware,KiCad,Pcbnew,(7.0.0)*%
%TF.CreationDate,2023-06-18T19:08:54+02:00*%
%TF.ProjectId,Macro_Keyboard,4d616372-6f5f-44b6-9579-626f6172642e,rev?*%
%TF.SameCoordinates,Original*%
%TF.FileFunction,Soldermask,Bot*%
%TF.FilePolarity,Negative*%
%FSLAX46Y46*%
G04 Gerber Fmt 4.6, Leading zero omitted, Abs format (unit mm)*
G04 Created by KiCad (PCBNEW (7.0.0)) date 2023-06-18 19:08:54*
%MOMM*%
%LPD*%
G01*
G04 APERTURE LIST*
G04 Aperture macros list*
%AMRoundRect*
0 Rectangle with rounded corners*
0 $1 Rounding radius*
0 $2 $3 $4 $5 $6 $7 $8 $9 X,Y pos of 4 corners*
0 Add a 4 corners polygon primitive as box body*
4,1,4,$2,$3,$4,$5,$6,$7,$8,$9,$2,$3,0*
0 Add four circle primitives for the rounded corners*
1,1,$1+$1,$2,$3*
1,1,$1+$1,$4,$5*
1,1,$1+$1,$6,$7*
1,1,$1+$1,$8,$9*
0 Add four rect primitives between the rounded corners*
20,1,$1+$1,$2,$3,$4,$5,0*
20,1,$1+$1,$4,$5,$6,$7,0*
20,1,$1+$1,$6,$7,$8,$9,0*
20,1,$1+$1,$8,$9,$2,$3,0*%
%AMFreePoly0*
4,1,13,-0.225000,0.250000,0.225000,0.250000,0.225000,-0.092500,0.213011,-0.152773,0.178869,-0.203869,0.127773,-0.238011,0.067500,-0.250000,-0.067500,-0.250000,-0.127773,-0.238011,-0.178869,-0.203869,-0.213011,-0.152773,-0.225000,-0.092500,-0.225000,0.250000,-0.225000,0.250000,$1*%
G04 Aperture macros list end*
%ADD10C,1.750000*%
%ADD11C,3.050000*%
%ADD12C,4.000000*%
%ADD13RoundRect,0.250000X-1.025000X-1.000000X1.025000X-1.000000X1.025000X1.000000X-1.025000X1.000000X0*%
%ADD14R,1.650000X1.650000*%
%ADD15C,1.650000*%
%ADD16O,6.000000X3.000000*%
%ADD17C,0.700000*%
%ADD18O,0.900000X2.400000*%
%ADD19O,0.900000X1.700000*%
%ADD20C,3.800000*%
%ADD21C,2.200000*%
%ADD22C,1.700000*%
%ADD23C,3.000000*%
%ADD24R,1.700000X1.700000*%
%ADD25O,1.700000X1.700000*%
%ADD26RoundRect,0.237500X0.300000X0.237500X-0.300000X0.237500X-0.300000X-0.237500X0.300000X-0.237500X0*%
%ADD27R,1.800000X0.820000*%
%ADD28RoundRect,0.237500X-0.287500X-0.237500X0.287500X-0.237500X0.287500X0.237500X-0.287500X0.237500X0*%
%ADD29RoundRect,0.250000X-0.450000X0.350000X-0.450000X-0.350000X0.450000X-0.350000X0.450000X0.350000X0*%
%ADD30RoundRect,0.237500X-0.300000X-0.237500X0.300000X-0.237500X0.300000X0.237500X-0.300000X0.237500X0*%
%ADD31RoundRect,0.237500X0.237500X-0.300000X0.237500X0.300000X-0.237500X0.300000X-0.237500X-0.300000X0*%
%ADD32RoundRect,0.175000X0.700000X-1.075000X0.700000X1.075000X-0.700000X1.075000X-0.700000X-1.075000X0*%
%ADD33FreePoly0,270.000000*%
%ADD34FreePoly0,90.000000*%
%ADD35RoundRect,0.225000X-0.225000X-0.375000X0.225000X-0.375000X0.225000X0.375000X-0.225000X0.375000X0*%
%ADD36RoundRect,0.250000X-0.350000X-0.450000X0.350000X-0.450000X0.350000X0.450000X-0.350000X0.450000X0*%
%ADD37R,1.500000X0.400000*%
%ADD38RoundRect,0.250000X0.350000X0.450000X-0.350000X0.450000X-0.350000X-0.450000X0.350000X-0.450000X0*%
%ADD39RoundRect,0.225000X-0.375000X0.225000X-0.375000X-0.225000X0.375000X-0.225000X0.375000X0.225000X0*%
%ADD40RoundRect,0.062500X0.062500X-0.375000X0.062500X0.375000X-0.062500X0.375000X-0.062500X-0.375000X0*%
%ADD41RoundRect,0.062500X0.375000X-0.062500X0.375000X0.062500X-0.375000X0.062500X-0.375000X-0.062500X0*%
%ADD42R,3.450000X3.450000*%
%ADD43RoundRect,0.225000X0.375000X-0.225000X0.375000X0.225000X-0.375000X0.225000X-0.375000X-0.225000X0*%
%ADD44RoundRect,0.250000X0.450000X-0.325000X0.450000X0.325000X-0.450000X0.325000X-0.450000X-0.325000X0*%
%ADD45R,3.500000X1.200000*%
%ADD46RoundRect,0.250000X-0.325000X-0.450000X0.325000X-0.450000X0.325000X0.450000X-0.325000X0.450000X0*%
%ADD47RoundRect,0.250000X0.400000X0.625000X-0.400000X0.625000X-0.400000X-0.625000X0.400000X-0.625000X0*%
%ADD48RoundRect,0.237500X0.287500X0.237500X-0.287500X0.237500X-0.287500X-0.237500X0.287500X-0.237500X0*%
%ADD49RoundRect,0.225000X0.225000X0.375000X-0.225000X0.375000X-0.225000X-0.375000X0.225000X-0.375000X0*%
%ADD50RoundRect,0.100000X0.100000X-0.217500X0.100000X0.217500X-0.100000X0.217500X-0.100000X-0.217500X0*%
G04 APERTURE END LIST*
D10*
%TO.C,SW8*%
X72877908Y-112560837D03*
D11*
X74147908Y-110020837D03*
D12*
X77957908Y-112560837D03*
D11*
X80497908Y-107480837D03*
D10*
X83037908Y-112560837D03*
D13*
X70872908Y-110020837D03*
X83799908Y-107480837D03*
%TD*%
D10*
%TO.C,SW9*%
X92023888Y-112530038D03*
D11*
X93293888Y-109990038D03*
D12*
X97103888Y-112530038D03*
D11*
X99643888Y-107450038D03*
D10*
X102183888Y-112530038D03*
D13*
X90018888Y-109990038D03*
X102945888Y-107450038D03*
%TD*%
D10*
%TO.C,SW4*%
X72935933Y-74362629D03*
D11*
X74205933Y-71822629D03*
D12*
X78015933Y-74362629D03*
D11*
X80555933Y-69282629D03*
D10*
X83095933Y-74362629D03*
D13*
X70930933Y-71822629D03*
X83857933Y-69282629D03*
%TD*%
D14*
%TO.C,MT1*%
X135369999Y-117559999D03*
D15*
X135370000Y-112560000D03*
X149870000Y-117560000D03*
X149870000Y-112560000D03*
X149870000Y-115060000D03*
D16*
X142369999Y-120759999D03*
X142369999Y-109359999D03*
%TD*%
D17*
%TO.C,J1*%
X146045000Y-49525000D03*
X145195000Y-49525000D03*
X144345000Y-49525000D03*
X143495000Y-49525000D03*
X142645000Y-49525000D03*
X141795000Y-49525000D03*
X140945000Y-49525000D03*
X140095000Y-49525000D03*
X140095000Y-48175000D03*
X140945000Y-48175000D03*
X141795000Y-48175000D03*
X142645000Y-48175000D03*
X143495000Y-48175000D03*
X144345000Y-48175000D03*
X145195000Y-48175000D03*
X146045000Y-48175000D03*
D18*
X147394999Y-48544999D03*
D19*
X147394999Y-45164999D03*
D18*
X138744999Y-48544999D03*
D19*
X138744999Y-45164999D03*
%TD*%
D10*
%TO.C,SW7*%
X111189498Y-93471096D03*
D11*
X112459498Y-90931096D03*
D12*
X116269498Y-93471096D03*
D11*
X118809498Y-88391096D03*
D10*
X121349498Y-93471096D03*
D13*
X109184498Y-90931096D03*
X122111498Y-88391096D03*
%TD*%
D20*
%TO.C,H3*%
X153416000Y-119126000D03*
%TD*%
%TO.C,H4*%
X151384000Y-49276000D03*
%TD*%
%TO.C,H2*%
X66040000Y-119380000D03*
%TD*%
D10*
%TO.C,SW2*%
X92077945Y-74359349D03*
D11*
X93347945Y-71819349D03*
D12*
X97157945Y-74359349D03*
D11*
X99697945Y-69279349D03*
D10*
X102237945Y-74359349D03*
D13*
X90072945Y-71819349D03*
X102999945Y-69279349D03*
%TD*%
D21*
%TO.C,SW1*%
X127830000Y-45730000D03*
X134830000Y-45730000D03*
D22*
X129080000Y-43230000D03*
X133580000Y-43230000D03*
%TD*%
D20*
%TO.C,H1*%
X66548000Y-44704000D03*
%TD*%
D10*
%TO.C,SW10*%
X111148411Y-112562624D03*
D11*
X112418411Y-110022624D03*
D12*
X116228411Y-112562624D03*
D11*
X118768411Y-107482624D03*
D10*
X121308411Y-112562624D03*
D13*
X109143411Y-110022624D03*
X122070411Y-107482624D03*
%TD*%
D23*
%TO.C,J2*%
X123514000Y-51220043D03*
X110374000Y-51220043D03*
%TD*%
D10*
%TO.C,SW3*%
X111203814Y-74357520D03*
D11*
X112473814Y-71817520D03*
D12*
X116283814Y-74357520D03*
D11*
X118823814Y-69277520D03*
D10*
X121363814Y-74357520D03*
D13*
X109198814Y-71817520D03*
X122125814Y-69277520D03*
%TD*%
D24*
%TO.C,U4*%
X145785999Y-104418999D03*
D25*
X143245999Y-104418999D03*
X140705999Y-104418999D03*
X138165999Y-104418999D03*
%TD*%
D23*
%TO.C,J4*%
X83781826Y-51216189D03*
X70641826Y-51216189D03*
%TD*%
D10*
%TO.C,SW5*%
X72905586Y-93411284D03*
D11*
X74175586Y-90871284D03*
D12*
X77985586Y-93411284D03*
D11*
X80525586Y-88331284D03*
D10*
X83065586Y-93411284D03*
D13*
X70900586Y-90871284D03*
X83827586Y-88331284D03*
%TD*%
D10*
%TO.C,SW6*%
X92064954Y-93423789D03*
D11*
X93334954Y-90883789D03*
D12*
X97144954Y-93423789D03*
D11*
X99684954Y-88343789D03*
D10*
X102224954Y-93423789D03*
D13*
X90059954Y-90883789D03*
X102986954Y-88343789D03*
%TD*%
D23*
%TO.C,J3*%
X103598000Y-51244000D03*
X90458000Y-51244000D03*
%TD*%
D24*
%TO.C,TP1*%
X127969999Y-120319999D03*
%TD*%
D26*
%TO.C,C34*%
X84158306Y-118420676D03*
X82433306Y-118420676D03*
%TD*%
%TO.C,C32*%
X103473509Y-80351691D03*
X101748509Y-80351691D03*
%TD*%
D27*
%TO.C,SK6812MINI_E5*%
X100673999Y-97469974D03*
X100673999Y-98991634D03*
X94905999Y-97474043D03*
X94905999Y-98988142D03*
%TD*%
D28*
%TO.C,FB8*%
X130429618Y-51012591D03*
X132179618Y-51012591D03*
%TD*%
D27*
%TO.C,SK6812MINI_E9*%
X74839999Y-118143097D03*
X74839999Y-116621437D03*
X80607999Y-118139028D03*
X80607999Y-116624929D03*
%TD*%
D29*
%TO.C,R1*%
X145199748Y-86646000D03*
X145199748Y-88646000D03*
%TD*%
D30*
%TO.C,C5*%
X145046986Y-84715272D03*
X146771986Y-84715272D03*
%TD*%
%TO.C,C30*%
X71816399Y-97142232D03*
X73541399Y-97142232D03*
%TD*%
D31*
%TO.C,C3*%
X130078000Y-78117953D03*
X130078000Y-76392953D03*
%TD*%
D30*
%TO.C,C28*%
X91217493Y-97180758D03*
X92942493Y-97180758D03*
%TD*%
D32*
%TO.C,U2*%
X134650000Y-77216000D03*
D33*
X135949999Y-76265999D03*
X135949999Y-77215999D03*
X135949999Y-78165999D03*
D34*
X133349999Y-78165999D03*
X133349999Y-77215999D03*
X133349999Y-76265999D03*
%TD*%
D30*
%TO.C,C25*%
X110237878Y-97149779D03*
X111962878Y-97149779D03*
%TD*%
D26*
%TO.C,C10*%
X135882750Y-49277338D03*
X134157750Y-49277338D03*
%TD*%
%TO.C,C35*%
X103304376Y-118406550D03*
X101579376Y-118406550D03*
%TD*%
D27*
%TO.C,SK6812MINI_E3*%
X74839999Y-80043097D03*
X74839999Y-78521437D03*
X80607999Y-80039028D03*
X80607999Y-78524929D03*
%TD*%
D30*
%TO.C,C38*%
X130449083Y-54489204D03*
X132174083Y-54489204D03*
%TD*%
D26*
%TO.C,C36*%
X122706797Y-118432688D03*
X120981797Y-118432688D03*
%TD*%
D27*
%TO.C,SK6812MINI_E6*%
X119723999Y-97445112D03*
X119723999Y-98966772D03*
X113955999Y-97449181D03*
X113955999Y-98963280D03*
%TD*%
D35*
%TO.C,D10*%
X66548000Y-68580000D03*
X69848000Y-68580000D03*
%TD*%
D26*
%TO.C,C21*%
X141324500Y-72298872D03*
X139599500Y-72298872D03*
%TD*%
%TO.C,C31*%
X122600448Y-80359082D03*
X120875448Y-80359082D03*
%TD*%
%TO.C,C1*%
X133604000Y-74422000D03*
X131879000Y-74422000D03*
%TD*%
%TO.C,C6*%
X142719500Y-90027992D03*
X140994500Y-90027992D03*
%TD*%
D36*
%TO.C,R4*%
X149902328Y-77638448D03*
X151902328Y-77638448D03*
%TD*%
D37*
%TO.C,U5*%
X142940499Y-52689999D03*
X142940499Y-53339999D03*
X142940499Y-53989999D03*
X140280499Y-53989999D03*
X140280499Y-53339999D03*
X140280499Y-52689999D03*
%TD*%
D38*
%TO.C,R16*%
X151892000Y-79756000D03*
X149892000Y-79756000D03*
%TD*%
D27*
%TO.C,SK6812MINI_E7*%
X113193999Y-118143097D03*
X113193999Y-116621437D03*
X118961999Y-118139028D03*
X118961999Y-116624929D03*
%TD*%
D31*
%TO.C,C4*%
X131856000Y-78117953D03*
X131856000Y-76392953D03*
%TD*%
D26*
%TO.C,C33*%
X84287101Y-80340148D03*
X82562101Y-80340148D03*
%TD*%
D35*
%TO.C,D11*%
X66548000Y-87884000D03*
X69848000Y-87884000D03*
%TD*%
D27*
%TO.C,SK6812MINI_E1*%
X113193999Y-79994063D03*
X113193999Y-78472403D03*
X118961999Y-79989994D03*
X118961999Y-78475895D03*
%TD*%
D39*
%TO.C,D9*%
X87408926Y-106554000D03*
X87408926Y-109854000D03*
%TD*%
D40*
%TO.C,U1*%
X144752000Y-82940492D03*
X144252000Y-82940492D03*
X143752000Y-82940492D03*
X143252000Y-82940492D03*
X142752000Y-82940492D03*
X142252000Y-82940492D03*
X141752000Y-82940492D03*
X141252000Y-82940492D03*
D41*
X140564500Y-82252992D03*
X140564500Y-81752992D03*
X140564500Y-81252992D03*
X140564500Y-80752992D03*
X140564500Y-80252992D03*
X140564500Y-79752992D03*
X140564500Y-79252992D03*
X140564500Y-78752992D03*
D40*
X141252000Y-78065492D03*
X141752000Y-78065492D03*
X142252000Y-78065492D03*
X142752000Y-78065492D03*
X143252000Y-78065492D03*
X143752000Y-78065492D03*
X144252000Y-78065492D03*
X144752000Y-78065492D03*
D41*
X145439500Y-78752992D03*
X145439500Y-79252992D03*
X145439500Y-79752992D03*
X145439500Y-80252992D03*
X145439500Y-80752992D03*
X145439500Y-81252992D03*
X145439500Y-81752992D03*
X145439500Y-82252992D03*
D42*
X143001999Y-80502991D03*
%TD*%
D26*
%TO.C,C11*%
X135879125Y-51002468D03*
X134154125Y-51002468D03*
%TD*%
D27*
%TO.C,SK6812MINI_E4*%
X81233086Y-97443919D03*
X81233086Y-98965579D03*
X75465086Y-97447988D03*
X75465086Y-98962087D03*
%TD*%
D26*
%TO.C,C39*%
X132167093Y-52699954D03*
X130442093Y-52699954D03*
%TD*%
%TO.C,C12*%
X135886367Y-52702428D03*
X134161367Y-52702428D03*
%TD*%
D43*
%TO.C,D8*%
X87613873Y-100296384D03*
X87613873Y-96996384D03*
%TD*%
D44*
%TO.C,D1*%
X145188888Y-92577045D03*
X145188888Y-90527045D03*
%TD*%
D26*
%TO.C,C8*%
X142691043Y-84744292D03*
X140966043Y-84744292D03*
%TD*%
D43*
%TO.C,D7*%
X87630000Y-79756000D03*
X87630000Y-76456000D03*
%TD*%
D26*
%TO.C,C2*%
X137361000Y-74422000D03*
X135636000Y-74422000D03*
%TD*%
D39*
%TO.C,D6*%
X125476000Y-107188000D03*
X125476000Y-110488000D03*
%TD*%
D26*
%TO.C,C13*%
X135890000Y-54480044D03*
X134165000Y-54480044D03*
%TD*%
D30*
%TO.C,C42*%
X130425227Y-49301569D03*
X132150227Y-49301569D03*
%TD*%
D45*
%TO.C,Y1*%
X134625962Y-69087999D03*
X140125962Y-69087999D03*
%TD*%
D38*
%TO.C,R15*%
X142899500Y-91932992D03*
X140899500Y-91932992D03*
%TD*%
D46*
%TO.C,D2*%
X149904228Y-75477459D03*
X151954228Y-75477459D03*
%TD*%
D47*
%TO.C,R14*%
X129540000Y-81280000D03*
X126440000Y-81280000D03*
%TD*%
D48*
%TO.C,FB1*%
X142722388Y-86517594D03*
X140972388Y-86517594D03*
%TD*%
D27*
%TO.C,SK6812MINI_E8*%
X93889999Y-118143097D03*
X93889999Y-116621437D03*
X99657999Y-118139028D03*
X99657999Y-116624929D03*
%TD*%
D35*
%TO.C,D12*%
X66548000Y-107188000D03*
X69848000Y-107188000D03*
%TD*%
D30*
%TO.C,C20*%
X133420888Y-72283375D03*
X135145888Y-72283375D03*
%TD*%
D26*
%TO.C,C7*%
X142719500Y-88211932D03*
X140994500Y-88211932D03*
%TD*%
D27*
%TO.C,SK6812MINI_E2*%
X94143999Y-80043097D03*
X94143999Y-78521437D03*
X99911999Y-80039028D03*
X99911999Y-78524929D03*
%TD*%
D39*
%TO.C,D5*%
X125476000Y-87250000D03*
X125476000Y-90550000D03*
%TD*%
D49*
%TO.C,D4*%
X128270000Y-70612000D03*
X124970000Y-70612000D03*
%TD*%
D50*
%TO.C,C14*%
X126597594Y-76284810D03*
X126597594Y-75469810D03*
%TD*%
M02*
