%TF.GenerationSoftware,KiCad,Pcbnew,(7.0.0)*%
%TF.CreationDate,2023-06-18T19:00:30+02:00*%
%TF.ProjectId,Macro_Keyboard,4d616372-6f5f-44b6-9579-626f6172642e,rev?*%
%TF.SameCoordinates,Original*%
%TF.FileFunction,Soldermask,Top*%
%TF.FilePolarity,Negative*%
%FSLAX46Y46*%
G04 Gerber Fmt 4.6, Leading zero omitted, Abs format (unit mm)*
G04 Created by KiCad (PCBNEW (7.0.0)) date 2023-06-18 19:00:30*
%MOMM*%
%LPD*%
G01*
G04 APERTURE LIST*
G04 Aperture macros list*
%AMRoundRect*
0 Rectangle with rounded corners*
0 $1 Rounding radius*
0 $2 $3 $4 $5 $6 $7 $8 $9 X,Y pos of 4 corners*
0 Add a 4 corners polygon primitive as box body*
4,1,4,$2,$3,$4,$5,$6,$7,$8,$9,$2,$3,0*
0 Add four circle primitives for the rounded corners*
1,1,$1+$1,$2,$3*
1,1,$1+$1,$4,$5*
1,1,$1+$1,$6,$7*
1,1,$1+$1,$8,$9*
0 Add four rect primitives between the rounded corners*
20,1,$1+$1,$2,$3,$4,$5,0*
20,1,$1+$1,$4,$5,$6,$7,0*
20,1,$1+$1,$6,$7,$8,$9,0*
20,1,$1+$1,$8,$9,$2,$3,0*%
G04 Aperture macros list end*
%ADD10RoundRect,0.250000X0.450000X-0.350000X0.450000X0.350000X-0.450000X0.350000X-0.450000X-0.350000X0*%
%ADD11RoundRect,0.237500X0.287500X0.237500X-0.287500X0.237500X-0.287500X-0.237500X0.287500X-0.237500X0*%
%ADD12RoundRect,0.250000X-0.450000X0.350000X-0.450000X-0.350000X0.450000X-0.350000X0.450000X0.350000X0*%
%ADD13C,1.750000*%
%ADD14C,3.050000*%
%ADD15C,4.000000*%
%ADD16R,0.450000X1.750000*%
%ADD17RoundRect,0.237500X0.300000X0.237500X-0.300000X0.237500X-0.300000X-0.237500X0.300000X-0.237500X0*%
%ADD18RoundRect,0.237500X-0.237500X0.287500X-0.237500X-0.287500X0.237500X-0.287500X0.237500X0.287500X0*%
%ADD19R,1.650000X1.650000*%
%ADD20C,1.650000*%
%ADD21O,6.000000X3.000000*%
%ADD22C,0.700000*%
%ADD23O,0.900000X2.400000*%
%ADD24O,0.900000X1.700000*%
%ADD25RoundRect,0.237500X0.237500X-0.300000X0.237500X0.300000X-0.237500X0.300000X-0.237500X-0.300000X0*%
%ADD26RoundRect,0.250000X0.412500X0.650000X-0.412500X0.650000X-0.412500X-0.650000X0.412500X-0.650000X0*%
%ADD27R,1.500000X0.400000*%
%ADD28RoundRect,0.160000X-0.222500X-0.160000X0.222500X-0.160000X0.222500X0.160000X-0.222500X0.160000X0*%
%ADD29RoundRect,0.160000X0.222500X0.160000X-0.222500X0.160000X-0.222500X-0.160000X0.222500X-0.160000X0*%
%ADD30C,3.800000*%
%ADD31RoundRect,0.237500X-0.250000X-0.237500X0.250000X-0.237500X0.250000X0.237500X-0.250000X0.237500X0*%
%ADD32C,2.200000*%
%ADD33C,1.700000*%
%ADD34RoundRect,0.250000X-0.350000X-0.450000X0.350000X-0.450000X0.350000X0.450000X-0.350000X0.450000X0*%
%ADD35RoundRect,0.160000X0.160000X-0.222500X0.160000X0.222500X-0.160000X0.222500X-0.160000X-0.222500X0*%
%ADD36RoundRect,0.250000X0.325000X0.450000X-0.325000X0.450000X-0.325000X-0.450000X0.325000X-0.450000X0*%
%ADD37RoundRect,0.250000X0.350000X0.450000X-0.350000X0.450000X-0.350000X-0.450000X0.350000X-0.450000X0*%
%ADD38RoundRect,0.237500X-0.300000X-0.237500X0.300000X-0.237500X0.300000X0.237500X-0.300000X0.237500X0*%
%ADD39R,1.250000X3.000000*%
%ADD40C,3.000000*%
%ADD41R,1.700000X1.700000*%
%ADD42O,1.700000X1.700000*%
%ADD43RoundRect,0.250000X-0.412500X-0.650000X0.412500X-0.650000X0.412500X0.650000X-0.412500X0.650000X0*%
%ADD44RoundRect,0.237500X-0.287500X-0.237500X0.287500X-0.237500X0.287500X0.237500X-0.287500X0.237500X0*%
G04 APERTURE END LIST*
D10*
%TO.C,R8*%
X150904530Y-61464530D03*
X150904530Y-59464530D03*
%TD*%
D11*
%TO.C,FB2*%
X95191549Y-60992392D03*
X93441549Y-60992392D03*
%TD*%
D12*
%TO.C,R12*%
X137775174Y-52013429D03*
X137775174Y-54013429D03*
%TD*%
D13*
%TO.C,SW8*%
X72877908Y-112560837D03*
D14*
X74147908Y-110020837D03*
D15*
X77957908Y-112560837D03*
D14*
X80497908Y-107480837D03*
D13*
X83037908Y-112560837D03*
%TD*%
%TO.C,SW9*%
X92023888Y-112530038D03*
D14*
X93293888Y-109990038D03*
D15*
X97103888Y-112530038D03*
D14*
X99643888Y-107450038D03*
D13*
X102183888Y-112530038D03*
%TD*%
%TO.C,SW4*%
X72935933Y-74362629D03*
D14*
X74205933Y-71822629D03*
D15*
X78015933Y-74362629D03*
D14*
X80555933Y-69282629D03*
D13*
X83095933Y-74362629D03*
%TD*%
D16*
%TO.C,U9*%
X136490999Y-65067999D03*
X137140999Y-65067999D03*
X137790999Y-65067999D03*
X138440999Y-65067999D03*
X139090999Y-65067999D03*
X139740999Y-65067999D03*
X140390999Y-65067999D03*
X141040999Y-65067999D03*
X141690999Y-65067999D03*
X142340999Y-65067999D03*
X142990999Y-65067999D03*
X143640999Y-65067999D03*
X144290999Y-65067999D03*
X144940999Y-65067999D03*
X144940999Y-57867999D03*
X144290999Y-57867999D03*
X143640999Y-57867999D03*
X142990999Y-57867999D03*
X142340999Y-57867999D03*
X141690999Y-57867999D03*
X141040999Y-57867999D03*
X140390999Y-57867999D03*
X139740999Y-57867999D03*
X139090999Y-57867999D03*
X138440999Y-57867999D03*
X137790999Y-57867999D03*
X137140999Y-57867999D03*
X136490999Y-57867999D03*
%TD*%
D10*
%TO.C,R18*%
X153170329Y-99536000D03*
X153170329Y-97536000D03*
%TD*%
D17*
%TO.C,C23*%
X113234695Y-57799445D03*
X111509695Y-57799445D03*
%TD*%
D18*
%TO.C,FB6*%
X145968998Y-52606000D03*
X145968998Y-54356000D03*
%TD*%
D19*
%TO.C,MT1*%
X135369999Y-117559999D03*
D20*
X135370000Y-112560000D03*
X149870000Y-117560000D03*
X149870000Y-112560000D03*
X149870000Y-115060000D03*
D21*
X142369999Y-120759999D03*
X142369999Y-109359999D03*
%TD*%
D22*
%TO.C,J1*%
X146045000Y-49525000D03*
X145195000Y-49525000D03*
X144345000Y-49525000D03*
X143495000Y-49525000D03*
X142645000Y-49525000D03*
X141795000Y-49525000D03*
X140945000Y-49525000D03*
X140095000Y-49525000D03*
X140095000Y-48175000D03*
X140945000Y-48175000D03*
X141795000Y-48175000D03*
X142645000Y-48175000D03*
X143495000Y-48175000D03*
X144345000Y-48175000D03*
X145195000Y-48175000D03*
X146045000Y-48175000D03*
D23*
X147394999Y-48544999D03*
D24*
X147394999Y-45164999D03*
D23*
X138744999Y-48544999D03*
D24*
X138744999Y-45164999D03*
%TD*%
D25*
%TO.C,C29*%
X64942354Y-55030980D03*
X64942354Y-53305980D03*
%TD*%
D26*
%TO.C,C22*%
X108458000Y-59436000D03*
X105333000Y-59436000D03*
%TD*%
D13*
%TO.C,SW7*%
X111189498Y-93471096D03*
D14*
X112459498Y-90931096D03*
D15*
X116269498Y-93471096D03*
D14*
X118809498Y-88391096D03*
D13*
X121349498Y-93471096D03*
%TD*%
D17*
%TO.C,C17*%
X135878048Y-49273518D03*
X134153048Y-49273518D03*
%TD*%
D27*
%TO.C,U6*%
X77917999Y-60055999D03*
X77917999Y-60705999D03*
X77917999Y-61355999D03*
X80577999Y-61355999D03*
X80577999Y-60705999D03*
X80577999Y-60055999D03*
%TD*%
D28*
%TO.C,TH1*%
X112013745Y-61229044D03*
X113158745Y-61229044D03*
%TD*%
D29*
%TO.C,TH2*%
X94950493Y-58928000D03*
X93805493Y-58928000D03*
%TD*%
D17*
%TO.C,C40*%
X132166101Y-51001903D03*
X130441101Y-51001903D03*
%TD*%
D30*
%TO.C,H3*%
X153416000Y-119126000D03*
%TD*%
D11*
%TO.C,FB3*%
X113251746Y-59418528D03*
X111501746Y-59418528D03*
%TD*%
D30*
%TO.C,H4*%
X151384000Y-49276000D03*
%TD*%
%TO.C,H2*%
X66040000Y-119380000D03*
%TD*%
D26*
%TO.C,C26*%
X90424000Y-60960000D03*
X87299000Y-60960000D03*
%TD*%
D25*
%TO.C,C15*%
X141263571Y-54090800D03*
X141263571Y-52365800D03*
%TD*%
D17*
%TO.C,C43*%
X135881199Y-52690215D03*
X134156199Y-52690215D03*
%TD*%
D31*
%TO.C,R5*%
X132541000Y-63119000D03*
X134366000Y-63119000D03*
%TD*%
D13*
%TO.C,SW2*%
X92077945Y-74359349D03*
D14*
X93347945Y-71819349D03*
D15*
X97157945Y-74359349D03*
D14*
X99697945Y-69279349D03*
D13*
X102237945Y-74359349D03*
%TD*%
D25*
%TO.C,C16*%
X139616637Y-54082032D03*
X139616637Y-52357032D03*
%TD*%
D32*
%TO.C,SW1*%
X127830000Y-45730000D03*
X134830000Y-45730000D03*
D33*
X129080000Y-43230000D03*
X133580000Y-43230000D03*
%TD*%
D30*
%TO.C,H1*%
X66548000Y-44704000D03*
%TD*%
D18*
%TO.C,FB4*%
X64942354Y-56847061D03*
X64942354Y-58597061D03*
%TD*%
D13*
%TO.C,SW10*%
X111148411Y-112562624D03*
D14*
X112418411Y-110022624D03*
D15*
X116228411Y-112562624D03*
D14*
X118768411Y-107482624D03*
D13*
X121308411Y-112562624D03*
%TD*%
D17*
%TO.C,C18*%
X135885853Y-50998656D03*
X134160853Y-50998656D03*
%TD*%
D27*
%TO.C,U7*%
X116525999Y-58277999D03*
X116525999Y-58927999D03*
X116525999Y-59577999D03*
X119185999Y-59577999D03*
X119185999Y-58927999D03*
X119185999Y-58277999D03*
%TD*%
D34*
%TO.C,R17*%
X149883465Y-45909109D03*
X151883465Y-45909109D03*
%TD*%
D35*
%TO.C,TH4*%
X66889352Y-58185815D03*
X66889352Y-57040815D03*
%TD*%
D10*
%TO.C,R9*%
X148774152Y-61464530D03*
X148774152Y-59464530D03*
%TD*%
D36*
%TO.C,D3*%
X150894000Y-57404000D03*
X148844000Y-57404000D03*
%TD*%
D37*
%TO.C,R6*%
X150622000Y-67561888D03*
X148622000Y-67561888D03*
%TD*%
D34*
%TO.C,R2*%
X131096000Y-112626957D03*
X133096000Y-112626957D03*
%TD*%
D17*
%TO.C,C27*%
X95177642Y-62660674D03*
X93452642Y-62660674D03*
%TD*%
D38*
%TO.C,C37*%
X130448707Y-54470501D03*
X132173707Y-54470501D03*
%TD*%
D39*
%TO.C,J2*%
X120443999Y-54900042D03*
X117943999Y-54900042D03*
X115943999Y-54900042D03*
X113443999Y-54900042D03*
D40*
X123514000Y-51220043D03*
X110374000Y-51220043D03*
%TD*%
D34*
%TO.C,R13*%
X149876000Y-43699174D03*
X151876000Y-43699174D03*
%TD*%
D10*
%TO.C,R19*%
X151130000Y-99536000D03*
X151130000Y-97536000D03*
%TD*%
D13*
%TO.C,SW3*%
X111203814Y-74357520D03*
D14*
X112473814Y-71817520D03*
D15*
X116283814Y-74357520D03*
D14*
X118823814Y-69277520D03*
D13*
X121363814Y-74357520D03*
%TD*%
D38*
%TO.C,C45*%
X153162000Y-103124000D03*
X154887000Y-103124000D03*
%TD*%
D41*
%TO.C,U4*%
X145785999Y-104418999D03*
D42*
X143245999Y-104418999D03*
X140705999Y-104418999D03*
X138165999Y-104418999D03*
%TD*%
D39*
%TO.C,J4*%
X80711825Y-54896188D03*
X78211825Y-54896188D03*
X76211825Y-54896188D03*
X73711825Y-54896188D03*
D40*
X83781826Y-51216189D03*
X70641826Y-51216189D03*
%TD*%
D38*
%TO.C,C41*%
X130427389Y-49290615D03*
X132152389Y-49290615D03*
%TD*%
D13*
%TO.C,SW5*%
X72905586Y-93411284D03*
D14*
X74175586Y-90871284D03*
D15*
X77985586Y-93411284D03*
D14*
X80525586Y-88331284D03*
D13*
X83065586Y-93411284D03*
%TD*%
%TO.C,SW6*%
X92064954Y-93423789D03*
D14*
X93334954Y-90883789D03*
D15*
X97144954Y-93423789D03*
D14*
X99684954Y-88343789D03*
D13*
X102224954Y-93423789D03*
%TD*%
D38*
%TO.C,C44*%
X134156607Y-54472982D03*
X135881607Y-54472982D03*
%TD*%
D12*
%TO.C,R10*%
X147843177Y-52613688D03*
X147843177Y-54613688D03*
%TD*%
D38*
%TO.C,C46*%
X151183000Y-105410000D03*
X152908000Y-105410000D03*
%TD*%
D31*
%TO.C,R7*%
X148696439Y-65438358D03*
X150521439Y-65438358D03*
%TD*%
D43*
%TO.C,C24*%
X70086929Y-60749006D03*
X73211929Y-60749006D03*
%TD*%
D38*
%TO.C,C19*%
X148844000Y-63500000D03*
X150569000Y-63500000D03*
%TD*%
D37*
%TO.C,R3*%
X133245590Y-119396313D03*
X131245590Y-119396313D03*
%TD*%
D39*
%TO.C,J3*%
X100527999Y-54923999D03*
X98027999Y-54923999D03*
X96027999Y-54923999D03*
X93527999Y-54923999D03*
D40*
X103598000Y-51244000D03*
X90458000Y-51244000D03*
%TD*%
D17*
%TO.C,C9*%
X133027636Y-117344790D03*
X131302636Y-117344790D03*
%TD*%
D12*
%TO.C,R11*%
X149860000Y-52610000D03*
X149860000Y-54610000D03*
%TD*%
D44*
%TO.C,FB7*%
X130428582Y-52681524D03*
X132178582Y-52681524D03*
%TD*%
D27*
%TO.C,U8*%
X97475999Y-58785999D03*
X97475999Y-59435999D03*
X97475999Y-60085999D03*
X100135999Y-60085999D03*
X100135999Y-59435999D03*
X100135999Y-58785999D03*
%TD*%
D41*
%TO.C,TP1*%
X127969999Y-120319999D03*
%TD*%
M02*
