M48
; DRILL file {KiCad (7.0.0)} date Mon Jan 29 13:59:19 2024
; FORMAT={-:-/ absolute / metric / decimal}
; #@! TF.CreationDate,2024-01-29T13:59:19+01:00
; #@! TF.GenerationSoftware,Kicad,Pcbnew,(7.0.0)
; #@! TF.FileFunction,Plated,1,4,PTH
FMAT,2
METRIC
; #@! TA.AperFunction,Plated,PTH,ViaDrill
T1C0.400
; #@! TA.AperFunction,Plated,PTH,ComponentDrill
T2C0.400
; #@! TA.AperFunction,Plated,PTH,ComponentDrill
T3C0.600
; #@! TA.AperFunction,Plated,PTH,ComponentDrill
T4C1.000
; #@! TA.AperFunction,Plated,PTH,ComponentDrill
T5C1.100
; #@! TA.AperFunction,Plated,PTH,ComponentDrill
T6C1.300
; #@! TA.AperFunction,Plated,PTH,ComponentDrill
T7C2.000
; #@! TA.AperFunction,Plated,PTH,ComponentDrill
T8C2.200
; #@! TA.AperFunction,Plated,PTH,ComponentDrill
T9C2.300
%
G90
G05
T1
X142.697Y-36.322
X142.697Y-41.402
X142.697Y-46.482
X142.697Y-51.562
X142.697Y-56.642
X142.697Y-61.722
X142.697Y-66.802
X142.697Y-71.882
X142.697Y-76.962
X142.697Y-82.042
X142.697Y-87.122
X142.697Y-92.202
X142.697Y-97.282
X142.697Y-102.362
X142.697Y-107.442
X142.697Y-112.522
X145.237Y-31.877
X145.745Y-73.406
X147.777Y-45.466
X147.777Y-46.99
X147.777Y-112.522
X150.317Y-31.877
X151.034Y-86.091
X152.095Y-70.612
X152.095Y-108.712
X152.736Y-86.128
X152.857Y-112.522
X154.635Y-47.752
X155.397Y-31.877
X155.524Y-51.3
X157.937Y-112.522
X158.191Y-47.752
X160.477Y-31.877
X161.16Y-51.312
X161.619Y-110.477
X161.746Y-72.267
X162.001Y-45.466
X162.282Y-88.054
X163.017Y-112.522
X163.338Y-110.526
X163.498Y-72.295
X165.557Y-31.877
X166.606Y-92.202
X166.818Y-74.41
X168.097Y-112.522
X170.404Y-86.102
X170.637Y-31.877
X170.935Y-49.056
X171.145Y-108.712
X171.653Y-70.612
X172.156Y-86.097
X173.177Y-112.522
X174.447Y-47.752
X175.209Y-50.038
X175.717Y-31.877
X175.717Y-53.34
X178.257Y-112.522
X178.511Y-47.498
X179.781Y-47.752
X180.781Y-110.365
X180.797Y-31.877
X180.931Y-72.24
X181.051Y-50.038
X181.813Y-88.138
X182.5Y-110.361
X183.337Y-112.522
X184.266Y-70.94
X185.877Y-31.877
X188.417Y-112.522
X189.433Y-86.106
X190.449Y-108.712
X190.703Y-70.612
X190.957Y-31.877
X191.181Y-86.144
X193.497Y-112.522
X194.259Y-48.006
X194.259Y-49.53
X194.513Y-51.816
X196.037Y-31.877
X198.323Y-47.752
X198.577Y-112.522
X199.847Y-49.53
X200.073Y-72.3
X200.163Y-110.417
X200.609Y-88.138
X201.117Y-31.877
X201.117Y-75.946
X201.117Y-95.25
X201.782Y-72.371
X203.453Y-109.045
X203.657Y-112.522
X205.689Y-59.182
X205.816Y-64.77
X206.197Y-31.877
X208.229Y-39.878
X208.229Y-44.958
X208.229Y-60.071
X208.737Y-112.522
X209.245Y-61.214
X209.245Y-65.532
X211.061Y-70.16
X211.086Y-63.606
X211.277Y-31.877
X211.724Y-52.409
X213.817Y-112.522
X214.325Y-55.626
X216.103Y-69.001
X216.357Y-31.877
X216.357Y-39.878
X216.611Y-62.859
X216.788Y-50.8
X217.241Y-71.693
X217.337Y-73.068
X217.373Y-74.422
X217.373Y-75.946
X217.838Y-50.8
X217.881Y-67.31
X217.881Y-69.85
X218.135Y-46.101
X218.135Y-57.658
X218.694Y-78.844
X219.266Y-41.149
X219.278Y-57.658
X219.314Y-68.433
X220.421Y-65.024
X220.447Y-67.338
X220.92Y-69.822
X221.437Y-31.877
X221.538Y-53.358
X222.15Y-59.436
X223.091Y-76.22
X223.248Y-59.431
X223.469Y-42.926
X223.469Y-44.958
X223.488Y-72.409
X224.993Y-73.914
X225.247Y-41.402
X225.501Y-48.514
X226.161Y-77.275
X226.517Y-31.877
X226.769Y-71.052
X226.798Y-72.001
X227.488Y-75.314
X227.533Y-73.914
X229.057Y-112.522
X230.073Y-72.136
X231.13Y-45.206
X231.597Y-31.877
X232.131Y-58.151
X234.137Y-36.322
X234.137Y-41.402
X234.137Y-46.482
X234.137Y-51.562
X234.137Y-56.642
X234.137Y-61.722
X234.137Y-66.802
X234.137Y-71.882
X234.137Y-76.962
X234.137Y-82.042
X234.137Y-87.122
X234.137Y-92.202
X234.137Y-97.282
X234.137Y-102.362
X234.137Y-107.442
X234.137Y-112.522
T2
X219.292Y-38.777
X219.292Y-40.127
X220.142Y-38.777
X220.142Y-40.127
X220.992Y-38.777
X220.992Y-40.127
X221.842Y-38.777
X221.842Y-40.127
X222.692Y-38.777
X222.692Y-40.127
X223.542Y-38.777
X223.542Y-40.127
X224.392Y-38.777
X224.392Y-40.127
X225.242Y-38.777
X225.242Y-40.127
T4
X207.167Y-110.922
X208.277Y-33.832
X212.777Y-33.832
X217.363Y-95.021
X219.903Y-95.021
X222.443Y-95.021
X224.983Y-95.021
T5
X214.567Y-103.162
X214.567Y-108.162
X229.067Y-103.162
X229.067Y-105.662
X229.067Y-108.162
T6
X207.027Y-36.332
X214.027Y-36.332
T8
X145.237Y-109.982
X145.745Y-35.306
X230.581Y-39.878
X232.613Y-109.728
T9
X149.839Y-41.818
X162.979Y-41.818
X169.655Y-41.846
X182.795Y-41.846
X189.571Y-41.822
X202.711Y-41.822
T3
G00X217.942Y-36.167
M15
G01X217.942Y-35.367
M16
G05
G00X217.942Y-39.897
M15
G01X217.942Y-38.397
M16
G05
G00X226.592Y-36.167
M15
G01X226.592Y-35.367
M16
G05
G00X226.592Y-39.897
M15
G01X226.592Y-38.397
M16
G05
T7
G00X221.167Y-99.962
M15
G01X221.967Y-99.962
M16
G05
G00X221.167Y-111.362
M15
G01X221.967Y-111.362
M16
G05
T0
M30
