M48
; DRILL file {KiCad (7.0.0)} date Wed May 17 12:55:02 2023
; FORMAT={-:-/ absolute / metric / decimal}
; #@! TF.CreationDate,2023-05-17T12:55:02+02:00
; #@! TF.GenerationSoftware,Kicad,Pcbnew,(7.0.0)
; #@! TF.FileFunction,NonPlated,1,4,NPTH
FMAT,2
METRIC
; #@! TA.AperFunction,NonPlated,NPTH,ComponentDrill
T1C1.750
; #@! TA.AperFunction,NonPlated,NPTH,ComponentDrill
T2C3.050
; #@! TA.AperFunction,NonPlated,NPTH,ComponentDrill
T3C4.000
%
G90
G05
T1
X72.878Y-112.561
X72.906Y-93.411
X72.936Y-74.363
X83.038Y-112.561
X83.066Y-93.411
X83.096Y-74.363
X92.024Y-112.53
X92.065Y-93.424
X92.078Y-74.359
X102.184Y-112.53
X102.225Y-93.424
X102.238Y-74.359
X111.148Y-112.563
X111.189Y-93.471
X111.204Y-74.358
X121.308Y-112.563
X121.349Y-93.471
X121.364Y-74.358
T2
X74.148Y-110.021
X74.176Y-90.871
X74.206Y-71.823
X80.498Y-107.481
X80.526Y-88.331
X80.556Y-69.283
X93.294Y-109.99
X93.335Y-90.884
X93.348Y-71.819
X99.644Y-107.45
X99.685Y-88.344
X99.698Y-69.279
X112.418Y-110.023
X112.459Y-90.931
X112.474Y-71.818
X118.768Y-107.483
X118.809Y-88.391
X118.824Y-69.278
T3
X77.958Y-112.561
X77.986Y-93.411
X78.016Y-74.363
X97.104Y-112.53
X97.145Y-93.424
X97.158Y-74.359
X116.228Y-112.563
X116.269Y-93.471
X116.284Y-74.358
T0
M30
