%TF.GenerationSoftware,KiCad,Pcbnew,(7.0.0)*%
%TF.CreationDate,2023-06-18T19:08:54+02:00*%
%TF.ProjectId,Macro_Keyboard,4d616372-6f5f-44b6-9579-626f6172642e,rev?*%
%TF.SameCoordinates,Original*%
%TF.FileFunction,Legend,Bot*%
%TF.FilePolarity,Positive*%
%FSLAX46Y46*%
G04 Gerber Fmt 4.6, Leading zero omitted, Abs format (unit mm)*
G04 Created by KiCad (PCBNEW (7.0.0)) date 2023-06-18 19:08:54*
%MOMM*%
%LPD*%
G01*
G04 APERTURE LIST*
%ADD10C,0.250000*%
%ADD11C,0.150000*%
%ADD12C,0.100000*%
%ADD13C,0.120000*%
G04 APERTURE END LIST*
D10*
X112839523Y-43738761D02*
X112696666Y-43786380D01*
X112696666Y-43786380D02*
X112458571Y-43786380D01*
X112458571Y-43786380D02*
X112363333Y-43738761D01*
X112363333Y-43738761D02*
X112315714Y-43691142D01*
X112315714Y-43691142D02*
X112268095Y-43595904D01*
X112268095Y-43595904D02*
X112268095Y-43500666D01*
X112268095Y-43500666D02*
X112315714Y-43405428D01*
X112315714Y-43405428D02*
X112363333Y-43357809D01*
X112363333Y-43357809D02*
X112458571Y-43310190D01*
X112458571Y-43310190D02*
X112649047Y-43262571D01*
X112649047Y-43262571D02*
X112744285Y-43214952D01*
X112744285Y-43214952D02*
X112791904Y-43167333D01*
X112791904Y-43167333D02*
X112839523Y-43072095D01*
X112839523Y-43072095D02*
X112839523Y-42976857D01*
X112839523Y-42976857D02*
X112791904Y-42881619D01*
X112791904Y-42881619D02*
X112744285Y-42834000D01*
X112744285Y-42834000D02*
X112649047Y-42786380D01*
X112649047Y-42786380D02*
X112410952Y-42786380D01*
X112410952Y-42786380D02*
X112268095Y-42834000D01*
X111982380Y-43119714D02*
X111601428Y-43119714D01*
X111839523Y-42786380D02*
X111839523Y-43643523D01*
X111839523Y-43643523D02*
X111791904Y-43738761D01*
X111791904Y-43738761D02*
X111696666Y-43786380D01*
X111696666Y-43786380D02*
X111601428Y-43786380D01*
X110839523Y-43119714D02*
X110839523Y-43786380D01*
X111268094Y-43119714D02*
X111268094Y-43643523D01*
X111268094Y-43643523D02*
X111220475Y-43738761D01*
X111220475Y-43738761D02*
X111125237Y-43786380D01*
X111125237Y-43786380D02*
X110982380Y-43786380D01*
X110982380Y-43786380D02*
X110887142Y-43738761D01*
X110887142Y-43738761D02*
X110839523Y-43691142D01*
X110363332Y-43119714D02*
X110363332Y-43786380D01*
X110363332Y-43214952D02*
X110315713Y-43167333D01*
X110315713Y-43167333D02*
X110220475Y-43119714D01*
X110220475Y-43119714D02*
X110077618Y-43119714D01*
X110077618Y-43119714D02*
X109982380Y-43167333D01*
X109982380Y-43167333D02*
X109934761Y-43262571D01*
X109934761Y-43262571D02*
X109934761Y-43786380D01*
X109029999Y-43786380D02*
X109029999Y-42786380D01*
X109029999Y-43738761D02*
X109125237Y-43786380D01*
X109125237Y-43786380D02*
X109315713Y-43786380D01*
X109315713Y-43786380D02*
X109410951Y-43738761D01*
X109410951Y-43738761D02*
X109458570Y-43691142D01*
X109458570Y-43691142D02*
X109506189Y-43595904D01*
X109506189Y-43595904D02*
X109506189Y-43310190D01*
X109506189Y-43310190D02*
X109458570Y-43214952D01*
X109458570Y-43214952D02*
X109410951Y-43167333D01*
X109410951Y-43167333D02*
X109315713Y-43119714D01*
X109315713Y-43119714D02*
X109125237Y-43119714D01*
X109125237Y-43119714D02*
X109029999Y-43167333D01*
X108553808Y-43119714D02*
X108553808Y-43786380D01*
X108553808Y-43214952D02*
X108506189Y-43167333D01*
X108506189Y-43167333D02*
X108410951Y-43119714D01*
X108410951Y-43119714D02*
X108268094Y-43119714D01*
X108268094Y-43119714D02*
X108172856Y-43167333D01*
X108172856Y-43167333D02*
X108125237Y-43262571D01*
X108125237Y-43262571D02*
X108125237Y-43786380D01*
X107268094Y-43738761D02*
X107363332Y-43786380D01*
X107363332Y-43786380D02*
X107553808Y-43786380D01*
X107553808Y-43786380D02*
X107649046Y-43738761D01*
X107649046Y-43738761D02*
X107696665Y-43643523D01*
X107696665Y-43643523D02*
X107696665Y-43262571D01*
X107696665Y-43262571D02*
X107649046Y-43167333D01*
X107649046Y-43167333D02*
X107553808Y-43119714D01*
X107553808Y-43119714D02*
X107363332Y-43119714D01*
X107363332Y-43119714D02*
X107268094Y-43167333D01*
X107268094Y-43167333D02*
X107220475Y-43262571D01*
X107220475Y-43262571D02*
X107220475Y-43357809D01*
X107220475Y-43357809D02*
X107696665Y-43453047D01*
X106791903Y-43786380D02*
X106791903Y-43119714D01*
X106791903Y-43310190D02*
X106744284Y-43214952D01*
X106744284Y-43214952D02*
X106696665Y-43167333D01*
X106696665Y-43167333D02*
X106601427Y-43119714D01*
X106601427Y-43119714D02*
X106506189Y-43119714D01*
X105620474Y-42881619D02*
X105572855Y-42834000D01*
X105572855Y-42834000D02*
X105477617Y-42786380D01*
X105477617Y-42786380D02*
X105239522Y-42786380D01*
X105239522Y-42786380D02*
X105144284Y-42834000D01*
X105144284Y-42834000D02*
X105096665Y-42881619D01*
X105096665Y-42881619D02*
X105049046Y-42976857D01*
X105049046Y-42976857D02*
X105049046Y-43072095D01*
X105049046Y-43072095D02*
X105096665Y-43214952D01*
X105096665Y-43214952D02*
X105668093Y-43786380D01*
X105668093Y-43786380D02*
X105049046Y-43786380D01*
X104429998Y-42786380D02*
X104334760Y-42786380D01*
X104334760Y-42786380D02*
X104239522Y-42834000D01*
X104239522Y-42834000D02*
X104191903Y-42881619D01*
X104191903Y-42881619D02*
X104144284Y-42976857D01*
X104144284Y-42976857D02*
X104096665Y-43167333D01*
X104096665Y-43167333D02*
X104096665Y-43405428D01*
X104096665Y-43405428D02*
X104144284Y-43595904D01*
X104144284Y-43595904D02*
X104191903Y-43691142D01*
X104191903Y-43691142D02*
X104239522Y-43738761D01*
X104239522Y-43738761D02*
X104334760Y-43786380D01*
X104334760Y-43786380D02*
X104429998Y-43786380D01*
X104429998Y-43786380D02*
X104525236Y-43738761D01*
X104525236Y-43738761D02*
X104572855Y-43691142D01*
X104572855Y-43691142D02*
X104620474Y-43595904D01*
X104620474Y-43595904D02*
X104668093Y-43405428D01*
X104668093Y-43405428D02*
X104668093Y-43167333D01*
X104668093Y-43167333D02*
X104620474Y-42976857D01*
X104620474Y-42976857D02*
X104572855Y-42881619D01*
X104572855Y-42881619D02*
X104525236Y-42834000D01*
X104525236Y-42834000D02*
X104429998Y-42786380D01*
X103715712Y-42881619D02*
X103668093Y-42834000D01*
X103668093Y-42834000D02*
X103572855Y-42786380D01*
X103572855Y-42786380D02*
X103334760Y-42786380D01*
X103334760Y-42786380D02*
X103239522Y-42834000D01*
X103239522Y-42834000D02*
X103191903Y-42881619D01*
X103191903Y-42881619D02*
X103144284Y-42976857D01*
X103144284Y-42976857D02*
X103144284Y-43072095D01*
X103144284Y-43072095D02*
X103191903Y-43214952D01*
X103191903Y-43214952D02*
X103763331Y-43786380D01*
X103763331Y-43786380D02*
X103144284Y-43786380D01*
X102810950Y-42786380D02*
X102191903Y-42786380D01*
X102191903Y-42786380D02*
X102525236Y-43167333D01*
X102525236Y-43167333D02*
X102382379Y-43167333D01*
X102382379Y-43167333D02*
X102287141Y-43214952D01*
X102287141Y-43214952D02*
X102239522Y-43262571D01*
X102239522Y-43262571D02*
X102191903Y-43357809D01*
X102191903Y-43357809D02*
X102191903Y-43595904D01*
X102191903Y-43595904D02*
X102239522Y-43691142D01*
X102239522Y-43691142D02*
X102287141Y-43738761D01*
X102287141Y-43738761D02*
X102382379Y-43786380D01*
X102382379Y-43786380D02*
X102668093Y-43786380D01*
X102668093Y-43786380D02*
X102763331Y-43738761D01*
X102763331Y-43738761D02*
X102810950Y-43691142D01*
X112791904Y-45406380D02*
X112791904Y-44406380D01*
X112791904Y-44406380D02*
X112458571Y-45120666D01*
X112458571Y-45120666D02*
X112125238Y-44406380D01*
X112125238Y-44406380D02*
X112125238Y-45406380D01*
X111220476Y-45406380D02*
X111220476Y-44882571D01*
X111220476Y-44882571D02*
X111268095Y-44787333D01*
X111268095Y-44787333D02*
X111363333Y-44739714D01*
X111363333Y-44739714D02*
X111553809Y-44739714D01*
X111553809Y-44739714D02*
X111649047Y-44787333D01*
X111220476Y-45358761D02*
X111315714Y-45406380D01*
X111315714Y-45406380D02*
X111553809Y-45406380D01*
X111553809Y-45406380D02*
X111649047Y-45358761D01*
X111649047Y-45358761D02*
X111696666Y-45263523D01*
X111696666Y-45263523D02*
X111696666Y-45168285D01*
X111696666Y-45168285D02*
X111649047Y-45073047D01*
X111649047Y-45073047D02*
X111553809Y-45025428D01*
X111553809Y-45025428D02*
X111315714Y-45025428D01*
X111315714Y-45025428D02*
X111220476Y-44977809D01*
X110315714Y-45358761D02*
X110410952Y-45406380D01*
X110410952Y-45406380D02*
X110601428Y-45406380D01*
X110601428Y-45406380D02*
X110696666Y-45358761D01*
X110696666Y-45358761D02*
X110744285Y-45311142D01*
X110744285Y-45311142D02*
X110791904Y-45215904D01*
X110791904Y-45215904D02*
X110791904Y-44930190D01*
X110791904Y-44930190D02*
X110744285Y-44834952D01*
X110744285Y-44834952D02*
X110696666Y-44787333D01*
X110696666Y-44787333D02*
X110601428Y-44739714D01*
X110601428Y-44739714D02*
X110410952Y-44739714D01*
X110410952Y-44739714D02*
X110315714Y-44787333D01*
X109887142Y-45406380D02*
X109887142Y-44739714D01*
X109887142Y-44930190D02*
X109839523Y-44834952D01*
X109839523Y-44834952D02*
X109791904Y-44787333D01*
X109791904Y-44787333D02*
X109696666Y-44739714D01*
X109696666Y-44739714D02*
X109601428Y-44739714D01*
X109125237Y-45406380D02*
X109220475Y-45358761D01*
X109220475Y-45358761D02*
X109268094Y-45311142D01*
X109268094Y-45311142D02*
X109315713Y-45215904D01*
X109315713Y-45215904D02*
X109315713Y-44930190D01*
X109315713Y-44930190D02*
X109268094Y-44834952D01*
X109268094Y-44834952D02*
X109220475Y-44787333D01*
X109220475Y-44787333D02*
X109125237Y-44739714D01*
X109125237Y-44739714D02*
X108982380Y-44739714D01*
X108982380Y-44739714D02*
X108887142Y-44787333D01*
X108887142Y-44787333D02*
X108839523Y-44834952D01*
X108839523Y-44834952D02*
X108791904Y-44930190D01*
X108791904Y-44930190D02*
X108791904Y-45215904D01*
X108791904Y-45215904D02*
X108839523Y-45311142D01*
X108839523Y-45311142D02*
X108887142Y-45358761D01*
X108887142Y-45358761D02*
X108982380Y-45406380D01*
X108982380Y-45406380D02*
X109125237Y-45406380D01*
X107763332Y-45406380D02*
X107763332Y-44406380D01*
X107191904Y-45406380D02*
X107620475Y-44834952D01*
X107191904Y-44406380D02*
X107763332Y-44977809D01*
X106382380Y-45358761D02*
X106477618Y-45406380D01*
X106477618Y-45406380D02*
X106668094Y-45406380D01*
X106668094Y-45406380D02*
X106763332Y-45358761D01*
X106763332Y-45358761D02*
X106810951Y-45263523D01*
X106810951Y-45263523D02*
X106810951Y-44882571D01*
X106810951Y-44882571D02*
X106763332Y-44787333D01*
X106763332Y-44787333D02*
X106668094Y-44739714D01*
X106668094Y-44739714D02*
X106477618Y-44739714D01*
X106477618Y-44739714D02*
X106382380Y-44787333D01*
X106382380Y-44787333D02*
X106334761Y-44882571D01*
X106334761Y-44882571D02*
X106334761Y-44977809D01*
X106334761Y-44977809D02*
X106810951Y-45073047D01*
X106001427Y-44739714D02*
X105763332Y-45406380D01*
X105525237Y-44739714D02*
X105763332Y-45406380D01*
X105763332Y-45406380D02*
X105858570Y-45644476D01*
X105858570Y-45644476D02*
X105906189Y-45692095D01*
X105906189Y-45692095D02*
X106001427Y-45739714D01*
X105144284Y-45406380D02*
X105144284Y-44406380D01*
X105144284Y-44787333D02*
X105049046Y-44739714D01*
X105049046Y-44739714D02*
X104858570Y-44739714D01*
X104858570Y-44739714D02*
X104763332Y-44787333D01*
X104763332Y-44787333D02*
X104715713Y-44834952D01*
X104715713Y-44834952D02*
X104668094Y-44930190D01*
X104668094Y-44930190D02*
X104668094Y-45215904D01*
X104668094Y-45215904D02*
X104715713Y-45311142D01*
X104715713Y-45311142D02*
X104763332Y-45358761D01*
X104763332Y-45358761D02*
X104858570Y-45406380D01*
X104858570Y-45406380D02*
X105049046Y-45406380D01*
X105049046Y-45406380D02*
X105144284Y-45358761D01*
X104096665Y-45406380D02*
X104191903Y-45358761D01*
X104191903Y-45358761D02*
X104239522Y-45311142D01*
X104239522Y-45311142D02*
X104287141Y-45215904D01*
X104287141Y-45215904D02*
X104287141Y-44930190D01*
X104287141Y-44930190D02*
X104239522Y-44834952D01*
X104239522Y-44834952D02*
X104191903Y-44787333D01*
X104191903Y-44787333D02*
X104096665Y-44739714D01*
X104096665Y-44739714D02*
X103953808Y-44739714D01*
X103953808Y-44739714D02*
X103858570Y-44787333D01*
X103858570Y-44787333D02*
X103810951Y-44834952D01*
X103810951Y-44834952D02*
X103763332Y-44930190D01*
X103763332Y-44930190D02*
X103763332Y-45215904D01*
X103763332Y-45215904D02*
X103810951Y-45311142D01*
X103810951Y-45311142D02*
X103858570Y-45358761D01*
X103858570Y-45358761D02*
X103953808Y-45406380D01*
X103953808Y-45406380D02*
X104096665Y-45406380D01*
X102906189Y-45406380D02*
X102906189Y-44882571D01*
X102906189Y-44882571D02*
X102953808Y-44787333D01*
X102953808Y-44787333D02*
X103049046Y-44739714D01*
X103049046Y-44739714D02*
X103239522Y-44739714D01*
X103239522Y-44739714D02*
X103334760Y-44787333D01*
X102906189Y-45358761D02*
X103001427Y-45406380D01*
X103001427Y-45406380D02*
X103239522Y-45406380D01*
X103239522Y-45406380D02*
X103334760Y-45358761D01*
X103334760Y-45358761D02*
X103382379Y-45263523D01*
X103382379Y-45263523D02*
X103382379Y-45168285D01*
X103382379Y-45168285D02*
X103334760Y-45073047D01*
X103334760Y-45073047D02*
X103239522Y-45025428D01*
X103239522Y-45025428D02*
X103001427Y-45025428D01*
X103001427Y-45025428D02*
X102906189Y-44977809D01*
X102429998Y-45406380D02*
X102429998Y-44739714D01*
X102429998Y-44930190D02*
X102382379Y-44834952D01*
X102382379Y-44834952D02*
X102334760Y-44787333D01*
X102334760Y-44787333D02*
X102239522Y-44739714D01*
X102239522Y-44739714D02*
X102144284Y-44739714D01*
X101382379Y-45406380D02*
X101382379Y-44406380D01*
X101382379Y-45358761D02*
X101477617Y-45406380D01*
X101477617Y-45406380D02*
X101668093Y-45406380D01*
X101668093Y-45406380D02*
X101763331Y-45358761D01*
X101763331Y-45358761D02*
X101810950Y-45311142D01*
X101810950Y-45311142D02*
X101858569Y-45215904D01*
X101858569Y-45215904D02*
X101858569Y-44930190D01*
X101858569Y-44930190D02*
X101810950Y-44834952D01*
X101810950Y-44834952D02*
X101763331Y-44787333D01*
X101763331Y-44787333D02*
X101668093Y-44739714D01*
X101668093Y-44739714D02*
X101477617Y-44739714D01*
X101477617Y-44739714D02*
X101382379Y-44787333D01*
X112220476Y-47026380D02*
X112553809Y-46550190D01*
X112791904Y-47026380D02*
X112791904Y-46026380D01*
X112791904Y-46026380D02*
X112410952Y-46026380D01*
X112410952Y-46026380D02*
X112315714Y-46074000D01*
X112315714Y-46074000D02*
X112268095Y-46121619D01*
X112268095Y-46121619D02*
X112220476Y-46216857D01*
X112220476Y-46216857D02*
X112220476Y-46359714D01*
X112220476Y-46359714D02*
X112268095Y-46454952D01*
X112268095Y-46454952D02*
X112315714Y-46502571D01*
X112315714Y-46502571D02*
X112410952Y-46550190D01*
X112410952Y-46550190D02*
X112791904Y-46550190D01*
X111410952Y-46978761D02*
X111506190Y-47026380D01*
X111506190Y-47026380D02*
X111696666Y-47026380D01*
X111696666Y-47026380D02*
X111791904Y-46978761D01*
X111791904Y-46978761D02*
X111839523Y-46883523D01*
X111839523Y-46883523D02*
X111839523Y-46502571D01*
X111839523Y-46502571D02*
X111791904Y-46407333D01*
X111791904Y-46407333D02*
X111696666Y-46359714D01*
X111696666Y-46359714D02*
X111506190Y-46359714D01*
X111506190Y-46359714D02*
X111410952Y-46407333D01*
X111410952Y-46407333D02*
X111363333Y-46502571D01*
X111363333Y-46502571D02*
X111363333Y-46597809D01*
X111363333Y-46597809D02*
X111839523Y-46693047D01*
X111029999Y-46359714D02*
X110791904Y-47026380D01*
X110791904Y-47026380D02*
X110553809Y-46359714D01*
X110172856Y-46931142D02*
X110125237Y-46978761D01*
X110125237Y-46978761D02*
X110172856Y-47026380D01*
X110172856Y-47026380D02*
X110220475Y-46978761D01*
X110220475Y-46978761D02*
X110172856Y-46931142D01*
X110172856Y-46931142D02*
X110172856Y-47026380D01*
X108572857Y-47026380D02*
X109144285Y-47026380D01*
X108858571Y-47026380D02*
X108858571Y-46026380D01*
X108858571Y-46026380D02*
X108953809Y-46169238D01*
X108953809Y-46169238D02*
X109049047Y-46264476D01*
X109049047Y-46264476D02*
X109144285Y-46312095D01*
X108144285Y-46931142D02*
X108096666Y-46978761D01*
X108096666Y-46978761D02*
X108144285Y-47026380D01*
X108144285Y-47026380D02*
X108191904Y-46978761D01*
X108191904Y-46978761D02*
X108144285Y-46931142D01*
X108144285Y-46931142D02*
X108144285Y-47026380D01*
X107477619Y-46026380D02*
X107382381Y-46026380D01*
X107382381Y-46026380D02*
X107287143Y-46074000D01*
X107287143Y-46074000D02*
X107239524Y-46121619D01*
X107239524Y-46121619D02*
X107191905Y-46216857D01*
X107191905Y-46216857D02*
X107144286Y-46407333D01*
X107144286Y-46407333D02*
X107144286Y-46645428D01*
X107144286Y-46645428D02*
X107191905Y-46835904D01*
X107191905Y-46835904D02*
X107239524Y-46931142D01*
X107239524Y-46931142D02*
X107287143Y-46978761D01*
X107287143Y-46978761D02*
X107382381Y-47026380D01*
X107382381Y-47026380D02*
X107477619Y-47026380D01*
X107477619Y-47026380D02*
X107572857Y-46978761D01*
X107572857Y-46978761D02*
X107620476Y-46931142D01*
X107620476Y-46931142D02*
X107668095Y-46835904D01*
X107668095Y-46835904D02*
X107715714Y-46645428D01*
X107715714Y-46645428D02*
X107715714Y-46407333D01*
X107715714Y-46407333D02*
X107668095Y-46216857D01*
X107668095Y-46216857D02*
X107620476Y-46121619D01*
X107620476Y-46121619D02*
X107572857Y-46074000D01*
X107572857Y-46074000D02*
X107477619Y-46026380D01*
D11*
%TO.C,U4*%
X147957380Y-103886095D02*
X148766904Y-103886095D01*
X148766904Y-103886095D02*
X148862142Y-103933714D01*
X148862142Y-103933714D02*
X148909761Y-103981333D01*
X148909761Y-103981333D02*
X148957380Y-104076571D01*
X148957380Y-104076571D02*
X148957380Y-104267047D01*
X148957380Y-104267047D02*
X148909761Y-104362285D01*
X148909761Y-104362285D02*
X148862142Y-104409904D01*
X148862142Y-104409904D02*
X148766904Y-104457523D01*
X148766904Y-104457523D02*
X147957380Y-104457523D01*
X148290714Y-105362285D02*
X148957380Y-105362285D01*
X147909761Y-105124190D02*
X148624047Y-104886095D01*
X148624047Y-104886095D02*
X148624047Y-105505142D01*
%TO.C,C34*%
X83938663Y-117262818D02*
X83986282Y-117310437D01*
X83986282Y-117310437D02*
X84129139Y-117358056D01*
X84129139Y-117358056D02*
X84224377Y-117358056D01*
X84224377Y-117358056D02*
X84367234Y-117310437D01*
X84367234Y-117310437D02*
X84462472Y-117215199D01*
X84462472Y-117215199D02*
X84510091Y-117119961D01*
X84510091Y-117119961D02*
X84557710Y-116929485D01*
X84557710Y-116929485D02*
X84557710Y-116786628D01*
X84557710Y-116786628D02*
X84510091Y-116596152D01*
X84510091Y-116596152D02*
X84462472Y-116500914D01*
X84462472Y-116500914D02*
X84367234Y-116405676D01*
X84367234Y-116405676D02*
X84224377Y-116358056D01*
X84224377Y-116358056D02*
X84129139Y-116358056D01*
X84129139Y-116358056D02*
X83986282Y-116405676D01*
X83986282Y-116405676D02*
X83938663Y-116453295D01*
X83605329Y-116358056D02*
X82986282Y-116358056D01*
X82986282Y-116358056D02*
X83319615Y-116739009D01*
X83319615Y-116739009D02*
X83176758Y-116739009D01*
X83176758Y-116739009D02*
X83081520Y-116786628D01*
X83081520Y-116786628D02*
X83033901Y-116834247D01*
X83033901Y-116834247D02*
X82986282Y-116929485D01*
X82986282Y-116929485D02*
X82986282Y-117167580D01*
X82986282Y-117167580D02*
X83033901Y-117262818D01*
X83033901Y-117262818D02*
X83081520Y-117310437D01*
X83081520Y-117310437D02*
X83176758Y-117358056D01*
X83176758Y-117358056D02*
X83462472Y-117358056D01*
X83462472Y-117358056D02*
X83557710Y-117310437D01*
X83557710Y-117310437D02*
X83605329Y-117262818D01*
X82129139Y-116691390D02*
X82129139Y-117358056D01*
X82367234Y-116310437D02*
X82605329Y-117024723D01*
X82605329Y-117024723D02*
X81986282Y-117024723D01*
%TO.C,C32*%
X103253866Y-79193833D02*
X103301485Y-79241452D01*
X103301485Y-79241452D02*
X103444342Y-79289071D01*
X103444342Y-79289071D02*
X103539580Y-79289071D01*
X103539580Y-79289071D02*
X103682437Y-79241452D01*
X103682437Y-79241452D02*
X103777675Y-79146214D01*
X103777675Y-79146214D02*
X103825294Y-79050976D01*
X103825294Y-79050976D02*
X103872913Y-78860500D01*
X103872913Y-78860500D02*
X103872913Y-78717643D01*
X103872913Y-78717643D02*
X103825294Y-78527167D01*
X103825294Y-78527167D02*
X103777675Y-78431929D01*
X103777675Y-78431929D02*
X103682437Y-78336691D01*
X103682437Y-78336691D02*
X103539580Y-78289071D01*
X103539580Y-78289071D02*
X103444342Y-78289071D01*
X103444342Y-78289071D02*
X103301485Y-78336691D01*
X103301485Y-78336691D02*
X103253866Y-78384310D01*
X102920532Y-78289071D02*
X102301485Y-78289071D01*
X102301485Y-78289071D02*
X102634818Y-78670024D01*
X102634818Y-78670024D02*
X102491961Y-78670024D01*
X102491961Y-78670024D02*
X102396723Y-78717643D01*
X102396723Y-78717643D02*
X102349104Y-78765262D01*
X102349104Y-78765262D02*
X102301485Y-78860500D01*
X102301485Y-78860500D02*
X102301485Y-79098595D01*
X102301485Y-79098595D02*
X102349104Y-79193833D01*
X102349104Y-79193833D02*
X102396723Y-79241452D01*
X102396723Y-79241452D02*
X102491961Y-79289071D01*
X102491961Y-79289071D02*
X102777675Y-79289071D01*
X102777675Y-79289071D02*
X102872913Y-79241452D01*
X102872913Y-79241452D02*
X102920532Y-79193833D01*
X101920532Y-78384310D02*
X101872913Y-78336691D01*
X101872913Y-78336691D02*
X101777675Y-78289071D01*
X101777675Y-78289071D02*
X101539580Y-78289071D01*
X101539580Y-78289071D02*
X101444342Y-78336691D01*
X101444342Y-78336691D02*
X101396723Y-78384310D01*
X101396723Y-78384310D02*
X101349104Y-78479548D01*
X101349104Y-78479548D02*
X101349104Y-78574786D01*
X101349104Y-78574786D02*
X101396723Y-78717643D01*
X101396723Y-78717643D02*
X101968151Y-79289071D01*
X101968151Y-79289071D02*
X101349104Y-79289071D01*
D12*
%TO.C,SK6812MINI_E5*%
X103655363Y-85917761D02*
X103512506Y-85965380D01*
X103512506Y-85965380D02*
X103274411Y-85965380D01*
X103274411Y-85965380D02*
X103179173Y-85917761D01*
X103179173Y-85917761D02*
X103131554Y-85870142D01*
X103131554Y-85870142D02*
X103083935Y-85774904D01*
X103083935Y-85774904D02*
X103083935Y-85679666D01*
X103083935Y-85679666D02*
X103131554Y-85584428D01*
X103131554Y-85584428D02*
X103179173Y-85536809D01*
X103179173Y-85536809D02*
X103274411Y-85489190D01*
X103274411Y-85489190D02*
X103464887Y-85441571D01*
X103464887Y-85441571D02*
X103560125Y-85393952D01*
X103560125Y-85393952D02*
X103607744Y-85346333D01*
X103607744Y-85346333D02*
X103655363Y-85251095D01*
X103655363Y-85251095D02*
X103655363Y-85155857D01*
X103655363Y-85155857D02*
X103607744Y-85060619D01*
X103607744Y-85060619D02*
X103560125Y-85013000D01*
X103560125Y-85013000D02*
X103464887Y-84965380D01*
X103464887Y-84965380D02*
X103226792Y-84965380D01*
X103226792Y-84965380D02*
X103083935Y-85013000D01*
X102655363Y-85965380D02*
X102655363Y-84965380D01*
X102083935Y-85965380D02*
X102512506Y-85393952D01*
X102083935Y-84965380D02*
X102655363Y-85536809D01*
X101226792Y-84965380D02*
X101417268Y-84965380D01*
X101417268Y-84965380D02*
X101512506Y-85013000D01*
X101512506Y-85013000D02*
X101560125Y-85060619D01*
X101560125Y-85060619D02*
X101655363Y-85203476D01*
X101655363Y-85203476D02*
X101702982Y-85393952D01*
X101702982Y-85393952D02*
X101702982Y-85774904D01*
X101702982Y-85774904D02*
X101655363Y-85870142D01*
X101655363Y-85870142D02*
X101607744Y-85917761D01*
X101607744Y-85917761D02*
X101512506Y-85965380D01*
X101512506Y-85965380D02*
X101322030Y-85965380D01*
X101322030Y-85965380D02*
X101226792Y-85917761D01*
X101226792Y-85917761D02*
X101179173Y-85870142D01*
X101179173Y-85870142D02*
X101131554Y-85774904D01*
X101131554Y-85774904D02*
X101131554Y-85536809D01*
X101131554Y-85536809D02*
X101179173Y-85441571D01*
X101179173Y-85441571D02*
X101226792Y-85393952D01*
X101226792Y-85393952D02*
X101322030Y-85346333D01*
X101322030Y-85346333D02*
X101512506Y-85346333D01*
X101512506Y-85346333D02*
X101607744Y-85393952D01*
X101607744Y-85393952D02*
X101655363Y-85441571D01*
X101655363Y-85441571D02*
X101702982Y-85536809D01*
X100560125Y-85393952D02*
X100655363Y-85346333D01*
X100655363Y-85346333D02*
X100702982Y-85298714D01*
X100702982Y-85298714D02*
X100750601Y-85203476D01*
X100750601Y-85203476D02*
X100750601Y-85155857D01*
X100750601Y-85155857D02*
X100702982Y-85060619D01*
X100702982Y-85060619D02*
X100655363Y-85013000D01*
X100655363Y-85013000D02*
X100560125Y-84965380D01*
X100560125Y-84965380D02*
X100369649Y-84965380D01*
X100369649Y-84965380D02*
X100274411Y-85013000D01*
X100274411Y-85013000D02*
X100226792Y-85060619D01*
X100226792Y-85060619D02*
X100179173Y-85155857D01*
X100179173Y-85155857D02*
X100179173Y-85203476D01*
X100179173Y-85203476D02*
X100226792Y-85298714D01*
X100226792Y-85298714D02*
X100274411Y-85346333D01*
X100274411Y-85346333D02*
X100369649Y-85393952D01*
X100369649Y-85393952D02*
X100560125Y-85393952D01*
X100560125Y-85393952D02*
X100655363Y-85441571D01*
X100655363Y-85441571D02*
X100702982Y-85489190D01*
X100702982Y-85489190D02*
X100750601Y-85584428D01*
X100750601Y-85584428D02*
X100750601Y-85774904D01*
X100750601Y-85774904D02*
X100702982Y-85870142D01*
X100702982Y-85870142D02*
X100655363Y-85917761D01*
X100655363Y-85917761D02*
X100560125Y-85965380D01*
X100560125Y-85965380D02*
X100369649Y-85965380D01*
X100369649Y-85965380D02*
X100274411Y-85917761D01*
X100274411Y-85917761D02*
X100226792Y-85870142D01*
X100226792Y-85870142D02*
X100179173Y-85774904D01*
X100179173Y-85774904D02*
X100179173Y-85584428D01*
X100179173Y-85584428D02*
X100226792Y-85489190D01*
X100226792Y-85489190D02*
X100274411Y-85441571D01*
X100274411Y-85441571D02*
X100369649Y-85393952D01*
X99226792Y-85965380D02*
X99798220Y-85965380D01*
X99512506Y-85965380D02*
X99512506Y-84965380D01*
X99512506Y-84965380D02*
X99607744Y-85108238D01*
X99607744Y-85108238D02*
X99702982Y-85203476D01*
X99702982Y-85203476D02*
X99798220Y-85251095D01*
X98845839Y-85060619D02*
X98798220Y-85013000D01*
X98798220Y-85013000D02*
X98702982Y-84965380D01*
X98702982Y-84965380D02*
X98464887Y-84965380D01*
X98464887Y-84965380D02*
X98369649Y-85013000D01*
X98369649Y-85013000D02*
X98322030Y-85060619D01*
X98322030Y-85060619D02*
X98274411Y-85155857D01*
X98274411Y-85155857D02*
X98274411Y-85251095D01*
X98274411Y-85251095D02*
X98322030Y-85393952D01*
X98322030Y-85393952D02*
X98893458Y-85965380D01*
X98893458Y-85965380D02*
X98274411Y-85965380D01*
X97845839Y-85965380D02*
X97845839Y-84965380D01*
X97845839Y-84965380D02*
X97512506Y-85679666D01*
X97512506Y-85679666D02*
X97179173Y-84965380D01*
X97179173Y-84965380D02*
X97179173Y-85965380D01*
X96702982Y-85965380D02*
X96702982Y-84965380D01*
X96226792Y-85965380D02*
X96226792Y-84965380D01*
X96226792Y-84965380D02*
X95655364Y-85965380D01*
X95655364Y-85965380D02*
X95655364Y-84965380D01*
X95179173Y-85965380D02*
X95179173Y-84965380D01*
X94941079Y-86060619D02*
X94179174Y-86060619D01*
X93941078Y-85441571D02*
X93607745Y-85441571D01*
X93464888Y-85965380D02*
X93941078Y-85965380D01*
X93941078Y-85965380D02*
X93941078Y-84965380D01*
X93941078Y-84965380D02*
X93464888Y-84965380D01*
X92560126Y-84965380D02*
X93036316Y-84965380D01*
X93036316Y-84965380D02*
X93083935Y-85441571D01*
X93083935Y-85441571D02*
X93036316Y-85393952D01*
X93036316Y-85393952D02*
X92941078Y-85346333D01*
X92941078Y-85346333D02*
X92702983Y-85346333D01*
X92702983Y-85346333D02*
X92607745Y-85393952D01*
X92607745Y-85393952D02*
X92560126Y-85441571D01*
X92560126Y-85441571D02*
X92512507Y-85536809D01*
X92512507Y-85536809D02*
X92512507Y-85774904D01*
X92512507Y-85774904D02*
X92560126Y-85870142D01*
X92560126Y-85870142D02*
X92607745Y-85917761D01*
X92607745Y-85917761D02*
X92702983Y-85965380D01*
X92702983Y-85965380D02*
X92941078Y-85965380D01*
X92941078Y-85965380D02*
X93036316Y-85917761D01*
X93036316Y-85917761D02*
X93083935Y-85870142D01*
D11*
%TO.C,FB8*%
X132137951Y-52675571D02*
X132471284Y-52675571D01*
X132471284Y-53199380D02*
X132471284Y-52199380D01*
X132471284Y-52199380D02*
X131995094Y-52199380D01*
X131280808Y-52675571D02*
X131137951Y-52723190D01*
X131137951Y-52723190D02*
X131090332Y-52770809D01*
X131090332Y-52770809D02*
X131042713Y-52866047D01*
X131042713Y-52866047D02*
X131042713Y-53008904D01*
X131042713Y-53008904D02*
X131090332Y-53104142D01*
X131090332Y-53104142D02*
X131137951Y-53151761D01*
X131137951Y-53151761D02*
X131233189Y-53199380D01*
X131233189Y-53199380D02*
X131614141Y-53199380D01*
X131614141Y-53199380D02*
X131614141Y-52199380D01*
X131614141Y-52199380D02*
X131280808Y-52199380D01*
X131280808Y-52199380D02*
X131185570Y-52247000D01*
X131185570Y-52247000D02*
X131137951Y-52294619D01*
X131137951Y-52294619D02*
X131090332Y-52389857D01*
X131090332Y-52389857D02*
X131090332Y-52485095D01*
X131090332Y-52485095D02*
X131137951Y-52580333D01*
X131137951Y-52580333D02*
X131185570Y-52627952D01*
X131185570Y-52627952D02*
X131280808Y-52675571D01*
X131280808Y-52675571D02*
X131614141Y-52675571D01*
X130471284Y-52627952D02*
X130566522Y-52580333D01*
X130566522Y-52580333D02*
X130614141Y-52532714D01*
X130614141Y-52532714D02*
X130661760Y-52437476D01*
X130661760Y-52437476D02*
X130661760Y-52389857D01*
X130661760Y-52389857D02*
X130614141Y-52294619D01*
X130614141Y-52294619D02*
X130566522Y-52247000D01*
X130566522Y-52247000D02*
X130471284Y-52199380D01*
X130471284Y-52199380D02*
X130280808Y-52199380D01*
X130280808Y-52199380D02*
X130185570Y-52247000D01*
X130185570Y-52247000D02*
X130137951Y-52294619D01*
X130137951Y-52294619D02*
X130090332Y-52389857D01*
X130090332Y-52389857D02*
X130090332Y-52437476D01*
X130090332Y-52437476D02*
X130137951Y-52532714D01*
X130137951Y-52532714D02*
X130185570Y-52580333D01*
X130185570Y-52580333D02*
X130280808Y-52627952D01*
X130280808Y-52627952D02*
X130471284Y-52627952D01*
X130471284Y-52627952D02*
X130566522Y-52675571D01*
X130566522Y-52675571D02*
X130614141Y-52723190D01*
X130614141Y-52723190D02*
X130661760Y-52818428D01*
X130661760Y-52818428D02*
X130661760Y-53008904D01*
X130661760Y-53008904D02*
X130614141Y-53104142D01*
X130614141Y-53104142D02*
X130566522Y-53151761D01*
X130566522Y-53151761D02*
X130471284Y-53199380D01*
X130471284Y-53199380D02*
X130280808Y-53199380D01*
X130280808Y-53199380D02*
X130185570Y-53151761D01*
X130185570Y-53151761D02*
X130137951Y-53104142D01*
X130137951Y-53104142D02*
X130090332Y-53008904D01*
X130090332Y-53008904D02*
X130090332Y-52818428D01*
X130090332Y-52818428D02*
X130137951Y-52723190D01*
X130137951Y-52723190D02*
X130185570Y-52675571D01*
X130185570Y-52675571D02*
X130280808Y-52627952D01*
D12*
%TO.C,SK6812MINI_E9*%
X82189427Y-104967761D02*
X82046570Y-105015380D01*
X82046570Y-105015380D02*
X81808475Y-105015380D01*
X81808475Y-105015380D02*
X81713237Y-104967761D01*
X81713237Y-104967761D02*
X81665618Y-104920142D01*
X81665618Y-104920142D02*
X81617999Y-104824904D01*
X81617999Y-104824904D02*
X81617999Y-104729666D01*
X81617999Y-104729666D02*
X81665618Y-104634428D01*
X81665618Y-104634428D02*
X81713237Y-104586809D01*
X81713237Y-104586809D02*
X81808475Y-104539190D01*
X81808475Y-104539190D02*
X81998951Y-104491571D01*
X81998951Y-104491571D02*
X82094189Y-104443952D01*
X82094189Y-104443952D02*
X82141808Y-104396333D01*
X82141808Y-104396333D02*
X82189427Y-104301095D01*
X82189427Y-104301095D02*
X82189427Y-104205857D01*
X82189427Y-104205857D02*
X82141808Y-104110619D01*
X82141808Y-104110619D02*
X82094189Y-104063000D01*
X82094189Y-104063000D02*
X81998951Y-104015380D01*
X81998951Y-104015380D02*
X81760856Y-104015380D01*
X81760856Y-104015380D02*
X81617999Y-104063000D01*
X81189427Y-105015380D02*
X81189427Y-104015380D01*
X80617999Y-105015380D02*
X81046570Y-104443952D01*
X80617999Y-104015380D02*
X81189427Y-104586809D01*
X79760856Y-104015380D02*
X79951332Y-104015380D01*
X79951332Y-104015380D02*
X80046570Y-104063000D01*
X80046570Y-104063000D02*
X80094189Y-104110619D01*
X80094189Y-104110619D02*
X80189427Y-104253476D01*
X80189427Y-104253476D02*
X80237046Y-104443952D01*
X80237046Y-104443952D02*
X80237046Y-104824904D01*
X80237046Y-104824904D02*
X80189427Y-104920142D01*
X80189427Y-104920142D02*
X80141808Y-104967761D01*
X80141808Y-104967761D02*
X80046570Y-105015380D01*
X80046570Y-105015380D02*
X79856094Y-105015380D01*
X79856094Y-105015380D02*
X79760856Y-104967761D01*
X79760856Y-104967761D02*
X79713237Y-104920142D01*
X79713237Y-104920142D02*
X79665618Y-104824904D01*
X79665618Y-104824904D02*
X79665618Y-104586809D01*
X79665618Y-104586809D02*
X79713237Y-104491571D01*
X79713237Y-104491571D02*
X79760856Y-104443952D01*
X79760856Y-104443952D02*
X79856094Y-104396333D01*
X79856094Y-104396333D02*
X80046570Y-104396333D01*
X80046570Y-104396333D02*
X80141808Y-104443952D01*
X80141808Y-104443952D02*
X80189427Y-104491571D01*
X80189427Y-104491571D02*
X80237046Y-104586809D01*
X79094189Y-104443952D02*
X79189427Y-104396333D01*
X79189427Y-104396333D02*
X79237046Y-104348714D01*
X79237046Y-104348714D02*
X79284665Y-104253476D01*
X79284665Y-104253476D02*
X79284665Y-104205857D01*
X79284665Y-104205857D02*
X79237046Y-104110619D01*
X79237046Y-104110619D02*
X79189427Y-104063000D01*
X79189427Y-104063000D02*
X79094189Y-104015380D01*
X79094189Y-104015380D02*
X78903713Y-104015380D01*
X78903713Y-104015380D02*
X78808475Y-104063000D01*
X78808475Y-104063000D02*
X78760856Y-104110619D01*
X78760856Y-104110619D02*
X78713237Y-104205857D01*
X78713237Y-104205857D02*
X78713237Y-104253476D01*
X78713237Y-104253476D02*
X78760856Y-104348714D01*
X78760856Y-104348714D02*
X78808475Y-104396333D01*
X78808475Y-104396333D02*
X78903713Y-104443952D01*
X78903713Y-104443952D02*
X79094189Y-104443952D01*
X79094189Y-104443952D02*
X79189427Y-104491571D01*
X79189427Y-104491571D02*
X79237046Y-104539190D01*
X79237046Y-104539190D02*
X79284665Y-104634428D01*
X79284665Y-104634428D02*
X79284665Y-104824904D01*
X79284665Y-104824904D02*
X79237046Y-104920142D01*
X79237046Y-104920142D02*
X79189427Y-104967761D01*
X79189427Y-104967761D02*
X79094189Y-105015380D01*
X79094189Y-105015380D02*
X78903713Y-105015380D01*
X78903713Y-105015380D02*
X78808475Y-104967761D01*
X78808475Y-104967761D02*
X78760856Y-104920142D01*
X78760856Y-104920142D02*
X78713237Y-104824904D01*
X78713237Y-104824904D02*
X78713237Y-104634428D01*
X78713237Y-104634428D02*
X78760856Y-104539190D01*
X78760856Y-104539190D02*
X78808475Y-104491571D01*
X78808475Y-104491571D02*
X78903713Y-104443952D01*
X77760856Y-105015380D02*
X78332284Y-105015380D01*
X78046570Y-105015380D02*
X78046570Y-104015380D01*
X78046570Y-104015380D02*
X78141808Y-104158238D01*
X78141808Y-104158238D02*
X78237046Y-104253476D01*
X78237046Y-104253476D02*
X78332284Y-104301095D01*
X77379903Y-104110619D02*
X77332284Y-104063000D01*
X77332284Y-104063000D02*
X77237046Y-104015380D01*
X77237046Y-104015380D02*
X76998951Y-104015380D01*
X76998951Y-104015380D02*
X76903713Y-104063000D01*
X76903713Y-104063000D02*
X76856094Y-104110619D01*
X76856094Y-104110619D02*
X76808475Y-104205857D01*
X76808475Y-104205857D02*
X76808475Y-104301095D01*
X76808475Y-104301095D02*
X76856094Y-104443952D01*
X76856094Y-104443952D02*
X77427522Y-105015380D01*
X77427522Y-105015380D02*
X76808475Y-105015380D01*
X76379903Y-105015380D02*
X76379903Y-104015380D01*
X76379903Y-104015380D02*
X76046570Y-104729666D01*
X76046570Y-104729666D02*
X75713237Y-104015380D01*
X75713237Y-104015380D02*
X75713237Y-105015380D01*
X75237046Y-105015380D02*
X75237046Y-104015380D01*
X74760856Y-105015380D02*
X74760856Y-104015380D01*
X74760856Y-104015380D02*
X74189428Y-105015380D01*
X74189428Y-105015380D02*
X74189428Y-104015380D01*
X73713237Y-105015380D02*
X73713237Y-104015380D01*
X73475143Y-105110619D02*
X72713238Y-105110619D01*
X72475142Y-104491571D02*
X72141809Y-104491571D01*
X71998952Y-105015380D02*
X72475142Y-105015380D01*
X72475142Y-105015380D02*
X72475142Y-104015380D01*
X72475142Y-104015380D02*
X71998952Y-104015380D01*
X71522761Y-105015380D02*
X71332285Y-105015380D01*
X71332285Y-105015380D02*
X71237047Y-104967761D01*
X71237047Y-104967761D02*
X71189428Y-104920142D01*
X71189428Y-104920142D02*
X71094190Y-104777285D01*
X71094190Y-104777285D02*
X71046571Y-104586809D01*
X71046571Y-104586809D02*
X71046571Y-104205857D01*
X71046571Y-104205857D02*
X71094190Y-104110619D01*
X71094190Y-104110619D02*
X71141809Y-104063000D01*
X71141809Y-104063000D02*
X71237047Y-104015380D01*
X71237047Y-104015380D02*
X71427523Y-104015380D01*
X71427523Y-104015380D02*
X71522761Y-104063000D01*
X71522761Y-104063000D02*
X71570380Y-104110619D01*
X71570380Y-104110619D02*
X71617999Y-104205857D01*
X71617999Y-104205857D02*
X71617999Y-104443952D01*
X71617999Y-104443952D02*
X71570380Y-104539190D01*
X71570380Y-104539190D02*
X71522761Y-104586809D01*
X71522761Y-104586809D02*
X71427523Y-104634428D01*
X71427523Y-104634428D02*
X71237047Y-104634428D01*
X71237047Y-104634428D02*
X71141809Y-104586809D01*
X71141809Y-104586809D02*
X71094190Y-104539190D01*
X71094190Y-104539190D02*
X71046571Y-104443952D01*
D11*
%TO.C,R1*%
X147433380Y-88479333D02*
X146957190Y-88146000D01*
X147433380Y-87907905D02*
X146433380Y-87907905D01*
X146433380Y-87907905D02*
X146433380Y-88288857D01*
X146433380Y-88288857D02*
X146481000Y-88384095D01*
X146481000Y-88384095D02*
X146528619Y-88431714D01*
X146528619Y-88431714D02*
X146623857Y-88479333D01*
X146623857Y-88479333D02*
X146766714Y-88479333D01*
X146766714Y-88479333D02*
X146861952Y-88431714D01*
X146861952Y-88431714D02*
X146909571Y-88384095D01*
X146909571Y-88384095D02*
X146957190Y-88288857D01*
X146957190Y-88288857D02*
X146957190Y-87907905D01*
X147433380Y-89431714D02*
X147433380Y-88860286D01*
X147433380Y-89146000D02*
X146433380Y-89146000D01*
X146433380Y-89146000D02*
X146576238Y-89050762D01*
X146576238Y-89050762D02*
X146671476Y-88955524D01*
X146671476Y-88955524D02*
X146719095Y-88860286D01*
%TO.C,C5*%
X147338142Y-82637333D02*
X147385761Y-82589714D01*
X147385761Y-82589714D02*
X147433380Y-82446857D01*
X147433380Y-82446857D02*
X147433380Y-82351619D01*
X147433380Y-82351619D02*
X147385761Y-82208762D01*
X147385761Y-82208762D02*
X147290523Y-82113524D01*
X147290523Y-82113524D02*
X147195285Y-82065905D01*
X147195285Y-82065905D02*
X147004809Y-82018286D01*
X147004809Y-82018286D02*
X146861952Y-82018286D01*
X146861952Y-82018286D02*
X146671476Y-82065905D01*
X146671476Y-82065905D02*
X146576238Y-82113524D01*
X146576238Y-82113524D02*
X146481000Y-82208762D01*
X146481000Y-82208762D02*
X146433380Y-82351619D01*
X146433380Y-82351619D02*
X146433380Y-82446857D01*
X146433380Y-82446857D02*
X146481000Y-82589714D01*
X146481000Y-82589714D02*
X146528619Y-82637333D01*
X146433380Y-83542095D02*
X146433380Y-83065905D01*
X146433380Y-83065905D02*
X146909571Y-83018286D01*
X146909571Y-83018286D02*
X146861952Y-83065905D01*
X146861952Y-83065905D02*
X146814333Y-83161143D01*
X146814333Y-83161143D02*
X146814333Y-83399238D01*
X146814333Y-83399238D02*
X146861952Y-83494476D01*
X146861952Y-83494476D02*
X146909571Y-83542095D01*
X146909571Y-83542095D02*
X147004809Y-83589714D01*
X147004809Y-83589714D02*
X147242904Y-83589714D01*
X147242904Y-83589714D02*
X147338142Y-83542095D01*
X147338142Y-83542095D02*
X147385761Y-83494476D01*
X147385761Y-83494476D02*
X147433380Y-83399238D01*
X147433380Y-83399238D02*
X147433380Y-83161143D01*
X147433380Y-83161143D02*
X147385761Y-83065905D01*
X147385761Y-83065905D02*
X147338142Y-83018286D01*
%TO.C,C30*%
X73321756Y-98844374D02*
X73369375Y-98891993D01*
X73369375Y-98891993D02*
X73512232Y-98939612D01*
X73512232Y-98939612D02*
X73607470Y-98939612D01*
X73607470Y-98939612D02*
X73750327Y-98891993D01*
X73750327Y-98891993D02*
X73845565Y-98796755D01*
X73845565Y-98796755D02*
X73893184Y-98701517D01*
X73893184Y-98701517D02*
X73940803Y-98511041D01*
X73940803Y-98511041D02*
X73940803Y-98368184D01*
X73940803Y-98368184D02*
X73893184Y-98177708D01*
X73893184Y-98177708D02*
X73845565Y-98082470D01*
X73845565Y-98082470D02*
X73750327Y-97987232D01*
X73750327Y-97987232D02*
X73607470Y-97939612D01*
X73607470Y-97939612D02*
X73512232Y-97939612D01*
X73512232Y-97939612D02*
X73369375Y-97987232D01*
X73369375Y-97987232D02*
X73321756Y-98034851D01*
X72988422Y-97939612D02*
X72369375Y-97939612D01*
X72369375Y-97939612D02*
X72702708Y-98320565D01*
X72702708Y-98320565D02*
X72559851Y-98320565D01*
X72559851Y-98320565D02*
X72464613Y-98368184D01*
X72464613Y-98368184D02*
X72416994Y-98415803D01*
X72416994Y-98415803D02*
X72369375Y-98511041D01*
X72369375Y-98511041D02*
X72369375Y-98749136D01*
X72369375Y-98749136D02*
X72416994Y-98844374D01*
X72416994Y-98844374D02*
X72464613Y-98891993D01*
X72464613Y-98891993D02*
X72559851Y-98939612D01*
X72559851Y-98939612D02*
X72845565Y-98939612D01*
X72845565Y-98939612D02*
X72940803Y-98891993D01*
X72940803Y-98891993D02*
X72988422Y-98844374D01*
X71750327Y-97939612D02*
X71655089Y-97939612D01*
X71655089Y-97939612D02*
X71559851Y-97987232D01*
X71559851Y-97987232D02*
X71512232Y-98034851D01*
X71512232Y-98034851D02*
X71464613Y-98130089D01*
X71464613Y-98130089D02*
X71416994Y-98320565D01*
X71416994Y-98320565D02*
X71416994Y-98558660D01*
X71416994Y-98558660D02*
X71464613Y-98749136D01*
X71464613Y-98749136D02*
X71512232Y-98844374D01*
X71512232Y-98844374D02*
X71559851Y-98891993D01*
X71559851Y-98891993D02*
X71655089Y-98939612D01*
X71655089Y-98939612D02*
X71750327Y-98939612D01*
X71750327Y-98939612D02*
X71845565Y-98891993D01*
X71845565Y-98891993D02*
X71893184Y-98844374D01*
X71893184Y-98844374D02*
X71940803Y-98749136D01*
X71940803Y-98749136D02*
X71988422Y-98558660D01*
X71988422Y-98558660D02*
X71988422Y-98320565D01*
X71988422Y-98320565D02*
X71940803Y-98130089D01*
X71940803Y-98130089D02*
X71893184Y-98034851D01*
X71893184Y-98034851D02*
X71845565Y-97987232D01*
X71845565Y-97987232D02*
X71750327Y-97939612D01*
%TO.C,C3*%
X130448510Y-79708046D02*
X130496129Y-79660427D01*
X130496129Y-79660427D02*
X130543748Y-79517570D01*
X130543748Y-79517570D02*
X130543748Y-79422332D01*
X130543748Y-79422332D02*
X130496129Y-79279475D01*
X130496129Y-79279475D02*
X130400891Y-79184237D01*
X130400891Y-79184237D02*
X130305653Y-79136618D01*
X130305653Y-79136618D02*
X130115177Y-79088999D01*
X130115177Y-79088999D02*
X129972320Y-79088999D01*
X129972320Y-79088999D02*
X129781844Y-79136618D01*
X129781844Y-79136618D02*
X129686606Y-79184237D01*
X129686606Y-79184237D02*
X129591368Y-79279475D01*
X129591368Y-79279475D02*
X129543748Y-79422332D01*
X129543748Y-79422332D02*
X129543748Y-79517570D01*
X129543748Y-79517570D02*
X129591368Y-79660427D01*
X129591368Y-79660427D02*
X129638987Y-79708046D01*
X129543748Y-80041380D02*
X129543748Y-80660427D01*
X129543748Y-80660427D02*
X129924701Y-80327094D01*
X129924701Y-80327094D02*
X129924701Y-80469951D01*
X129924701Y-80469951D02*
X129972320Y-80565189D01*
X129972320Y-80565189D02*
X130019939Y-80612808D01*
X130019939Y-80612808D02*
X130115177Y-80660427D01*
X130115177Y-80660427D02*
X130353272Y-80660427D01*
X130353272Y-80660427D02*
X130448510Y-80612808D01*
X130448510Y-80612808D02*
X130496129Y-80565189D01*
X130496129Y-80565189D02*
X130543748Y-80469951D01*
X130543748Y-80469951D02*
X130543748Y-80184237D01*
X130543748Y-80184237D02*
X130496129Y-80088999D01*
X130496129Y-80088999D02*
X130448510Y-80041380D01*
%TO.C,C28*%
X92722850Y-98882900D02*
X92770469Y-98930519D01*
X92770469Y-98930519D02*
X92913326Y-98978138D01*
X92913326Y-98978138D02*
X93008564Y-98978138D01*
X93008564Y-98978138D02*
X93151421Y-98930519D01*
X93151421Y-98930519D02*
X93246659Y-98835281D01*
X93246659Y-98835281D02*
X93294278Y-98740043D01*
X93294278Y-98740043D02*
X93341897Y-98549567D01*
X93341897Y-98549567D02*
X93341897Y-98406710D01*
X93341897Y-98406710D02*
X93294278Y-98216234D01*
X93294278Y-98216234D02*
X93246659Y-98120996D01*
X93246659Y-98120996D02*
X93151421Y-98025758D01*
X93151421Y-98025758D02*
X93008564Y-97978138D01*
X93008564Y-97978138D02*
X92913326Y-97978138D01*
X92913326Y-97978138D02*
X92770469Y-98025758D01*
X92770469Y-98025758D02*
X92722850Y-98073377D01*
X92341897Y-98073377D02*
X92294278Y-98025758D01*
X92294278Y-98025758D02*
X92199040Y-97978138D01*
X92199040Y-97978138D02*
X91960945Y-97978138D01*
X91960945Y-97978138D02*
X91865707Y-98025758D01*
X91865707Y-98025758D02*
X91818088Y-98073377D01*
X91818088Y-98073377D02*
X91770469Y-98168615D01*
X91770469Y-98168615D02*
X91770469Y-98263853D01*
X91770469Y-98263853D02*
X91818088Y-98406710D01*
X91818088Y-98406710D02*
X92389516Y-98978138D01*
X92389516Y-98978138D02*
X91770469Y-98978138D01*
X91199040Y-98406710D02*
X91294278Y-98359091D01*
X91294278Y-98359091D02*
X91341897Y-98311472D01*
X91341897Y-98311472D02*
X91389516Y-98216234D01*
X91389516Y-98216234D02*
X91389516Y-98168615D01*
X91389516Y-98168615D02*
X91341897Y-98073377D01*
X91341897Y-98073377D02*
X91294278Y-98025758D01*
X91294278Y-98025758D02*
X91199040Y-97978138D01*
X91199040Y-97978138D02*
X91008564Y-97978138D01*
X91008564Y-97978138D02*
X90913326Y-98025758D01*
X90913326Y-98025758D02*
X90865707Y-98073377D01*
X90865707Y-98073377D02*
X90818088Y-98168615D01*
X90818088Y-98168615D02*
X90818088Y-98216234D01*
X90818088Y-98216234D02*
X90865707Y-98311472D01*
X90865707Y-98311472D02*
X90913326Y-98359091D01*
X90913326Y-98359091D02*
X91008564Y-98406710D01*
X91008564Y-98406710D02*
X91199040Y-98406710D01*
X91199040Y-98406710D02*
X91294278Y-98454329D01*
X91294278Y-98454329D02*
X91341897Y-98501948D01*
X91341897Y-98501948D02*
X91389516Y-98597186D01*
X91389516Y-98597186D02*
X91389516Y-98787662D01*
X91389516Y-98787662D02*
X91341897Y-98882900D01*
X91341897Y-98882900D02*
X91294278Y-98930519D01*
X91294278Y-98930519D02*
X91199040Y-98978138D01*
X91199040Y-98978138D02*
X91008564Y-98978138D01*
X91008564Y-98978138D02*
X90913326Y-98930519D01*
X90913326Y-98930519D02*
X90865707Y-98882900D01*
X90865707Y-98882900D02*
X90818088Y-98787662D01*
X90818088Y-98787662D02*
X90818088Y-98597186D01*
X90818088Y-98597186D02*
X90865707Y-98501948D01*
X90865707Y-98501948D02*
X90913326Y-98454329D01*
X90913326Y-98454329D02*
X91008564Y-98406710D01*
D12*
%TO.C,U2*%
X133858095Y-80134619D02*
X133858095Y-79325095D01*
X133858095Y-79325095D02*
X133905714Y-79229857D01*
X133905714Y-79229857D02*
X133953333Y-79182238D01*
X133953333Y-79182238D02*
X134048571Y-79134619D01*
X134048571Y-79134619D02*
X134239047Y-79134619D01*
X134239047Y-79134619D02*
X134334285Y-79182238D01*
X134334285Y-79182238D02*
X134381904Y-79229857D01*
X134381904Y-79229857D02*
X134429523Y-79325095D01*
X134429523Y-79325095D02*
X134429523Y-80134619D01*
X134858095Y-80039380D02*
X134905714Y-80087000D01*
X134905714Y-80087000D02*
X135000952Y-80134619D01*
X135000952Y-80134619D02*
X135239047Y-80134619D01*
X135239047Y-80134619D02*
X135334285Y-80087000D01*
X135334285Y-80087000D02*
X135381904Y-80039380D01*
X135381904Y-80039380D02*
X135429523Y-79944142D01*
X135429523Y-79944142D02*
X135429523Y-79848904D01*
X135429523Y-79848904D02*
X135381904Y-79706047D01*
X135381904Y-79706047D02*
X134810476Y-79134619D01*
X134810476Y-79134619D02*
X135429523Y-79134619D01*
D11*
%TO.C,C25*%
X111743235Y-98851921D02*
X111790854Y-98899540D01*
X111790854Y-98899540D02*
X111933711Y-98947159D01*
X111933711Y-98947159D02*
X112028949Y-98947159D01*
X112028949Y-98947159D02*
X112171806Y-98899540D01*
X112171806Y-98899540D02*
X112267044Y-98804302D01*
X112267044Y-98804302D02*
X112314663Y-98709064D01*
X112314663Y-98709064D02*
X112362282Y-98518588D01*
X112362282Y-98518588D02*
X112362282Y-98375731D01*
X112362282Y-98375731D02*
X112314663Y-98185255D01*
X112314663Y-98185255D02*
X112267044Y-98090017D01*
X112267044Y-98090017D02*
X112171806Y-97994779D01*
X112171806Y-97994779D02*
X112028949Y-97947159D01*
X112028949Y-97947159D02*
X111933711Y-97947159D01*
X111933711Y-97947159D02*
X111790854Y-97994779D01*
X111790854Y-97994779D02*
X111743235Y-98042398D01*
X111362282Y-98042398D02*
X111314663Y-97994779D01*
X111314663Y-97994779D02*
X111219425Y-97947159D01*
X111219425Y-97947159D02*
X110981330Y-97947159D01*
X110981330Y-97947159D02*
X110886092Y-97994779D01*
X110886092Y-97994779D02*
X110838473Y-98042398D01*
X110838473Y-98042398D02*
X110790854Y-98137636D01*
X110790854Y-98137636D02*
X110790854Y-98232874D01*
X110790854Y-98232874D02*
X110838473Y-98375731D01*
X110838473Y-98375731D02*
X111409901Y-98947159D01*
X111409901Y-98947159D02*
X110790854Y-98947159D01*
X109886092Y-97947159D02*
X110362282Y-97947159D01*
X110362282Y-97947159D02*
X110409901Y-98423350D01*
X110409901Y-98423350D02*
X110362282Y-98375731D01*
X110362282Y-98375731D02*
X110267044Y-98328112D01*
X110267044Y-98328112D02*
X110028949Y-98328112D01*
X110028949Y-98328112D02*
X109933711Y-98375731D01*
X109933711Y-98375731D02*
X109886092Y-98423350D01*
X109886092Y-98423350D02*
X109838473Y-98518588D01*
X109838473Y-98518588D02*
X109838473Y-98756683D01*
X109838473Y-98756683D02*
X109886092Y-98851921D01*
X109886092Y-98851921D02*
X109933711Y-98899540D01*
X109933711Y-98899540D02*
X110028949Y-98947159D01*
X110028949Y-98947159D02*
X110267044Y-98947159D01*
X110267044Y-98947159D02*
X110362282Y-98899540D01*
X110362282Y-98899540D02*
X110409901Y-98851921D01*
%TO.C,C10*%
X135680814Y-49660806D02*
X135728433Y-49708425D01*
X135728433Y-49708425D02*
X135871290Y-49756044D01*
X135871290Y-49756044D02*
X135966528Y-49756044D01*
X135966528Y-49756044D02*
X136109385Y-49708425D01*
X136109385Y-49708425D02*
X136204623Y-49613187D01*
X136204623Y-49613187D02*
X136252242Y-49517949D01*
X136252242Y-49517949D02*
X136299861Y-49327473D01*
X136299861Y-49327473D02*
X136299861Y-49184616D01*
X136299861Y-49184616D02*
X136252242Y-48994140D01*
X136252242Y-48994140D02*
X136204623Y-48898902D01*
X136204623Y-48898902D02*
X136109385Y-48803664D01*
X136109385Y-48803664D02*
X135966528Y-48756044D01*
X135966528Y-48756044D02*
X135871290Y-48756044D01*
X135871290Y-48756044D02*
X135728433Y-48803664D01*
X135728433Y-48803664D02*
X135680814Y-48851283D01*
X134728433Y-49756044D02*
X135299861Y-49756044D01*
X135014147Y-49756044D02*
X135014147Y-48756044D01*
X135014147Y-48756044D02*
X135109385Y-48898902D01*
X135109385Y-48898902D02*
X135204623Y-48994140D01*
X135204623Y-48994140D02*
X135299861Y-49041759D01*
X134109385Y-48756044D02*
X134014147Y-48756044D01*
X134014147Y-48756044D02*
X133918909Y-48803664D01*
X133918909Y-48803664D02*
X133871290Y-48851283D01*
X133871290Y-48851283D02*
X133823671Y-48946521D01*
X133823671Y-48946521D02*
X133776052Y-49136997D01*
X133776052Y-49136997D02*
X133776052Y-49375092D01*
X133776052Y-49375092D02*
X133823671Y-49565568D01*
X133823671Y-49565568D02*
X133871290Y-49660806D01*
X133871290Y-49660806D02*
X133918909Y-49708425D01*
X133918909Y-49708425D02*
X134014147Y-49756044D01*
X134014147Y-49756044D02*
X134109385Y-49756044D01*
X134109385Y-49756044D02*
X134204623Y-49708425D01*
X134204623Y-49708425D02*
X134252242Y-49660806D01*
X134252242Y-49660806D02*
X134299861Y-49565568D01*
X134299861Y-49565568D02*
X134347480Y-49375092D01*
X134347480Y-49375092D02*
X134347480Y-49136997D01*
X134347480Y-49136997D02*
X134299861Y-48946521D01*
X134299861Y-48946521D02*
X134252242Y-48851283D01*
X134252242Y-48851283D02*
X134204623Y-48803664D01*
X134204623Y-48803664D02*
X134109385Y-48756044D01*
%TO.C,C35*%
X103084733Y-117248692D02*
X103132352Y-117296311D01*
X103132352Y-117296311D02*
X103275209Y-117343930D01*
X103275209Y-117343930D02*
X103370447Y-117343930D01*
X103370447Y-117343930D02*
X103513304Y-117296311D01*
X103513304Y-117296311D02*
X103608542Y-117201073D01*
X103608542Y-117201073D02*
X103656161Y-117105835D01*
X103656161Y-117105835D02*
X103703780Y-116915359D01*
X103703780Y-116915359D02*
X103703780Y-116772502D01*
X103703780Y-116772502D02*
X103656161Y-116582026D01*
X103656161Y-116582026D02*
X103608542Y-116486788D01*
X103608542Y-116486788D02*
X103513304Y-116391550D01*
X103513304Y-116391550D02*
X103370447Y-116343930D01*
X103370447Y-116343930D02*
X103275209Y-116343930D01*
X103275209Y-116343930D02*
X103132352Y-116391550D01*
X103132352Y-116391550D02*
X103084733Y-116439169D01*
X102751399Y-116343930D02*
X102132352Y-116343930D01*
X102132352Y-116343930D02*
X102465685Y-116724883D01*
X102465685Y-116724883D02*
X102322828Y-116724883D01*
X102322828Y-116724883D02*
X102227590Y-116772502D01*
X102227590Y-116772502D02*
X102179971Y-116820121D01*
X102179971Y-116820121D02*
X102132352Y-116915359D01*
X102132352Y-116915359D02*
X102132352Y-117153454D01*
X102132352Y-117153454D02*
X102179971Y-117248692D01*
X102179971Y-117248692D02*
X102227590Y-117296311D01*
X102227590Y-117296311D02*
X102322828Y-117343930D01*
X102322828Y-117343930D02*
X102608542Y-117343930D01*
X102608542Y-117343930D02*
X102703780Y-117296311D01*
X102703780Y-117296311D02*
X102751399Y-117248692D01*
X101227590Y-116343930D02*
X101703780Y-116343930D01*
X101703780Y-116343930D02*
X101751399Y-116820121D01*
X101751399Y-116820121D02*
X101703780Y-116772502D01*
X101703780Y-116772502D02*
X101608542Y-116724883D01*
X101608542Y-116724883D02*
X101370447Y-116724883D01*
X101370447Y-116724883D02*
X101275209Y-116772502D01*
X101275209Y-116772502D02*
X101227590Y-116820121D01*
X101227590Y-116820121D02*
X101179971Y-116915359D01*
X101179971Y-116915359D02*
X101179971Y-117153454D01*
X101179971Y-117153454D02*
X101227590Y-117248692D01*
X101227590Y-117248692D02*
X101275209Y-117296311D01*
X101275209Y-117296311D02*
X101370447Y-117343930D01*
X101370447Y-117343930D02*
X101608542Y-117343930D01*
X101608542Y-117343930D02*
X101703780Y-117296311D01*
X101703780Y-117296311D02*
X101751399Y-117248692D01*
D12*
%TO.C,SK6812MINI_E3*%
X82824427Y-66359761D02*
X82681570Y-66407380D01*
X82681570Y-66407380D02*
X82443475Y-66407380D01*
X82443475Y-66407380D02*
X82348237Y-66359761D01*
X82348237Y-66359761D02*
X82300618Y-66312142D01*
X82300618Y-66312142D02*
X82252999Y-66216904D01*
X82252999Y-66216904D02*
X82252999Y-66121666D01*
X82252999Y-66121666D02*
X82300618Y-66026428D01*
X82300618Y-66026428D02*
X82348237Y-65978809D01*
X82348237Y-65978809D02*
X82443475Y-65931190D01*
X82443475Y-65931190D02*
X82633951Y-65883571D01*
X82633951Y-65883571D02*
X82729189Y-65835952D01*
X82729189Y-65835952D02*
X82776808Y-65788333D01*
X82776808Y-65788333D02*
X82824427Y-65693095D01*
X82824427Y-65693095D02*
X82824427Y-65597857D01*
X82824427Y-65597857D02*
X82776808Y-65502619D01*
X82776808Y-65502619D02*
X82729189Y-65455000D01*
X82729189Y-65455000D02*
X82633951Y-65407380D01*
X82633951Y-65407380D02*
X82395856Y-65407380D01*
X82395856Y-65407380D02*
X82252999Y-65455000D01*
X81824427Y-66407380D02*
X81824427Y-65407380D01*
X81252999Y-66407380D02*
X81681570Y-65835952D01*
X81252999Y-65407380D02*
X81824427Y-65978809D01*
X80395856Y-65407380D02*
X80586332Y-65407380D01*
X80586332Y-65407380D02*
X80681570Y-65455000D01*
X80681570Y-65455000D02*
X80729189Y-65502619D01*
X80729189Y-65502619D02*
X80824427Y-65645476D01*
X80824427Y-65645476D02*
X80872046Y-65835952D01*
X80872046Y-65835952D02*
X80872046Y-66216904D01*
X80872046Y-66216904D02*
X80824427Y-66312142D01*
X80824427Y-66312142D02*
X80776808Y-66359761D01*
X80776808Y-66359761D02*
X80681570Y-66407380D01*
X80681570Y-66407380D02*
X80491094Y-66407380D01*
X80491094Y-66407380D02*
X80395856Y-66359761D01*
X80395856Y-66359761D02*
X80348237Y-66312142D01*
X80348237Y-66312142D02*
X80300618Y-66216904D01*
X80300618Y-66216904D02*
X80300618Y-65978809D01*
X80300618Y-65978809D02*
X80348237Y-65883571D01*
X80348237Y-65883571D02*
X80395856Y-65835952D01*
X80395856Y-65835952D02*
X80491094Y-65788333D01*
X80491094Y-65788333D02*
X80681570Y-65788333D01*
X80681570Y-65788333D02*
X80776808Y-65835952D01*
X80776808Y-65835952D02*
X80824427Y-65883571D01*
X80824427Y-65883571D02*
X80872046Y-65978809D01*
X79729189Y-65835952D02*
X79824427Y-65788333D01*
X79824427Y-65788333D02*
X79872046Y-65740714D01*
X79872046Y-65740714D02*
X79919665Y-65645476D01*
X79919665Y-65645476D02*
X79919665Y-65597857D01*
X79919665Y-65597857D02*
X79872046Y-65502619D01*
X79872046Y-65502619D02*
X79824427Y-65455000D01*
X79824427Y-65455000D02*
X79729189Y-65407380D01*
X79729189Y-65407380D02*
X79538713Y-65407380D01*
X79538713Y-65407380D02*
X79443475Y-65455000D01*
X79443475Y-65455000D02*
X79395856Y-65502619D01*
X79395856Y-65502619D02*
X79348237Y-65597857D01*
X79348237Y-65597857D02*
X79348237Y-65645476D01*
X79348237Y-65645476D02*
X79395856Y-65740714D01*
X79395856Y-65740714D02*
X79443475Y-65788333D01*
X79443475Y-65788333D02*
X79538713Y-65835952D01*
X79538713Y-65835952D02*
X79729189Y-65835952D01*
X79729189Y-65835952D02*
X79824427Y-65883571D01*
X79824427Y-65883571D02*
X79872046Y-65931190D01*
X79872046Y-65931190D02*
X79919665Y-66026428D01*
X79919665Y-66026428D02*
X79919665Y-66216904D01*
X79919665Y-66216904D02*
X79872046Y-66312142D01*
X79872046Y-66312142D02*
X79824427Y-66359761D01*
X79824427Y-66359761D02*
X79729189Y-66407380D01*
X79729189Y-66407380D02*
X79538713Y-66407380D01*
X79538713Y-66407380D02*
X79443475Y-66359761D01*
X79443475Y-66359761D02*
X79395856Y-66312142D01*
X79395856Y-66312142D02*
X79348237Y-66216904D01*
X79348237Y-66216904D02*
X79348237Y-66026428D01*
X79348237Y-66026428D02*
X79395856Y-65931190D01*
X79395856Y-65931190D02*
X79443475Y-65883571D01*
X79443475Y-65883571D02*
X79538713Y-65835952D01*
X78395856Y-66407380D02*
X78967284Y-66407380D01*
X78681570Y-66407380D02*
X78681570Y-65407380D01*
X78681570Y-65407380D02*
X78776808Y-65550238D01*
X78776808Y-65550238D02*
X78872046Y-65645476D01*
X78872046Y-65645476D02*
X78967284Y-65693095D01*
X78014903Y-65502619D02*
X77967284Y-65455000D01*
X77967284Y-65455000D02*
X77872046Y-65407380D01*
X77872046Y-65407380D02*
X77633951Y-65407380D01*
X77633951Y-65407380D02*
X77538713Y-65455000D01*
X77538713Y-65455000D02*
X77491094Y-65502619D01*
X77491094Y-65502619D02*
X77443475Y-65597857D01*
X77443475Y-65597857D02*
X77443475Y-65693095D01*
X77443475Y-65693095D02*
X77491094Y-65835952D01*
X77491094Y-65835952D02*
X78062522Y-66407380D01*
X78062522Y-66407380D02*
X77443475Y-66407380D01*
X77014903Y-66407380D02*
X77014903Y-65407380D01*
X77014903Y-65407380D02*
X76681570Y-66121666D01*
X76681570Y-66121666D02*
X76348237Y-65407380D01*
X76348237Y-65407380D02*
X76348237Y-66407380D01*
X75872046Y-66407380D02*
X75872046Y-65407380D01*
X75395856Y-66407380D02*
X75395856Y-65407380D01*
X75395856Y-65407380D02*
X74824428Y-66407380D01*
X74824428Y-66407380D02*
X74824428Y-65407380D01*
X74348237Y-66407380D02*
X74348237Y-65407380D01*
X74110143Y-66502619D02*
X73348238Y-66502619D01*
X73110142Y-65883571D02*
X72776809Y-65883571D01*
X72633952Y-66407380D02*
X73110142Y-66407380D01*
X73110142Y-66407380D02*
X73110142Y-65407380D01*
X73110142Y-65407380D02*
X72633952Y-65407380D01*
X72300618Y-65407380D02*
X71681571Y-65407380D01*
X71681571Y-65407380D02*
X72014904Y-65788333D01*
X72014904Y-65788333D02*
X71872047Y-65788333D01*
X71872047Y-65788333D02*
X71776809Y-65835952D01*
X71776809Y-65835952D02*
X71729190Y-65883571D01*
X71729190Y-65883571D02*
X71681571Y-65978809D01*
X71681571Y-65978809D02*
X71681571Y-66216904D01*
X71681571Y-66216904D02*
X71729190Y-66312142D01*
X71729190Y-66312142D02*
X71776809Y-66359761D01*
X71776809Y-66359761D02*
X71872047Y-66407380D01*
X71872047Y-66407380D02*
X72157761Y-66407380D01*
X72157761Y-66407380D02*
X72252999Y-66359761D01*
X72252999Y-66359761D02*
X72300618Y-66312142D01*
D11*
%TO.C,C38*%
X132087857Y-54882142D02*
X132135476Y-54929761D01*
X132135476Y-54929761D02*
X132278333Y-54977380D01*
X132278333Y-54977380D02*
X132373571Y-54977380D01*
X132373571Y-54977380D02*
X132516428Y-54929761D01*
X132516428Y-54929761D02*
X132611666Y-54834523D01*
X132611666Y-54834523D02*
X132659285Y-54739285D01*
X132659285Y-54739285D02*
X132706904Y-54548809D01*
X132706904Y-54548809D02*
X132706904Y-54405952D01*
X132706904Y-54405952D02*
X132659285Y-54215476D01*
X132659285Y-54215476D02*
X132611666Y-54120238D01*
X132611666Y-54120238D02*
X132516428Y-54025000D01*
X132516428Y-54025000D02*
X132373571Y-53977380D01*
X132373571Y-53977380D02*
X132278333Y-53977380D01*
X132278333Y-53977380D02*
X132135476Y-54025000D01*
X132135476Y-54025000D02*
X132087857Y-54072619D01*
X131754523Y-53977380D02*
X131135476Y-53977380D01*
X131135476Y-53977380D02*
X131468809Y-54358333D01*
X131468809Y-54358333D02*
X131325952Y-54358333D01*
X131325952Y-54358333D02*
X131230714Y-54405952D01*
X131230714Y-54405952D02*
X131183095Y-54453571D01*
X131183095Y-54453571D02*
X131135476Y-54548809D01*
X131135476Y-54548809D02*
X131135476Y-54786904D01*
X131135476Y-54786904D02*
X131183095Y-54882142D01*
X131183095Y-54882142D02*
X131230714Y-54929761D01*
X131230714Y-54929761D02*
X131325952Y-54977380D01*
X131325952Y-54977380D02*
X131611666Y-54977380D01*
X131611666Y-54977380D02*
X131706904Y-54929761D01*
X131706904Y-54929761D02*
X131754523Y-54882142D01*
X130564047Y-54405952D02*
X130659285Y-54358333D01*
X130659285Y-54358333D02*
X130706904Y-54310714D01*
X130706904Y-54310714D02*
X130754523Y-54215476D01*
X130754523Y-54215476D02*
X130754523Y-54167857D01*
X130754523Y-54167857D02*
X130706904Y-54072619D01*
X130706904Y-54072619D02*
X130659285Y-54025000D01*
X130659285Y-54025000D02*
X130564047Y-53977380D01*
X130564047Y-53977380D02*
X130373571Y-53977380D01*
X130373571Y-53977380D02*
X130278333Y-54025000D01*
X130278333Y-54025000D02*
X130230714Y-54072619D01*
X130230714Y-54072619D02*
X130183095Y-54167857D01*
X130183095Y-54167857D02*
X130183095Y-54215476D01*
X130183095Y-54215476D02*
X130230714Y-54310714D01*
X130230714Y-54310714D02*
X130278333Y-54358333D01*
X130278333Y-54358333D02*
X130373571Y-54405952D01*
X130373571Y-54405952D02*
X130564047Y-54405952D01*
X130564047Y-54405952D02*
X130659285Y-54453571D01*
X130659285Y-54453571D02*
X130706904Y-54501190D01*
X130706904Y-54501190D02*
X130754523Y-54596428D01*
X130754523Y-54596428D02*
X130754523Y-54786904D01*
X130754523Y-54786904D02*
X130706904Y-54882142D01*
X130706904Y-54882142D02*
X130659285Y-54929761D01*
X130659285Y-54929761D02*
X130564047Y-54977380D01*
X130564047Y-54977380D02*
X130373571Y-54977380D01*
X130373571Y-54977380D02*
X130278333Y-54929761D01*
X130278333Y-54929761D02*
X130230714Y-54882142D01*
X130230714Y-54882142D02*
X130183095Y-54786904D01*
X130183095Y-54786904D02*
X130183095Y-54596428D01*
X130183095Y-54596428D02*
X130230714Y-54501190D01*
X130230714Y-54501190D02*
X130278333Y-54453571D01*
X130278333Y-54453571D02*
X130373571Y-54405952D01*
%TO.C,C36*%
X122487154Y-117274830D02*
X122534773Y-117322449D01*
X122534773Y-117322449D02*
X122677630Y-117370068D01*
X122677630Y-117370068D02*
X122772868Y-117370068D01*
X122772868Y-117370068D02*
X122915725Y-117322449D01*
X122915725Y-117322449D02*
X123010963Y-117227211D01*
X123010963Y-117227211D02*
X123058582Y-117131973D01*
X123058582Y-117131973D02*
X123106201Y-116941497D01*
X123106201Y-116941497D02*
X123106201Y-116798640D01*
X123106201Y-116798640D02*
X123058582Y-116608164D01*
X123058582Y-116608164D02*
X123010963Y-116512926D01*
X123010963Y-116512926D02*
X122915725Y-116417688D01*
X122915725Y-116417688D02*
X122772868Y-116370068D01*
X122772868Y-116370068D02*
X122677630Y-116370068D01*
X122677630Y-116370068D02*
X122534773Y-116417688D01*
X122534773Y-116417688D02*
X122487154Y-116465307D01*
X122153820Y-116370068D02*
X121534773Y-116370068D01*
X121534773Y-116370068D02*
X121868106Y-116751021D01*
X121868106Y-116751021D02*
X121725249Y-116751021D01*
X121725249Y-116751021D02*
X121630011Y-116798640D01*
X121630011Y-116798640D02*
X121582392Y-116846259D01*
X121582392Y-116846259D02*
X121534773Y-116941497D01*
X121534773Y-116941497D02*
X121534773Y-117179592D01*
X121534773Y-117179592D02*
X121582392Y-117274830D01*
X121582392Y-117274830D02*
X121630011Y-117322449D01*
X121630011Y-117322449D02*
X121725249Y-117370068D01*
X121725249Y-117370068D02*
X122010963Y-117370068D01*
X122010963Y-117370068D02*
X122106201Y-117322449D01*
X122106201Y-117322449D02*
X122153820Y-117274830D01*
X120677630Y-116370068D02*
X120868106Y-116370068D01*
X120868106Y-116370068D02*
X120963344Y-116417688D01*
X120963344Y-116417688D02*
X121010963Y-116465307D01*
X121010963Y-116465307D02*
X121106201Y-116608164D01*
X121106201Y-116608164D02*
X121153820Y-116798640D01*
X121153820Y-116798640D02*
X121153820Y-117179592D01*
X121153820Y-117179592D02*
X121106201Y-117274830D01*
X121106201Y-117274830D02*
X121058582Y-117322449D01*
X121058582Y-117322449D02*
X120963344Y-117370068D01*
X120963344Y-117370068D02*
X120772868Y-117370068D01*
X120772868Y-117370068D02*
X120677630Y-117322449D01*
X120677630Y-117322449D02*
X120630011Y-117274830D01*
X120630011Y-117274830D02*
X120582392Y-117179592D01*
X120582392Y-117179592D02*
X120582392Y-116941497D01*
X120582392Y-116941497D02*
X120630011Y-116846259D01*
X120630011Y-116846259D02*
X120677630Y-116798640D01*
X120677630Y-116798640D02*
X120772868Y-116751021D01*
X120772868Y-116751021D02*
X120963344Y-116751021D01*
X120963344Y-116751021D02*
X121058582Y-116798640D01*
X121058582Y-116798640D02*
X121106201Y-116846259D01*
X121106201Y-116846259D02*
X121153820Y-116941497D01*
D12*
%TO.C,SK6812MINI_E6*%
X122456070Y-85917761D02*
X122313213Y-85965380D01*
X122313213Y-85965380D02*
X122075118Y-85965380D01*
X122075118Y-85965380D02*
X121979880Y-85917761D01*
X121979880Y-85917761D02*
X121932261Y-85870142D01*
X121932261Y-85870142D02*
X121884642Y-85774904D01*
X121884642Y-85774904D02*
X121884642Y-85679666D01*
X121884642Y-85679666D02*
X121932261Y-85584428D01*
X121932261Y-85584428D02*
X121979880Y-85536809D01*
X121979880Y-85536809D02*
X122075118Y-85489190D01*
X122075118Y-85489190D02*
X122265594Y-85441571D01*
X122265594Y-85441571D02*
X122360832Y-85393952D01*
X122360832Y-85393952D02*
X122408451Y-85346333D01*
X122408451Y-85346333D02*
X122456070Y-85251095D01*
X122456070Y-85251095D02*
X122456070Y-85155857D01*
X122456070Y-85155857D02*
X122408451Y-85060619D01*
X122408451Y-85060619D02*
X122360832Y-85013000D01*
X122360832Y-85013000D02*
X122265594Y-84965380D01*
X122265594Y-84965380D02*
X122027499Y-84965380D01*
X122027499Y-84965380D02*
X121884642Y-85013000D01*
X121456070Y-85965380D02*
X121456070Y-84965380D01*
X120884642Y-85965380D02*
X121313213Y-85393952D01*
X120884642Y-84965380D02*
X121456070Y-85536809D01*
X120027499Y-84965380D02*
X120217975Y-84965380D01*
X120217975Y-84965380D02*
X120313213Y-85013000D01*
X120313213Y-85013000D02*
X120360832Y-85060619D01*
X120360832Y-85060619D02*
X120456070Y-85203476D01*
X120456070Y-85203476D02*
X120503689Y-85393952D01*
X120503689Y-85393952D02*
X120503689Y-85774904D01*
X120503689Y-85774904D02*
X120456070Y-85870142D01*
X120456070Y-85870142D02*
X120408451Y-85917761D01*
X120408451Y-85917761D02*
X120313213Y-85965380D01*
X120313213Y-85965380D02*
X120122737Y-85965380D01*
X120122737Y-85965380D02*
X120027499Y-85917761D01*
X120027499Y-85917761D02*
X119979880Y-85870142D01*
X119979880Y-85870142D02*
X119932261Y-85774904D01*
X119932261Y-85774904D02*
X119932261Y-85536809D01*
X119932261Y-85536809D02*
X119979880Y-85441571D01*
X119979880Y-85441571D02*
X120027499Y-85393952D01*
X120027499Y-85393952D02*
X120122737Y-85346333D01*
X120122737Y-85346333D02*
X120313213Y-85346333D01*
X120313213Y-85346333D02*
X120408451Y-85393952D01*
X120408451Y-85393952D02*
X120456070Y-85441571D01*
X120456070Y-85441571D02*
X120503689Y-85536809D01*
X119360832Y-85393952D02*
X119456070Y-85346333D01*
X119456070Y-85346333D02*
X119503689Y-85298714D01*
X119503689Y-85298714D02*
X119551308Y-85203476D01*
X119551308Y-85203476D02*
X119551308Y-85155857D01*
X119551308Y-85155857D02*
X119503689Y-85060619D01*
X119503689Y-85060619D02*
X119456070Y-85013000D01*
X119456070Y-85013000D02*
X119360832Y-84965380D01*
X119360832Y-84965380D02*
X119170356Y-84965380D01*
X119170356Y-84965380D02*
X119075118Y-85013000D01*
X119075118Y-85013000D02*
X119027499Y-85060619D01*
X119027499Y-85060619D02*
X118979880Y-85155857D01*
X118979880Y-85155857D02*
X118979880Y-85203476D01*
X118979880Y-85203476D02*
X119027499Y-85298714D01*
X119027499Y-85298714D02*
X119075118Y-85346333D01*
X119075118Y-85346333D02*
X119170356Y-85393952D01*
X119170356Y-85393952D02*
X119360832Y-85393952D01*
X119360832Y-85393952D02*
X119456070Y-85441571D01*
X119456070Y-85441571D02*
X119503689Y-85489190D01*
X119503689Y-85489190D02*
X119551308Y-85584428D01*
X119551308Y-85584428D02*
X119551308Y-85774904D01*
X119551308Y-85774904D02*
X119503689Y-85870142D01*
X119503689Y-85870142D02*
X119456070Y-85917761D01*
X119456070Y-85917761D02*
X119360832Y-85965380D01*
X119360832Y-85965380D02*
X119170356Y-85965380D01*
X119170356Y-85965380D02*
X119075118Y-85917761D01*
X119075118Y-85917761D02*
X119027499Y-85870142D01*
X119027499Y-85870142D02*
X118979880Y-85774904D01*
X118979880Y-85774904D02*
X118979880Y-85584428D01*
X118979880Y-85584428D02*
X119027499Y-85489190D01*
X119027499Y-85489190D02*
X119075118Y-85441571D01*
X119075118Y-85441571D02*
X119170356Y-85393952D01*
X118027499Y-85965380D02*
X118598927Y-85965380D01*
X118313213Y-85965380D02*
X118313213Y-84965380D01*
X118313213Y-84965380D02*
X118408451Y-85108238D01*
X118408451Y-85108238D02*
X118503689Y-85203476D01*
X118503689Y-85203476D02*
X118598927Y-85251095D01*
X117646546Y-85060619D02*
X117598927Y-85013000D01*
X117598927Y-85013000D02*
X117503689Y-84965380D01*
X117503689Y-84965380D02*
X117265594Y-84965380D01*
X117265594Y-84965380D02*
X117170356Y-85013000D01*
X117170356Y-85013000D02*
X117122737Y-85060619D01*
X117122737Y-85060619D02*
X117075118Y-85155857D01*
X117075118Y-85155857D02*
X117075118Y-85251095D01*
X117075118Y-85251095D02*
X117122737Y-85393952D01*
X117122737Y-85393952D02*
X117694165Y-85965380D01*
X117694165Y-85965380D02*
X117075118Y-85965380D01*
X116646546Y-85965380D02*
X116646546Y-84965380D01*
X116646546Y-84965380D02*
X116313213Y-85679666D01*
X116313213Y-85679666D02*
X115979880Y-84965380D01*
X115979880Y-84965380D02*
X115979880Y-85965380D01*
X115503689Y-85965380D02*
X115503689Y-84965380D01*
X115027499Y-85965380D02*
X115027499Y-84965380D01*
X115027499Y-84965380D02*
X114456071Y-85965380D01*
X114456071Y-85965380D02*
X114456071Y-84965380D01*
X113979880Y-85965380D02*
X113979880Y-84965380D01*
X113741786Y-86060619D02*
X112979881Y-86060619D01*
X112741785Y-85441571D02*
X112408452Y-85441571D01*
X112265595Y-85965380D02*
X112741785Y-85965380D01*
X112741785Y-85965380D02*
X112741785Y-84965380D01*
X112741785Y-84965380D02*
X112265595Y-84965380D01*
X111408452Y-84965380D02*
X111598928Y-84965380D01*
X111598928Y-84965380D02*
X111694166Y-85013000D01*
X111694166Y-85013000D02*
X111741785Y-85060619D01*
X111741785Y-85060619D02*
X111837023Y-85203476D01*
X111837023Y-85203476D02*
X111884642Y-85393952D01*
X111884642Y-85393952D02*
X111884642Y-85774904D01*
X111884642Y-85774904D02*
X111837023Y-85870142D01*
X111837023Y-85870142D02*
X111789404Y-85917761D01*
X111789404Y-85917761D02*
X111694166Y-85965380D01*
X111694166Y-85965380D02*
X111503690Y-85965380D01*
X111503690Y-85965380D02*
X111408452Y-85917761D01*
X111408452Y-85917761D02*
X111360833Y-85870142D01*
X111360833Y-85870142D02*
X111313214Y-85774904D01*
X111313214Y-85774904D02*
X111313214Y-85536809D01*
X111313214Y-85536809D02*
X111360833Y-85441571D01*
X111360833Y-85441571D02*
X111408452Y-85393952D01*
X111408452Y-85393952D02*
X111503690Y-85346333D01*
X111503690Y-85346333D02*
X111694166Y-85346333D01*
X111694166Y-85346333D02*
X111789404Y-85393952D01*
X111789404Y-85393952D02*
X111837023Y-85441571D01*
X111837023Y-85441571D02*
X111884642Y-85536809D01*
D11*
%TO.C,D10*%
X69412285Y-70947380D02*
X69412285Y-69947380D01*
X69412285Y-69947380D02*
X69174190Y-69947380D01*
X69174190Y-69947380D02*
X69031333Y-69995000D01*
X69031333Y-69995000D02*
X68936095Y-70090238D01*
X68936095Y-70090238D02*
X68888476Y-70185476D01*
X68888476Y-70185476D02*
X68840857Y-70375952D01*
X68840857Y-70375952D02*
X68840857Y-70518809D01*
X68840857Y-70518809D02*
X68888476Y-70709285D01*
X68888476Y-70709285D02*
X68936095Y-70804523D01*
X68936095Y-70804523D02*
X69031333Y-70899761D01*
X69031333Y-70899761D02*
X69174190Y-70947380D01*
X69174190Y-70947380D02*
X69412285Y-70947380D01*
X67888476Y-70947380D02*
X68459904Y-70947380D01*
X68174190Y-70947380D02*
X68174190Y-69947380D01*
X68174190Y-69947380D02*
X68269428Y-70090238D01*
X68269428Y-70090238D02*
X68364666Y-70185476D01*
X68364666Y-70185476D02*
X68459904Y-70233095D01*
X67269428Y-69947380D02*
X67174190Y-69947380D01*
X67174190Y-69947380D02*
X67078952Y-69995000D01*
X67078952Y-69995000D02*
X67031333Y-70042619D01*
X67031333Y-70042619D02*
X66983714Y-70137857D01*
X66983714Y-70137857D02*
X66936095Y-70328333D01*
X66936095Y-70328333D02*
X66936095Y-70566428D01*
X66936095Y-70566428D02*
X66983714Y-70756904D01*
X66983714Y-70756904D02*
X67031333Y-70852142D01*
X67031333Y-70852142D02*
X67078952Y-70899761D01*
X67078952Y-70899761D02*
X67174190Y-70947380D01*
X67174190Y-70947380D02*
X67269428Y-70947380D01*
X67269428Y-70947380D02*
X67364666Y-70899761D01*
X67364666Y-70899761D02*
X67412285Y-70852142D01*
X67412285Y-70852142D02*
X67459904Y-70756904D01*
X67459904Y-70756904D02*
X67507523Y-70566428D01*
X67507523Y-70566428D02*
X67507523Y-70328333D01*
X67507523Y-70328333D02*
X67459904Y-70137857D01*
X67459904Y-70137857D02*
X67412285Y-70042619D01*
X67412285Y-70042619D02*
X67364666Y-69995000D01*
X67364666Y-69995000D02*
X67269428Y-69947380D01*
%TO.C,C21*%
X141104857Y-71141014D02*
X141152476Y-71188633D01*
X141152476Y-71188633D02*
X141295333Y-71236252D01*
X141295333Y-71236252D02*
X141390571Y-71236252D01*
X141390571Y-71236252D02*
X141533428Y-71188633D01*
X141533428Y-71188633D02*
X141628666Y-71093395D01*
X141628666Y-71093395D02*
X141676285Y-70998157D01*
X141676285Y-70998157D02*
X141723904Y-70807681D01*
X141723904Y-70807681D02*
X141723904Y-70664824D01*
X141723904Y-70664824D02*
X141676285Y-70474348D01*
X141676285Y-70474348D02*
X141628666Y-70379110D01*
X141628666Y-70379110D02*
X141533428Y-70283872D01*
X141533428Y-70283872D02*
X141390571Y-70236252D01*
X141390571Y-70236252D02*
X141295333Y-70236252D01*
X141295333Y-70236252D02*
X141152476Y-70283872D01*
X141152476Y-70283872D02*
X141104857Y-70331491D01*
X140723904Y-70331491D02*
X140676285Y-70283872D01*
X140676285Y-70283872D02*
X140581047Y-70236252D01*
X140581047Y-70236252D02*
X140342952Y-70236252D01*
X140342952Y-70236252D02*
X140247714Y-70283872D01*
X140247714Y-70283872D02*
X140200095Y-70331491D01*
X140200095Y-70331491D02*
X140152476Y-70426729D01*
X140152476Y-70426729D02*
X140152476Y-70521967D01*
X140152476Y-70521967D02*
X140200095Y-70664824D01*
X140200095Y-70664824D02*
X140771523Y-71236252D01*
X140771523Y-71236252D02*
X140152476Y-71236252D01*
X139200095Y-71236252D02*
X139771523Y-71236252D01*
X139485809Y-71236252D02*
X139485809Y-70236252D01*
X139485809Y-70236252D02*
X139581047Y-70379110D01*
X139581047Y-70379110D02*
X139676285Y-70474348D01*
X139676285Y-70474348D02*
X139771523Y-70521967D01*
%TO.C,C31*%
X122380805Y-79201224D02*
X122428424Y-79248843D01*
X122428424Y-79248843D02*
X122571281Y-79296462D01*
X122571281Y-79296462D02*
X122666519Y-79296462D01*
X122666519Y-79296462D02*
X122809376Y-79248843D01*
X122809376Y-79248843D02*
X122904614Y-79153605D01*
X122904614Y-79153605D02*
X122952233Y-79058367D01*
X122952233Y-79058367D02*
X122999852Y-78867891D01*
X122999852Y-78867891D02*
X122999852Y-78725034D01*
X122999852Y-78725034D02*
X122952233Y-78534558D01*
X122952233Y-78534558D02*
X122904614Y-78439320D01*
X122904614Y-78439320D02*
X122809376Y-78344082D01*
X122809376Y-78344082D02*
X122666519Y-78296462D01*
X122666519Y-78296462D02*
X122571281Y-78296462D01*
X122571281Y-78296462D02*
X122428424Y-78344082D01*
X122428424Y-78344082D02*
X122380805Y-78391701D01*
X122047471Y-78296462D02*
X121428424Y-78296462D01*
X121428424Y-78296462D02*
X121761757Y-78677415D01*
X121761757Y-78677415D02*
X121618900Y-78677415D01*
X121618900Y-78677415D02*
X121523662Y-78725034D01*
X121523662Y-78725034D02*
X121476043Y-78772653D01*
X121476043Y-78772653D02*
X121428424Y-78867891D01*
X121428424Y-78867891D02*
X121428424Y-79105986D01*
X121428424Y-79105986D02*
X121476043Y-79201224D01*
X121476043Y-79201224D02*
X121523662Y-79248843D01*
X121523662Y-79248843D02*
X121618900Y-79296462D01*
X121618900Y-79296462D02*
X121904614Y-79296462D01*
X121904614Y-79296462D02*
X121999852Y-79248843D01*
X121999852Y-79248843D02*
X122047471Y-79201224D01*
X120476043Y-79296462D02*
X121047471Y-79296462D01*
X120761757Y-79296462D02*
X120761757Y-78296462D01*
X120761757Y-78296462D02*
X120856995Y-78439320D01*
X120856995Y-78439320D02*
X120952233Y-78534558D01*
X120952233Y-78534558D02*
X121047471Y-78582177D01*
%TO.C,C1*%
X132908166Y-73264142D02*
X132955785Y-73311761D01*
X132955785Y-73311761D02*
X133098642Y-73359380D01*
X133098642Y-73359380D02*
X133193880Y-73359380D01*
X133193880Y-73359380D02*
X133336737Y-73311761D01*
X133336737Y-73311761D02*
X133431975Y-73216523D01*
X133431975Y-73216523D02*
X133479594Y-73121285D01*
X133479594Y-73121285D02*
X133527213Y-72930809D01*
X133527213Y-72930809D02*
X133527213Y-72787952D01*
X133527213Y-72787952D02*
X133479594Y-72597476D01*
X133479594Y-72597476D02*
X133431975Y-72502238D01*
X133431975Y-72502238D02*
X133336737Y-72407000D01*
X133336737Y-72407000D02*
X133193880Y-72359380D01*
X133193880Y-72359380D02*
X133098642Y-72359380D01*
X133098642Y-72359380D02*
X132955785Y-72407000D01*
X132955785Y-72407000D02*
X132908166Y-72454619D01*
X131955785Y-73359380D02*
X132527213Y-73359380D01*
X132241499Y-73359380D02*
X132241499Y-72359380D01*
X132241499Y-72359380D02*
X132336737Y-72502238D01*
X132336737Y-72502238D02*
X132431975Y-72597476D01*
X132431975Y-72597476D02*
X132527213Y-72645095D01*
%TO.C,C6*%
X139358666Y-90442142D02*
X139406285Y-90489761D01*
X139406285Y-90489761D02*
X139549142Y-90537380D01*
X139549142Y-90537380D02*
X139644380Y-90537380D01*
X139644380Y-90537380D02*
X139787237Y-90489761D01*
X139787237Y-90489761D02*
X139882475Y-90394523D01*
X139882475Y-90394523D02*
X139930094Y-90299285D01*
X139930094Y-90299285D02*
X139977713Y-90108809D01*
X139977713Y-90108809D02*
X139977713Y-89965952D01*
X139977713Y-89965952D02*
X139930094Y-89775476D01*
X139930094Y-89775476D02*
X139882475Y-89680238D01*
X139882475Y-89680238D02*
X139787237Y-89585000D01*
X139787237Y-89585000D02*
X139644380Y-89537380D01*
X139644380Y-89537380D02*
X139549142Y-89537380D01*
X139549142Y-89537380D02*
X139406285Y-89585000D01*
X139406285Y-89585000D02*
X139358666Y-89632619D01*
X138501523Y-89537380D02*
X138691999Y-89537380D01*
X138691999Y-89537380D02*
X138787237Y-89585000D01*
X138787237Y-89585000D02*
X138834856Y-89632619D01*
X138834856Y-89632619D02*
X138930094Y-89775476D01*
X138930094Y-89775476D02*
X138977713Y-89965952D01*
X138977713Y-89965952D02*
X138977713Y-90346904D01*
X138977713Y-90346904D02*
X138930094Y-90442142D01*
X138930094Y-90442142D02*
X138882475Y-90489761D01*
X138882475Y-90489761D02*
X138787237Y-90537380D01*
X138787237Y-90537380D02*
X138596761Y-90537380D01*
X138596761Y-90537380D02*
X138501523Y-90489761D01*
X138501523Y-90489761D02*
X138453904Y-90442142D01*
X138453904Y-90442142D02*
X138406285Y-90346904D01*
X138406285Y-90346904D02*
X138406285Y-90108809D01*
X138406285Y-90108809D02*
X138453904Y-90013571D01*
X138453904Y-90013571D02*
X138501523Y-89965952D01*
X138501523Y-89965952D02*
X138596761Y-89918333D01*
X138596761Y-89918333D02*
X138787237Y-89918333D01*
X138787237Y-89918333D02*
X138882475Y-89965952D01*
X138882475Y-89965952D02*
X138930094Y-90013571D01*
X138930094Y-90013571D02*
X138977713Y-90108809D01*
%TO.C,R4*%
X153836666Y-80377380D02*
X154169999Y-79901190D01*
X154408094Y-80377380D02*
X154408094Y-79377380D01*
X154408094Y-79377380D02*
X154027142Y-79377380D01*
X154027142Y-79377380D02*
X153931904Y-79425000D01*
X153931904Y-79425000D02*
X153884285Y-79472619D01*
X153884285Y-79472619D02*
X153836666Y-79567857D01*
X153836666Y-79567857D02*
X153836666Y-79710714D01*
X153836666Y-79710714D02*
X153884285Y-79805952D01*
X153884285Y-79805952D02*
X153931904Y-79853571D01*
X153931904Y-79853571D02*
X154027142Y-79901190D01*
X154027142Y-79901190D02*
X154408094Y-79901190D01*
X152979523Y-79710714D02*
X152979523Y-80377380D01*
X153217618Y-79329761D02*
X153455713Y-80044047D01*
X153455713Y-80044047D02*
X152836666Y-80044047D01*
%TO.C,U5*%
X142372404Y-50707380D02*
X142372404Y-51516904D01*
X142372404Y-51516904D02*
X142324785Y-51612142D01*
X142324785Y-51612142D02*
X142277166Y-51659761D01*
X142277166Y-51659761D02*
X142181928Y-51707380D01*
X142181928Y-51707380D02*
X141991452Y-51707380D01*
X141991452Y-51707380D02*
X141896214Y-51659761D01*
X141896214Y-51659761D02*
X141848595Y-51612142D01*
X141848595Y-51612142D02*
X141800976Y-51516904D01*
X141800976Y-51516904D02*
X141800976Y-50707380D01*
X140848595Y-50707380D02*
X141324785Y-50707380D01*
X141324785Y-50707380D02*
X141372404Y-51183571D01*
X141372404Y-51183571D02*
X141324785Y-51135952D01*
X141324785Y-51135952D02*
X141229547Y-51088333D01*
X141229547Y-51088333D02*
X140991452Y-51088333D01*
X140991452Y-51088333D02*
X140896214Y-51135952D01*
X140896214Y-51135952D02*
X140848595Y-51183571D01*
X140848595Y-51183571D02*
X140800976Y-51278809D01*
X140800976Y-51278809D02*
X140800976Y-51516904D01*
X140800976Y-51516904D02*
X140848595Y-51612142D01*
X140848595Y-51612142D02*
X140896214Y-51659761D01*
X140896214Y-51659761D02*
X140991452Y-51707380D01*
X140991452Y-51707380D02*
X141229547Y-51707380D01*
X141229547Y-51707380D02*
X141324785Y-51659761D01*
X141324785Y-51659761D02*
X141372404Y-51612142D01*
%TO.C,R16*%
X154820857Y-78091380D02*
X155154190Y-77615190D01*
X155392285Y-78091380D02*
X155392285Y-77091380D01*
X155392285Y-77091380D02*
X155011333Y-77091380D01*
X155011333Y-77091380D02*
X154916095Y-77139000D01*
X154916095Y-77139000D02*
X154868476Y-77186619D01*
X154868476Y-77186619D02*
X154820857Y-77281857D01*
X154820857Y-77281857D02*
X154820857Y-77424714D01*
X154820857Y-77424714D02*
X154868476Y-77519952D01*
X154868476Y-77519952D02*
X154916095Y-77567571D01*
X154916095Y-77567571D02*
X155011333Y-77615190D01*
X155011333Y-77615190D02*
X155392285Y-77615190D01*
X153868476Y-78091380D02*
X154439904Y-78091380D01*
X154154190Y-78091380D02*
X154154190Y-77091380D01*
X154154190Y-77091380D02*
X154249428Y-77234238D01*
X154249428Y-77234238D02*
X154344666Y-77329476D01*
X154344666Y-77329476D02*
X154439904Y-77377095D01*
X153011333Y-77091380D02*
X153201809Y-77091380D01*
X153201809Y-77091380D02*
X153297047Y-77139000D01*
X153297047Y-77139000D02*
X153344666Y-77186619D01*
X153344666Y-77186619D02*
X153439904Y-77329476D01*
X153439904Y-77329476D02*
X153487523Y-77519952D01*
X153487523Y-77519952D02*
X153487523Y-77900904D01*
X153487523Y-77900904D02*
X153439904Y-77996142D01*
X153439904Y-77996142D02*
X153392285Y-78043761D01*
X153392285Y-78043761D02*
X153297047Y-78091380D01*
X153297047Y-78091380D02*
X153106571Y-78091380D01*
X153106571Y-78091380D02*
X153011333Y-78043761D01*
X153011333Y-78043761D02*
X152963714Y-77996142D01*
X152963714Y-77996142D02*
X152916095Y-77900904D01*
X152916095Y-77900904D02*
X152916095Y-77662809D01*
X152916095Y-77662809D02*
X152963714Y-77567571D01*
X152963714Y-77567571D02*
X153011333Y-77519952D01*
X153011333Y-77519952D02*
X153106571Y-77472333D01*
X153106571Y-77472333D02*
X153297047Y-77472333D01*
X153297047Y-77472333D02*
X153392285Y-77519952D01*
X153392285Y-77519952D02*
X153439904Y-77567571D01*
X153439904Y-77567571D02*
X153487523Y-77662809D01*
D12*
%TO.C,SK6812MINI_E7*%
X120168821Y-104967761D02*
X120025964Y-105015380D01*
X120025964Y-105015380D02*
X119787869Y-105015380D01*
X119787869Y-105015380D02*
X119692631Y-104967761D01*
X119692631Y-104967761D02*
X119645012Y-104920142D01*
X119645012Y-104920142D02*
X119597393Y-104824904D01*
X119597393Y-104824904D02*
X119597393Y-104729666D01*
X119597393Y-104729666D02*
X119645012Y-104634428D01*
X119645012Y-104634428D02*
X119692631Y-104586809D01*
X119692631Y-104586809D02*
X119787869Y-104539190D01*
X119787869Y-104539190D02*
X119978345Y-104491571D01*
X119978345Y-104491571D02*
X120073583Y-104443952D01*
X120073583Y-104443952D02*
X120121202Y-104396333D01*
X120121202Y-104396333D02*
X120168821Y-104301095D01*
X120168821Y-104301095D02*
X120168821Y-104205857D01*
X120168821Y-104205857D02*
X120121202Y-104110619D01*
X120121202Y-104110619D02*
X120073583Y-104063000D01*
X120073583Y-104063000D02*
X119978345Y-104015380D01*
X119978345Y-104015380D02*
X119740250Y-104015380D01*
X119740250Y-104015380D02*
X119597393Y-104063000D01*
X119168821Y-105015380D02*
X119168821Y-104015380D01*
X118597393Y-105015380D02*
X119025964Y-104443952D01*
X118597393Y-104015380D02*
X119168821Y-104586809D01*
X117740250Y-104015380D02*
X117930726Y-104015380D01*
X117930726Y-104015380D02*
X118025964Y-104063000D01*
X118025964Y-104063000D02*
X118073583Y-104110619D01*
X118073583Y-104110619D02*
X118168821Y-104253476D01*
X118168821Y-104253476D02*
X118216440Y-104443952D01*
X118216440Y-104443952D02*
X118216440Y-104824904D01*
X118216440Y-104824904D02*
X118168821Y-104920142D01*
X118168821Y-104920142D02*
X118121202Y-104967761D01*
X118121202Y-104967761D02*
X118025964Y-105015380D01*
X118025964Y-105015380D02*
X117835488Y-105015380D01*
X117835488Y-105015380D02*
X117740250Y-104967761D01*
X117740250Y-104967761D02*
X117692631Y-104920142D01*
X117692631Y-104920142D02*
X117645012Y-104824904D01*
X117645012Y-104824904D02*
X117645012Y-104586809D01*
X117645012Y-104586809D02*
X117692631Y-104491571D01*
X117692631Y-104491571D02*
X117740250Y-104443952D01*
X117740250Y-104443952D02*
X117835488Y-104396333D01*
X117835488Y-104396333D02*
X118025964Y-104396333D01*
X118025964Y-104396333D02*
X118121202Y-104443952D01*
X118121202Y-104443952D02*
X118168821Y-104491571D01*
X118168821Y-104491571D02*
X118216440Y-104586809D01*
X117073583Y-104443952D02*
X117168821Y-104396333D01*
X117168821Y-104396333D02*
X117216440Y-104348714D01*
X117216440Y-104348714D02*
X117264059Y-104253476D01*
X117264059Y-104253476D02*
X117264059Y-104205857D01*
X117264059Y-104205857D02*
X117216440Y-104110619D01*
X117216440Y-104110619D02*
X117168821Y-104063000D01*
X117168821Y-104063000D02*
X117073583Y-104015380D01*
X117073583Y-104015380D02*
X116883107Y-104015380D01*
X116883107Y-104015380D02*
X116787869Y-104063000D01*
X116787869Y-104063000D02*
X116740250Y-104110619D01*
X116740250Y-104110619D02*
X116692631Y-104205857D01*
X116692631Y-104205857D02*
X116692631Y-104253476D01*
X116692631Y-104253476D02*
X116740250Y-104348714D01*
X116740250Y-104348714D02*
X116787869Y-104396333D01*
X116787869Y-104396333D02*
X116883107Y-104443952D01*
X116883107Y-104443952D02*
X117073583Y-104443952D01*
X117073583Y-104443952D02*
X117168821Y-104491571D01*
X117168821Y-104491571D02*
X117216440Y-104539190D01*
X117216440Y-104539190D02*
X117264059Y-104634428D01*
X117264059Y-104634428D02*
X117264059Y-104824904D01*
X117264059Y-104824904D02*
X117216440Y-104920142D01*
X117216440Y-104920142D02*
X117168821Y-104967761D01*
X117168821Y-104967761D02*
X117073583Y-105015380D01*
X117073583Y-105015380D02*
X116883107Y-105015380D01*
X116883107Y-105015380D02*
X116787869Y-104967761D01*
X116787869Y-104967761D02*
X116740250Y-104920142D01*
X116740250Y-104920142D02*
X116692631Y-104824904D01*
X116692631Y-104824904D02*
X116692631Y-104634428D01*
X116692631Y-104634428D02*
X116740250Y-104539190D01*
X116740250Y-104539190D02*
X116787869Y-104491571D01*
X116787869Y-104491571D02*
X116883107Y-104443952D01*
X115740250Y-105015380D02*
X116311678Y-105015380D01*
X116025964Y-105015380D02*
X116025964Y-104015380D01*
X116025964Y-104015380D02*
X116121202Y-104158238D01*
X116121202Y-104158238D02*
X116216440Y-104253476D01*
X116216440Y-104253476D02*
X116311678Y-104301095D01*
X115359297Y-104110619D02*
X115311678Y-104063000D01*
X115311678Y-104063000D02*
X115216440Y-104015380D01*
X115216440Y-104015380D02*
X114978345Y-104015380D01*
X114978345Y-104015380D02*
X114883107Y-104063000D01*
X114883107Y-104063000D02*
X114835488Y-104110619D01*
X114835488Y-104110619D02*
X114787869Y-104205857D01*
X114787869Y-104205857D02*
X114787869Y-104301095D01*
X114787869Y-104301095D02*
X114835488Y-104443952D01*
X114835488Y-104443952D02*
X115406916Y-105015380D01*
X115406916Y-105015380D02*
X114787869Y-105015380D01*
X114359297Y-105015380D02*
X114359297Y-104015380D01*
X114359297Y-104015380D02*
X114025964Y-104729666D01*
X114025964Y-104729666D02*
X113692631Y-104015380D01*
X113692631Y-104015380D02*
X113692631Y-105015380D01*
X113216440Y-105015380D02*
X113216440Y-104015380D01*
X112740250Y-105015380D02*
X112740250Y-104015380D01*
X112740250Y-104015380D02*
X112168822Y-105015380D01*
X112168822Y-105015380D02*
X112168822Y-104015380D01*
X111692631Y-105015380D02*
X111692631Y-104015380D01*
X111454537Y-105110619D02*
X110692632Y-105110619D01*
X110454536Y-104491571D02*
X110121203Y-104491571D01*
X109978346Y-105015380D02*
X110454536Y-105015380D01*
X110454536Y-105015380D02*
X110454536Y-104015380D01*
X110454536Y-104015380D02*
X109978346Y-104015380D01*
X109645012Y-104015380D02*
X108978346Y-104015380D01*
X108978346Y-104015380D02*
X109406917Y-105015380D01*
D11*
%TO.C,C4*%
X132258963Y-80821033D02*
X132306582Y-80773414D01*
X132306582Y-80773414D02*
X132354201Y-80630557D01*
X132354201Y-80630557D02*
X132354201Y-80535319D01*
X132354201Y-80535319D02*
X132306582Y-80392462D01*
X132306582Y-80392462D02*
X132211344Y-80297224D01*
X132211344Y-80297224D02*
X132116106Y-80249605D01*
X132116106Y-80249605D02*
X131925630Y-80201986D01*
X131925630Y-80201986D02*
X131782773Y-80201986D01*
X131782773Y-80201986D02*
X131592297Y-80249605D01*
X131592297Y-80249605D02*
X131497059Y-80297224D01*
X131497059Y-80297224D02*
X131401821Y-80392462D01*
X131401821Y-80392462D02*
X131354201Y-80535319D01*
X131354201Y-80535319D02*
X131354201Y-80630557D01*
X131354201Y-80630557D02*
X131401821Y-80773414D01*
X131401821Y-80773414D02*
X131449440Y-80821033D01*
X131687535Y-81678176D02*
X132354201Y-81678176D01*
X131306582Y-81440081D02*
X132020868Y-81201986D01*
X132020868Y-81201986D02*
X132020868Y-81821033D01*
%TO.C,C33*%
X84067458Y-79182290D02*
X84115077Y-79229909D01*
X84115077Y-79229909D02*
X84257934Y-79277528D01*
X84257934Y-79277528D02*
X84353172Y-79277528D01*
X84353172Y-79277528D02*
X84496029Y-79229909D01*
X84496029Y-79229909D02*
X84591267Y-79134671D01*
X84591267Y-79134671D02*
X84638886Y-79039433D01*
X84638886Y-79039433D02*
X84686505Y-78848957D01*
X84686505Y-78848957D02*
X84686505Y-78706100D01*
X84686505Y-78706100D02*
X84638886Y-78515624D01*
X84638886Y-78515624D02*
X84591267Y-78420386D01*
X84591267Y-78420386D02*
X84496029Y-78325148D01*
X84496029Y-78325148D02*
X84353172Y-78277528D01*
X84353172Y-78277528D02*
X84257934Y-78277528D01*
X84257934Y-78277528D02*
X84115077Y-78325148D01*
X84115077Y-78325148D02*
X84067458Y-78372767D01*
X83734124Y-78277528D02*
X83115077Y-78277528D01*
X83115077Y-78277528D02*
X83448410Y-78658481D01*
X83448410Y-78658481D02*
X83305553Y-78658481D01*
X83305553Y-78658481D02*
X83210315Y-78706100D01*
X83210315Y-78706100D02*
X83162696Y-78753719D01*
X83162696Y-78753719D02*
X83115077Y-78848957D01*
X83115077Y-78848957D02*
X83115077Y-79087052D01*
X83115077Y-79087052D02*
X83162696Y-79182290D01*
X83162696Y-79182290D02*
X83210315Y-79229909D01*
X83210315Y-79229909D02*
X83305553Y-79277528D01*
X83305553Y-79277528D02*
X83591267Y-79277528D01*
X83591267Y-79277528D02*
X83686505Y-79229909D01*
X83686505Y-79229909D02*
X83734124Y-79182290D01*
X82781743Y-78277528D02*
X82162696Y-78277528D01*
X82162696Y-78277528D02*
X82496029Y-78658481D01*
X82496029Y-78658481D02*
X82353172Y-78658481D01*
X82353172Y-78658481D02*
X82257934Y-78706100D01*
X82257934Y-78706100D02*
X82210315Y-78753719D01*
X82210315Y-78753719D02*
X82162696Y-78848957D01*
X82162696Y-78848957D02*
X82162696Y-79087052D01*
X82162696Y-79087052D02*
X82210315Y-79182290D01*
X82210315Y-79182290D02*
X82257934Y-79229909D01*
X82257934Y-79229909D02*
X82353172Y-79277528D01*
X82353172Y-79277528D02*
X82638886Y-79277528D01*
X82638886Y-79277528D02*
X82734124Y-79229909D01*
X82734124Y-79229909D02*
X82781743Y-79182290D01*
%TO.C,D11*%
X69412285Y-90251380D02*
X69412285Y-89251380D01*
X69412285Y-89251380D02*
X69174190Y-89251380D01*
X69174190Y-89251380D02*
X69031333Y-89299000D01*
X69031333Y-89299000D02*
X68936095Y-89394238D01*
X68936095Y-89394238D02*
X68888476Y-89489476D01*
X68888476Y-89489476D02*
X68840857Y-89679952D01*
X68840857Y-89679952D02*
X68840857Y-89822809D01*
X68840857Y-89822809D02*
X68888476Y-90013285D01*
X68888476Y-90013285D02*
X68936095Y-90108523D01*
X68936095Y-90108523D02*
X69031333Y-90203761D01*
X69031333Y-90203761D02*
X69174190Y-90251380D01*
X69174190Y-90251380D02*
X69412285Y-90251380D01*
X67888476Y-90251380D02*
X68459904Y-90251380D01*
X68174190Y-90251380D02*
X68174190Y-89251380D01*
X68174190Y-89251380D02*
X68269428Y-89394238D01*
X68269428Y-89394238D02*
X68364666Y-89489476D01*
X68364666Y-89489476D02*
X68459904Y-89537095D01*
X66936095Y-90251380D02*
X67507523Y-90251380D01*
X67221809Y-90251380D02*
X67221809Y-89251380D01*
X67221809Y-89251380D02*
X67317047Y-89394238D01*
X67317047Y-89394238D02*
X67412285Y-89489476D01*
X67412285Y-89489476D02*
X67507523Y-89537095D01*
D12*
%TO.C,SK6812MINI_E1*%
X121404958Y-66310727D02*
X121262101Y-66358346D01*
X121262101Y-66358346D02*
X121024006Y-66358346D01*
X121024006Y-66358346D02*
X120928768Y-66310727D01*
X120928768Y-66310727D02*
X120881149Y-66263108D01*
X120881149Y-66263108D02*
X120833530Y-66167870D01*
X120833530Y-66167870D02*
X120833530Y-66072632D01*
X120833530Y-66072632D02*
X120881149Y-65977394D01*
X120881149Y-65977394D02*
X120928768Y-65929775D01*
X120928768Y-65929775D02*
X121024006Y-65882156D01*
X121024006Y-65882156D02*
X121214482Y-65834537D01*
X121214482Y-65834537D02*
X121309720Y-65786918D01*
X121309720Y-65786918D02*
X121357339Y-65739299D01*
X121357339Y-65739299D02*
X121404958Y-65644061D01*
X121404958Y-65644061D02*
X121404958Y-65548823D01*
X121404958Y-65548823D02*
X121357339Y-65453585D01*
X121357339Y-65453585D02*
X121309720Y-65405966D01*
X121309720Y-65405966D02*
X121214482Y-65358346D01*
X121214482Y-65358346D02*
X120976387Y-65358346D01*
X120976387Y-65358346D02*
X120833530Y-65405966D01*
X120404958Y-66358346D02*
X120404958Y-65358346D01*
X119833530Y-66358346D02*
X120262101Y-65786918D01*
X119833530Y-65358346D02*
X120404958Y-65929775D01*
X118976387Y-65358346D02*
X119166863Y-65358346D01*
X119166863Y-65358346D02*
X119262101Y-65405966D01*
X119262101Y-65405966D02*
X119309720Y-65453585D01*
X119309720Y-65453585D02*
X119404958Y-65596442D01*
X119404958Y-65596442D02*
X119452577Y-65786918D01*
X119452577Y-65786918D02*
X119452577Y-66167870D01*
X119452577Y-66167870D02*
X119404958Y-66263108D01*
X119404958Y-66263108D02*
X119357339Y-66310727D01*
X119357339Y-66310727D02*
X119262101Y-66358346D01*
X119262101Y-66358346D02*
X119071625Y-66358346D01*
X119071625Y-66358346D02*
X118976387Y-66310727D01*
X118976387Y-66310727D02*
X118928768Y-66263108D01*
X118928768Y-66263108D02*
X118881149Y-66167870D01*
X118881149Y-66167870D02*
X118881149Y-65929775D01*
X118881149Y-65929775D02*
X118928768Y-65834537D01*
X118928768Y-65834537D02*
X118976387Y-65786918D01*
X118976387Y-65786918D02*
X119071625Y-65739299D01*
X119071625Y-65739299D02*
X119262101Y-65739299D01*
X119262101Y-65739299D02*
X119357339Y-65786918D01*
X119357339Y-65786918D02*
X119404958Y-65834537D01*
X119404958Y-65834537D02*
X119452577Y-65929775D01*
X118309720Y-65786918D02*
X118404958Y-65739299D01*
X118404958Y-65739299D02*
X118452577Y-65691680D01*
X118452577Y-65691680D02*
X118500196Y-65596442D01*
X118500196Y-65596442D02*
X118500196Y-65548823D01*
X118500196Y-65548823D02*
X118452577Y-65453585D01*
X118452577Y-65453585D02*
X118404958Y-65405966D01*
X118404958Y-65405966D02*
X118309720Y-65358346D01*
X118309720Y-65358346D02*
X118119244Y-65358346D01*
X118119244Y-65358346D02*
X118024006Y-65405966D01*
X118024006Y-65405966D02*
X117976387Y-65453585D01*
X117976387Y-65453585D02*
X117928768Y-65548823D01*
X117928768Y-65548823D02*
X117928768Y-65596442D01*
X117928768Y-65596442D02*
X117976387Y-65691680D01*
X117976387Y-65691680D02*
X118024006Y-65739299D01*
X118024006Y-65739299D02*
X118119244Y-65786918D01*
X118119244Y-65786918D02*
X118309720Y-65786918D01*
X118309720Y-65786918D02*
X118404958Y-65834537D01*
X118404958Y-65834537D02*
X118452577Y-65882156D01*
X118452577Y-65882156D02*
X118500196Y-65977394D01*
X118500196Y-65977394D02*
X118500196Y-66167870D01*
X118500196Y-66167870D02*
X118452577Y-66263108D01*
X118452577Y-66263108D02*
X118404958Y-66310727D01*
X118404958Y-66310727D02*
X118309720Y-66358346D01*
X118309720Y-66358346D02*
X118119244Y-66358346D01*
X118119244Y-66358346D02*
X118024006Y-66310727D01*
X118024006Y-66310727D02*
X117976387Y-66263108D01*
X117976387Y-66263108D02*
X117928768Y-66167870D01*
X117928768Y-66167870D02*
X117928768Y-65977394D01*
X117928768Y-65977394D02*
X117976387Y-65882156D01*
X117976387Y-65882156D02*
X118024006Y-65834537D01*
X118024006Y-65834537D02*
X118119244Y-65786918D01*
X116976387Y-66358346D02*
X117547815Y-66358346D01*
X117262101Y-66358346D02*
X117262101Y-65358346D01*
X117262101Y-65358346D02*
X117357339Y-65501204D01*
X117357339Y-65501204D02*
X117452577Y-65596442D01*
X117452577Y-65596442D02*
X117547815Y-65644061D01*
X116595434Y-65453585D02*
X116547815Y-65405966D01*
X116547815Y-65405966D02*
X116452577Y-65358346D01*
X116452577Y-65358346D02*
X116214482Y-65358346D01*
X116214482Y-65358346D02*
X116119244Y-65405966D01*
X116119244Y-65405966D02*
X116071625Y-65453585D01*
X116071625Y-65453585D02*
X116024006Y-65548823D01*
X116024006Y-65548823D02*
X116024006Y-65644061D01*
X116024006Y-65644061D02*
X116071625Y-65786918D01*
X116071625Y-65786918D02*
X116643053Y-66358346D01*
X116643053Y-66358346D02*
X116024006Y-66358346D01*
X115595434Y-66358346D02*
X115595434Y-65358346D01*
X115595434Y-65358346D02*
X115262101Y-66072632D01*
X115262101Y-66072632D02*
X114928768Y-65358346D01*
X114928768Y-65358346D02*
X114928768Y-66358346D01*
X114452577Y-66358346D02*
X114452577Y-65358346D01*
X113976387Y-66358346D02*
X113976387Y-65358346D01*
X113976387Y-65358346D02*
X113404959Y-66358346D01*
X113404959Y-66358346D02*
X113404959Y-65358346D01*
X112928768Y-66358346D02*
X112928768Y-65358346D01*
X112690674Y-66453585D02*
X111928769Y-66453585D01*
X111690673Y-65834537D02*
X111357340Y-65834537D01*
X111214483Y-66358346D02*
X111690673Y-66358346D01*
X111690673Y-66358346D02*
X111690673Y-65358346D01*
X111690673Y-65358346D02*
X111214483Y-65358346D01*
X110262102Y-66358346D02*
X110833530Y-66358346D01*
X110547816Y-66358346D02*
X110547816Y-65358346D01*
X110547816Y-65358346D02*
X110643054Y-65501204D01*
X110643054Y-65501204D02*
X110738292Y-65596442D01*
X110738292Y-65596442D02*
X110833530Y-65644061D01*
D11*
%TO.C,D9*%
X88368094Y-111873380D02*
X88368094Y-110873380D01*
X88368094Y-110873380D02*
X88129999Y-110873380D01*
X88129999Y-110873380D02*
X87987142Y-110921000D01*
X87987142Y-110921000D02*
X87891904Y-111016238D01*
X87891904Y-111016238D02*
X87844285Y-111111476D01*
X87844285Y-111111476D02*
X87796666Y-111301952D01*
X87796666Y-111301952D02*
X87796666Y-111444809D01*
X87796666Y-111444809D02*
X87844285Y-111635285D01*
X87844285Y-111635285D02*
X87891904Y-111730523D01*
X87891904Y-111730523D02*
X87987142Y-111825761D01*
X87987142Y-111825761D02*
X88129999Y-111873380D01*
X88129999Y-111873380D02*
X88368094Y-111873380D01*
X87320475Y-111873380D02*
X87129999Y-111873380D01*
X87129999Y-111873380D02*
X87034761Y-111825761D01*
X87034761Y-111825761D02*
X86987142Y-111778142D01*
X86987142Y-111778142D02*
X86891904Y-111635285D01*
X86891904Y-111635285D02*
X86844285Y-111444809D01*
X86844285Y-111444809D02*
X86844285Y-111063857D01*
X86844285Y-111063857D02*
X86891904Y-110968619D01*
X86891904Y-110968619D02*
X86939523Y-110921000D01*
X86939523Y-110921000D02*
X87034761Y-110873380D01*
X87034761Y-110873380D02*
X87225237Y-110873380D01*
X87225237Y-110873380D02*
X87320475Y-110921000D01*
X87320475Y-110921000D02*
X87368094Y-110968619D01*
X87368094Y-110968619D02*
X87415713Y-111063857D01*
X87415713Y-111063857D02*
X87415713Y-111301952D01*
X87415713Y-111301952D02*
X87368094Y-111397190D01*
X87368094Y-111397190D02*
X87320475Y-111444809D01*
X87320475Y-111444809D02*
X87225237Y-111492428D01*
X87225237Y-111492428D02*
X87034761Y-111492428D01*
X87034761Y-111492428D02*
X86939523Y-111444809D01*
X86939523Y-111444809D02*
X86891904Y-111397190D01*
X86891904Y-111397190D02*
X86844285Y-111301952D01*
%TO.C,U1*%
X146049904Y-76075380D02*
X146049904Y-76884904D01*
X146049904Y-76884904D02*
X146002285Y-76980142D01*
X146002285Y-76980142D02*
X145954666Y-77027761D01*
X145954666Y-77027761D02*
X145859428Y-77075380D01*
X145859428Y-77075380D02*
X145668952Y-77075380D01*
X145668952Y-77075380D02*
X145573714Y-77027761D01*
X145573714Y-77027761D02*
X145526095Y-76980142D01*
X145526095Y-76980142D02*
X145478476Y-76884904D01*
X145478476Y-76884904D02*
X145478476Y-76075380D01*
X144478476Y-77075380D02*
X145049904Y-77075380D01*
X144764190Y-77075380D02*
X144764190Y-76075380D01*
X144764190Y-76075380D02*
X144859428Y-76218238D01*
X144859428Y-76218238D02*
X144954666Y-76313476D01*
X144954666Y-76313476D02*
X145049904Y-76361095D01*
%TO.C,C11*%
X135659482Y-51453142D02*
X135707101Y-51500761D01*
X135707101Y-51500761D02*
X135849958Y-51548380D01*
X135849958Y-51548380D02*
X135945196Y-51548380D01*
X135945196Y-51548380D02*
X136088053Y-51500761D01*
X136088053Y-51500761D02*
X136183291Y-51405523D01*
X136183291Y-51405523D02*
X136230910Y-51310285D01*
X136230910Y-51310285D02*
X136278529Y-51119809D01*
X136278529Y-51119809D02*
X136278529Y-50976952D01*
X136278529Y-50976952D02*
X136230910Y-50786476D01*
X136230910Y-50786476D02*
X136183291Y-50691238D01*
X136183291Y-50691238D02*
X136088053Y-50596000D01*
X136088053Y-50596000D02*
X135945196Y-50548380D01*
X135945196Y-50548380D02*
X135849958Y-50548380D01*
X135849958Y-50548380D02*
X135707101Y-50596000D01*
X135707101Y-50596000D02*
X135659482Y-50643619D01*
X134707101Y-51548380D02*
X135278529Y-51548380D01*
X134992815Y-51548380D02*
X134992815Y-50548380D01*
X134992815Y-50548380D02*
X135088053Y-50691238D01*
X135088053Y-50691238D02*
X135183291Y-50786476D01*
X135183291Y-50786476D02*
X135278529Y-50834095D01*
X133754720Y-51548380D02*
X134326148Y-51548380D01*
X134040434Y-51548380D02*
X134040434Y-50548380D01*
X134040434Y-50548380D02*
X134135672Y-50691238D01*
X134135672Y-50691238D02*
X134230910Y-50786476D01*
X134230910Y-50786476D02*
X134326148Y-50834095D01*
D12*
%TO.C,SK6812MINI_E4*%
X84515498Y-85664502D02*
X84372641Y-85712121D01*
X84372641Y-85712121D02*
X84134546Y-85712121D01*
X84134546Y-85712121D02*
X84039308Y-85664502D01*
X84039308Y-85664502D02*
X83991689Y-85616883D01*
X83991689Y-85616883D02*
X83944070Y-85521645D01*
X83944070Y-85521645D02*
X83944070Y-85426407D01*
X83944070Y-85426407D02*
X83991689Y-85331169D01*
X83991689Y-85331169D02*
X84039308Y-85283550D01*
X84039308Y-85283550D02*
X84134546Y-85235931D01*
X84134546Y-85235931D02*
X84325022Y-85188312D01*
X84325022Y-85188312D02*
X84420260Y-85140693D01*
X84420260Y-85140693D02*
X84467879Y-85093074D01*
X84467879Y-85093074D02*
X84515498Y-84997836D01*
X84515498Y-84997836D02*
X84515498Y-84902598D01*
X84515498Y-84902598D02*
X84467879Y-84807360D01*
X84467879Y-84807360D02*
X84420260Y-84759741D01*
X84420260Y-84759741D02*
X84325022Y-84712121D01*
X84325022Y-84712121D02*
X84086927Y-84712121D01*
X84086927Y-84712121D02*
X83944070Y-84759741D01*
X83515498Y-85712121D02*
X83515498Y-84712121D01*
X82944070Y-85712121D02*
X83372641Y-85140693D01*
X82944070Y-84712121D02*
X83515498Y-85283550D01*
X82086927Y-84712121D02*
X82277403Y-84712121D01*
X82277403Y-84712121D02*
X82372641Y-84759741D01*
X82372641Y-84759741D02*
X82420260Y-84807360D01*
X82420260Y-84807360D02*
X82515498Y-84950217D01*
X82515498Y-84950217D02*
X82563117Y-85140693D01*
X82563117Y-85140693D02*
X82563117Y-85521645D01*
X82563117Y-85521645D02*
X82515498Y-85616883D01*
X82515498Y-85616883D02*
X82467879Y-85664502D01*
X82467879Y-85664502D02*
X82372641Y-85712121D01*
X82372641Y-85712121D02*
X82182165Y-85712121D01*
X82182165Y-85712121D02*
X82086927Y-85664502D01*
X82086927Y-85664502D02*
X82039308Y-85616883D01*
X82039308Y-85616883D02*
X81991689Y-85521645D01*
X81991689Y-85521645D02*
X81991689Y-85283550D01*
X81991689Y-85283550D02*
X82039308Y-85188312D01*
X82039308Y-85188312D02*
X82086927Y-85140693D01*
X82086927Y-85140693D02*
X82182165Y-85093074D01*
X82182165Y-85093074D02*
X82372641Y-85093074D01*
X82372641Y-85093074D02*
X82467879Y-85140693D01*
X82467879Y-85140693D02*
X82515498Y-85188312D01*
X82515498Y-85188312D02*
X82563117Y-85283550D01*
X81420260Y-85140693D02*
X81515498Y-85093074D01*
X81515498Y-85093074D02*
X81563117Y-85045455D01*
X81563117Y-85045455D02*
X81610736Y-84950217D01*
X81610736Y-84950217D02*
X81610736Y-84902598D01*
X81610736Y-84902598D02*
X81563117Y-84807360D01*
X81563117Y-84807360D02*
X81515498Y-84759741D01*
X81515498Y-84759741D02*
X81420260Y-84712121D01*
X81420260Y-84712121D02*
X81229784Y-84712121D01*
X81229784Y-84712121D02*
X81134546Y-84759741D01*
X81134546Y-84759741D02*
X81086927Y-84807360D01*
X81086927Y-84807360D02*
X81039308Y-84902598D01*
X81039308Y-84902598D02*
X81039308Y-84950217D01*
X81039308Y-84950217D02*
X81086927Y-85045455D01*
X81086927Y-85045455D02*
X81134546Y-85093074D01*
X81134546Y-85093074D02*
X81229784Y-85140693D01*
X81229784Y-85140693D02*
X81420260Y-85140693D01*
X81420260Y-85140693D02*
X81515498Y-85188312D01*
X81515498Y-85188312D02*
X81563117Y-85235931D01*
X81563117Y-85235931D02*
X81610736Y-85331169D01*
X81610736Y-85331169D02*
X81610736Y-85521645D01*
X81610736Y-85521645D02*
X81563117Y-85616883D01*
X81563117Y-85616883D02*
X81515498Y-85664502D01*
X81515498Y-85664502D02*
X81420260Y-85712121D01*
X81420260Y-85712121D02*
X81229784Y-85712121D01*
X81229784Y-85712121D02*
X81134546Y-85664502D01*
X81134546Y-85664502D02*
X81086927Y-85616883D01*
X81086927Y-85616883D02*
X81039308Y-85521645D01*
X81039308Y-85521645D02*
X81039308Y-85331169D01*
X81039308Y-85331169D02*
X81086927Y-85235931D01*
X81086927Y-85235931D02*
X81134546Y-85188312D01*
X81134546Y-85188312D02*
X81229784Y-85140693D01*
X80086927Y-85712121D02*
X80658355Y-85712121D01*
X80372641Y-85712121D02*
X80372641Y-84712121D01*
X80372641Y-84712121D02*
X80467879Y-84854979D01*
X80467879Y-84854979D02*
X80563117Y-84950217D01*
X80563117Y-84950217D02*
X80658355Y-84997836D01*
X79705974Y-84807360D02*
X79658355Y-84759741D01*
X79658355Y-84759741D02*
X79563117Y-84712121D01*
X79563117Y-84712121D02*
X79325022Y-84712121D01*
X79325022Y-84712121D02*
X79229784Y-84759741D01*
X79229784Y-84759741D02*
X79182165Y-84807360D01*
X79182165Y-84807360D02*
X79134546Y-84902598D01*
X79134546Y-84902598D02*
X79134546Y-84997836D01*
X79134546Y-84997836D02*
X79182165Y-85140693D01*
X79182165Y-85140693D02*
X79753593Y-85712121D01*
X79753593Y-85712121D02*
X79134546Y-85712121D01*
X78705974Y-85712121D02*
X78705974Y-84712121D01*
X78705974Y-84712121D02*
X78372641Y-85426407D01*
X78372641Y-85426407D02*
X78039308Y-84712121D01*
X78039308Y-84712121D02*
X78039308Y-85712121D01*
X77563117Y-85712121D02*
X77563117Y-84712121D01*
X77086927Y-85712121D02*
X77086927Y-84712121D01*
X77086927Y-84712121D02*
X76515499Y-85712121D01*
X76515499Y-85712121D02*
X76515499Y-84712121D01*
X76039308Y-85712121D02*
X76039308Y-84712121D01*
X75801214Y-85807360D02*
X75039309Y-85807360D01*
X74801213Y-85188312D02*
X74467880Y-85188312D01*
X74325023Y-85712121D02*
X74801213Y-85712121D01*
X74801213Y-85712121D02*
X74801213Y-84712121D01*
X74801213Y-84712121D02*
X74325023Y-84712121D01*
X73467880Y-85045455D02*
X73467880Y-85712121D01*
X73705975Y-84664502D02*
X73944070Y-85378788D01*
X73944070Y-85378788D02*
X73325023Y-85378788D01*
D11*
%TO.C,C39*%
X131947450Y-51542096D02*
X131995069Y-51589715D01*
X131995069Y-51589715D02*
X132137926Y-51637334D01*
X132137926Y-51637334D02*
X132233164Y-51637334D01*
X132233164Y-51637334D02*
X132376021Y-51589715D01*
X132376021Y-51589715D02*
X132471259Y-51494477D01*
X132471259Y-51494477D02*
X132518878Y-51399239D01*
X132518878Y-51399239D02*
X132566497Y-51208763D01*
X132566497Y-51208763D02*
X132566497Y-51065906D01*
X132566497Y-51065906D02*
X132518878Y-50875430D01*
X132518878Y-50875430D02*
X132471259Y-50780192D01*
X132471259Y-50780192D02*
X132376021Y-50684954D01*
X132376021Y-50684954D02*
X132233164Y-50637334D01*
X132233164Y-50637334D02*
X132137926Y-50637334D01*
X132137926Y-50637334D02*
X131995069Y-50684954D01*
X131995069Y-50684954D02*
X131947450Y-50732573D01*
X131614116Y-50637334D02*
X130995069Y-50637334D01*
X130995069Y-50637334D02*
X131328402Y-51018287D01*
X131328402Y-51018287D02*
X131185545Y-51018287D01*
X131185545Y-51018287D02*
X131090307Y-51065906D01*
X131090307Y-51065906D02*
X131042688Y-51113525D01*
X131042688Y-51113525D02*
X130995069Y-51208763D01*
X130995069Y-51208763D02*
X130995069Y-51446858D01*
X130995069Y-51446858D02*
X131042688Y-51542096D01*
X131042688Y-51542096D02*
X131090307Y-51589715D01*
X131090307Y-51589715D02*
X131185545Y-51637334D01*
X131185545Y-51637334D02*
X131471259Y-51637334D01*
X131471259Y-51637334D02*
X131566497Y-51589715D01*
X131566497Y-51589715D02*
X131614116Y-51542096D01*
X130518878Y-51637334D02*
X130328402Y-51637334D01*
X130328402Y-51637334D02*
X130233164Y-51589715D01*
X130233164Y-51589715D02*
X130185545Y-51542096D01*
X130185545Y-51542096D02*
X130090307Y-51399239D01*
X130090307Y-51399239D02*
X130042688Y-51208763D01*
X130042688Y-51208763D02*
X130042688Y-50827811D01*
X130042688Y-50827811D02*
X130090307Y-50732573D01*
X130090307Y-50732573D02*
X130137926Y-50684954D01*
X130137926Y-50684954D02*
X130233164Y-50637334D01*
X130233164Y-50637334D02*
X130423640Y-50637334D01*
X130423640Y-50637334D02*
X130518878Y-50684954D01*
X130518878Y-50684954D02*
X130566497Y-50732573D01*
X130566497Y-50732573D02*
X130614116Y-50827811D01*
X130614116Y-50827811D02*
X130614116Y-51065906D01*
X130614116Y-51065906D02*
X130566497Y-51161144D01*
X130566497Y-51161144D02*
X130518878Y-51208763D01*
X130518878Y-51208763D02*
X130423640Y-51256382D01*
X130423640Y-51256382D02*
X130233164Y-51256382D01*
X130233164Y-51256382D02*
X130137926Y-51208763D01*
X130137926Y-51208763D02*
X130090307Y-51161144D01*
X130090307Y-51161144D02*
X130042688Y-51065906D01*
%TO.C,C12*%
X135643857Y-53104142D02*
X135691476Y-53151761D01*
X135691476Y-53151761D02*
X135834333Y-53199380D01*
X135834333Y-53199380D02*
X135929571Y-53199380D01*
X135929571Y-53199380D02*
X136072428Y-53151761D01*
X136072428Y-53151761D02*
X136167666Y-53056523D01*
X136167666Y-53056523D02*
X136215285Y-52961285D01*
X136215285Y-52961285D02*
X136262904Y-52770809D01*
X136262904Y-52770809D02*
X136262904Y-52627952D01*
X136262904Y-52627952D02*
X136215285Y-52437476D01*
X136215285Y-52437476D02*
X136167666Y-52342238D01*
X136167666Y-52342238D02*
X136072428Y-52247000D01*
X136072428Y-52247000D02*
X135929571Y-52199380D01*
X135929571Y-52199380D02*
X135834333Y-52199380D01*
X135834333Y-52199380D02*
X135691476Y-52247000D01*
X135691476Y-52247000D02*
X135643857Y-52294619D01*
X134691476Y-53199380D02*
X135262904Y-53199380D01*
X134977190Y-53199380D02*
X134977190Y-52199380D01*
X134977190Y-52199380D02*
X135072428Y-52342238D01*
X135072428Y-52342238D02*
X135167666Y-52437476D01*
X135167666Y-52437476D02*
X135262904Y-52485095D01*
X134310523Y-52294619D02*
X134262904Y-52247000D01*
X134262904Y-52247000D02*
X134167666Y-52199380D01*
X134167666Y-52199380D02*
X133929571Y-52199380D01*
X133929571Y-52199380D02*
X133834333Y-52247000D01*
X133834333Y-52247000D02*
X133786714Y-52294619D01*
X133786714Y-52294619D02*
X133739095Y-52389857D01*
X133739095Y-52389857D02*
X133739095Y-52485095D01*
X133739095Y-52485095D02*
X133786714Y-52627952D01*
X133786714Y-52627952D02*
X134358142Y-53199380D01*
X134358142Y-53199380D02*
X133739095Y-53199380D01*
%TO.C,D8*%
X89981253Y-97908289D02*
X88981253Y-97908289D01*
X88981253Y-97908289D02*
X88981253Y-98146384D01*
X88981253Y-98146384D02*
X89028873Y-98289241D01*
X89028873Y-98289241D02*
X89124111Y-98384479D01*
X89124111Y-98384479D02*
X89219349Y-98432098D01*
X89219349Y-98432098D02*
X89409825Y-98479717D01*
X89409825Y-98479717D02*
X89552682Y-98479717D01*
X89552682Y-98479717D02*
X89743158Y-98432098D01*
X89743158Y-98432098D02*
X89838396Y-98384479D01*
X89838396Y-98384479D02*
X89933634Y-98289241D01*
X89933634Y-98289241D02*
X89981253Y-98146384D01*
X89981253Y-98146384D02*
X89981253Y-97908289D01*
X89409825Y-99051146D02*
X89362206Y-98955908D01*
X89362206Y-98955908D02*
X89314587Y-98908289D01*
X89314587Y-98908289D02*
X89219349Y-98860670D01*
X89219349Y-98860670D02*
X89171730Y-98860670D01*
X89171730Y-98860670D02*
X89076492Y-98908289D01*
X89076492Y-98908289D02*
X89028873Y-98955908D01*
X89028873Y-98955908D02*
X88981253Y-99051146D01*
X88981253Y-99051146D02*
X88981253Y-99241622D01*
X88981253Y-99241622D02*
X89028873Y-99336860D01*
X89028873Y-99336860D02*
X89076492Y-99384479D01*
X89076492Y-99384479D02*
X89171730Y-99432098D01*
X89171730Y-99432098D02*
X89219349Y-99432098D01*
X89219349Y-99432098D02*
X89314587Y-99384479D01*
X89314587Y-99384479D02*
X89362206Y-99336860D01*
X89362206Y-99336860D02*
X89409825Y-99241622D01*
X89409825Y-99241622D02*
X89409825Y-99051146D01*
X89409825Y-99051146D02*
X89457444Y-98955908D01*
X89457444Y-98955908D02*
X89505063Y-98908289D01*
X89505063Y-98908289D02*
X89600301Y-98860670D01*
X89600301Y-98860670D02*
X89790777Y-98860670D01*
X89790777Y-98860670D02*
X89886015Y-98908289D01*
X89886015Y-98908289D02*
X89933634Y-98955908D01*
X89933634Y-98955908D02*
X89981253Y-99051146D01*
X89981253Y-99051146D02*
X89981253Y-99241622D01*
X89981253Y-99241622D02*
X89933634Y-99336860D01*
X89933634Y-99336860D02*
X89886015Y-99384479D01*
X89886015Y-99384479D02*
X89790777Y-99432098D01*
X89790777Y-99432098D02*
X89600301Y-99432098D01*
X89600301Y-99432098D02*
X89505063Y-99384479D01*
X89505063Y-99384479D02*
X89457444Y-99336860D01*
X89457444Y-99336860D02*
X89409825Y-99241622D01*
%TO.C,D1*%
X147433380Y-90813950D02*
X146433380Y-90813950D01*
X146433380Y-90813950D02*
X146433380Y-91052045D01*
X146433380Y-91052045D02*
X146481000Y-91194902D01*
X146481000Y-91194902D02*
X146576238Y-91290140D01*
X146576238Y-91290140D02*
X146671476Y-91337759D01*
X146671476Y-91337759D02*
X146861952Y-91385378D01*
X146861952Y-91385378D02*
X147004809Y-91385378D01*
X147004809Y-91385378D02*
X147195285Y-91337759D01*
X147195285Y-91337759D02*
X147290523Y-91290140D01*
X147290523Y-91290140D02*
X147385761Y-91194902D01*
X147385761Y-91194902D02*
X147433380Y-91052045D01*
X147433380Y-91052045D02*
X147433380Y-90813950D01*
X147433380Y-92337759D02*
X147433380Y-91766331D01*
X147433380Y-92052045D02*
X146433380Y-92052045D01*
X146433380Y-92052045D02*
X146576238Y-91956807D01*
X146576238Y-91956807D02*
X146671476Y-91861569D01*
X146671476Y-91861569D02*
X146719095Y-91766331D01*
%TO.C,C8*%
X139718142Y-84415333D02*
X139765761Y-84367714D01*
X139765761Y-84367714D02*
X139813380Y-84224857D01*
X139813380Y-84224857D02*
X139813380Y-84129619D01*
X139813380Y-84129619D02*
X139765761Y-83986762D01*
X139765761Y-83986762D02*
X139670523Y-83891524D01*
X139670523Y-83891524D02*
X139575285Y-83843905D01*
X139575285Y-83843905D02*
X139384809Y-83796286D01*
X139384809Y-83796286D02*
X139241952Y-83796286D01*
X139241952Y-83796286D02*
X139051476Y-83843905D01*
X139051476Y-83843905D02*
X138956238Y-83891524D01*
X138956238Y-83891524D02*
X138861000Y-83986762D01*
X138861000Y-83986762D02*
X138813380Y-84129619D01*
X138813380Y-84129619D02*
X138813380Y-84224857D01*
X138813380Y-84224857D02*
X138861000Y-84367714D01*
X138861000Y-84367714D02*
X138908619Y-84415333D01*
X139241952Y-84986762D02*
X139194333Y-84891524D01*
X139194333Y-84891524D02*
X139146714Y-84843905D01*
X139146714Y-84843905D02*
X139051476Y-84796286D01*
X139051476Y-84796286D02*
X139003857Y-84796286D01*
X139003857Y-84796286D02*
X138908619Y-84843905D01*
X138908619Y-84843905D02*
X138861000Y-84891524D01*
X138861000Y-84891524D02*
X138813380Y-84986762D01*
X138813380Y-84986762D02*
X138813380Y-85177238D01*
X138813380Y-85177238D02*
X138861000Y-85272476D01*
X138861000Y-85272476D02*
X138908619Y-85320095D01*
X138908619Y-85320095D02*
X139003857Y-85367714D01*
X139003857Y-85367714D02*
X139051476Y-85367714D01*
X139051476Y-85367714D02*
X139146714Y-85320095D01*
X139146714Y-85320095D02*
X139194333Y-85272476D01*
X139194333Y-85272476D02*
X139241952Y-85177238D01*
X139241952Y-85177238D02*
X139241952Y-84986762D01*
X139241952Y-84986762D02*
X139289571Y-84891524D01*
X139289571Y-84891524D02*
X139337190Y-84843905D01*
X139337190Y-84843905D02*
X139432428Y-84796286D01*
X139432428Y-84796286D02*
X139622904Y-84796286D01*
X139622904Y-84796286D02*
X139718142Y-84843905D01*
X139718142Y-84843905D02*
X139765761Y-84891524D01*
X139765761Y-84891524D02*
X139813380Y-84986762D01*
X139813380Y-84986762D02*
X139813380Y-85177238D01*
X139813380Y-85177238D02*
X139765761Y-85272476D01*
X139765761Y-85272476D02*
X139718142Y-85320095D01*
X139718142Y-85320095D02*
X139622904Y-85367714D01*
X139622904Y-85367714D02*
X139432428Y-85367714D01*
X139432428Y-85367714D02*
X139337190Y-85320095D01*
X139337190Y-85320095D02*
X139289571Y-85272476D01*
X139289571Y-85272476D02*
X139241952Y-85177238D01*
%TO.C,D7*%
X89997380Y-77367905D02*
X88997380Y-77367905D01*
X88997380Y-77367905D02*
X88997380Y-77606000D01*
X88997380Y-77606000D02*
X89045000Y-77748857D01*
X89045000Y-77748857D02*
X89140238Y-77844095D01*
X89140238Y-77844095D02*
X89235476Y-77891714D01*
X89235476Y-77891714D02*
X89425952Y-77939333D01*
X89425952Y-77939333D02*
X89568809Y-77939333D01*
X89568809Y-77939333D02*
X89759285Y-77891714D01*
X89759285Y-77891714D02*
X89854523Y-77844095D01*
X89854523Y-77844095D02*
X89949761Y-77748857D01*
X89949761Y-77748857D02*
X89997380Y-77606000D01*
X89997380Y-77606000D02*
X89997380Y-77367905D01*
X88997380Y-78272667D02*
X88997380Y-78939333D01*
X88997380Y-78939333D02*
X89997380Y-78510762D01*
%TO.C,C2*%
X136665166Y-73092196D02*
X136712785Y-73139815D01*
X136712785Y-73139815D02*
X136855642Y-73187434D01*
X136855642Y-73187434D02*
X136950880Y-73187434D01*
X136950880Y-73187434D02*
X137093737Y-73139815D01*
X137093737Y-73139815D02*
X137188975Y-73044577D01*
X137188975Y-73044577D02*
X137236594Y-72949339D01*
X137236594Y-72949339D02*
X137284213Y-72758863D01*
X137284213Y-72758863D02*
X137284213Y-72616006D01*
X137284213Y-72616006D02*
X137236594Y-72425530D01*
X137236594Y-72425530D02*
X137188975Y-72330292D01*
X137188975Y-72330292D02*
X137093737Y-72235054D01*
X137093737Y-72235054D02*
X136950880Y-72187434D01*
X136950880Y-72187434D02*
X136855642Y-72187434D01*
X136855642Y-72187434D02*
X136712785Y-72235054D01*
X136712785Y-72235054D02*
X136665166Y-72282673D01*
X136284213Y-72282673D02*
X136236594Y-72235054D01*
X136236594Y-72235054D02*
X136141356Y-72187434D01*
X136141356Y-72187434D02*
X135903261Y-72187434D01*
X135903261Y-72187434D02*
X135808023Y-72235054D01*
X135808023Y-72235054D02*
X135760404Y-72282673D01*
X135760404Y-72282673D02*
X135712785Y-72377911D01*
X135712785Y-72377911D02*
X135712785Y-72473149D01*
X135712785Y-72473149D02*
X135760404Y-72616006D01*
X135760404Y-72616006D02*
X136331832Y-73187434D01*
X136331832Y-73187434D02*
X135712785Y-73187434D01*
%TO.C,D6*%
X127875380Y-108099905D02*
X126875380Y-108099905D01*
X126875380Y-108099905D02*
X126875380Y-108338000D01*
X126875380Y-108338000D02*
X126923000Y-108480857D01*
X126923000Y-108480857D02*
X127018238Y-108576095D01*
X127018238Y-108576095D02*
X127113476Y-108623714D01*
X127113476Y-108623714D02*
X127303952Y-108671333D01*
X127303952Y-108671333D02*
X127446809Y-108671333D01*
X127446809Y-108671333D02*
X127637285Y-108623714D01*
X127637285Y-108623714D02*
X127732523Y-108576095D01*
X127732523Y-108576095D02*
X127827761Y-108480857D01*
X127827761Y-108480857D02*
X127875380Y-108338000D01*
X127875380Y-108338000D02*
X127875380Y-108099905D01*
X126875380Y-109528476D02*
X126875380Y-109338000D01*
X126875380Y-109338000D02*
X126923000Y-109242762D01*
X126923000Y-109242762D02*
X126970619Y-109195143D01*
X126970619Y-109195143D02*
X127113476Y-109099905D01*
X127113476Y-109099905D02*
X127303952Y-109052286D01*
X127303952Y-109052286D02*
X127684904Y-109052286D01*
X127684904Y-109052286D02*
X127780142Y-109099905D01*
X127780142Y-109099905D02*
X127827761Y-109147524D01*
X127827761Y-109147524D02*
X127875380Y-109242762D01*
X127875380Y-109242762D02*
X127875380Y-109433238D01*
X127875380Y-109433238D02*
X127827761Y-109528476D01*
X127827761Y-109528476D02*
X127780142Y-109576095D01*
X127780142Y-109576095D02*
X127684904Y-109623714D01*
X127684904Y-109623714D02*
X127446809Y-109623714D01*
X127446809Y-109623714D02*
X127351571Y-109576095D01*
X127351571Y-109576095D02*
X127303952Y-109528476D01*
X127303952Y-109528476D02*
X127256333Y-109433238D01*
X127256333Y-109433238D02*
X127256333Y-109242762D01*
X127256333Y-109242762D02*
X127303952Y-109147524D01*
X127303952Y-109147524D02*
X127351571Y-109099905D01*
X127351571Y-109099905D02*
X127446809Y-109052286D01*
%TO.C,C13*%
X135670357Y-54882142D02*
X135717976Y-54929761D01*
X135717976Y-54929761D02*
X135860833Y-54977380D01*
X135860833Y-54977380D02*
X135956071Y-54977380D01*
X135956071Y-54977380D02*
X136098928Y-54929761D01*
X136098928Y-54929761D02*
X136194166Y-54834523D01*
X136194166Y-54834523D02*
X136241785Y-54739285D01*
X136241785Y-54739285D02*
X136289404Y-54548809D01*
X136289404Y-54548809D02*
X136289404Y-54405952D01*
X136289404Y-54405952D02*
X136241785Y-54215476D01*
X136241785Y-54215476D02*
X136194166Y-54120238D01*
X136194166Y-54120238D02*
X136098928Y-54025000D01*
X136098928Y-54025000D02*
X135956071Y-53977380D01*
X135956071Y-53977380D02*
X135860833Y-53977380D01*
X135860833Y-53977380D02*
X135717976Y-54025000D01*
X135717976Y-54025000D02*
X135670357Y-54072619D01*
X134717976Y-54977380D02*
X135289404Y-54977380D01*
X135003690Y-54977380D02*
X135003690Y-53977380D01*
X135003690Y-53977380D02*
X135098928Y-54120238D01*
X135098928Y-54120238D02*
X135194166Y-54215476D01*
X135194166Y-54215476D02*
X135289404Y-54263095D01*
X134384642Y-53977380D02*
X133765595Y-53977380D01*
X133765595Y-53977380D02*
X134098928Y-54358333D01*
X134098928Y-54358333D02*
X133956071Y-54358333D01*
X133956071Y-54358333D02*
X133860833Y-54405952D01*
X133860833Y-54405952D02*
X133813214Y-54453571D01*
X133813214Y-54453571D02*
X133765595Y-54548809D01*
X133765595Y-54548809D02*
X133765595Y-54786904D01*
X133765595Y-54786904D02*
X133813214Y-54882142D01*
X133813214Y-54882142D02*
X133860833Y-54929761D01*
X133860833Y-54929761D02*
X133956071Y-54977380D01*
X133956071Y-54977380D02*
X134241785Y-54977380D01*
X134241785Y-54977380D02*
X134337023Y-54929761D01*
X134337023Y-54929761D02*
X134384642Y-54882142D01*
%TO.C,C42*%
X132087857Y-49675142D02*
X132135476Y-49722761D01*
X132135476Y-49722761D02*
X132278333Y-49770380D01*
X132278333Y-49770380D02*
X132373571Y-49770380D01*
X132373571Y-49770380D02*
X132516428Y-49722761D01*
X132516428Y-49722761D02*
X132611666Y-49627523D01*
X132611666Y-49627523D02*
X132659285Y-49532285D01*
X132659285Y-49532285D02*
X132706904Y-49341809D01*
X132706904Y-49341809D02*
X132706904Y-49198952D01*
X132706904Y-49198952D02*
X132659285Y-49008476D01*
X132659285Y-49008476D02*
X132611666Y-48913238D01*
X132611666Y-48913238D02*
X132516428Y-48818000D01*
X132516428Y-48818000D02*
X132373571Y-48770380D01*
X132373571Y-48770380D02*
X132278333Y-48770380D01*
X132278333Y-48770380D02*
X132135476Y-48818000D01*
X132135476Y-48818000D02*
X132087857Y-48865619D01*
X131230714Y-49103714D02*
X131230714Y-49770380D01*
X131468809Y-48722761D02*
X131706904Y-49437047D01*
X131706904Y-49437047D02*
X131087857Y-49437047D01*
X130754523Y-48865619D02*
X130706904Y-48818000D01*
X130706904Y-48818000D02*
X130611666Y-48770380D01*
X130611666Y-48770380D02*
X130373571Y-48770380D01*
X130373571Y-48770380D02*
X130278333Y-48818000D01*
X130278333Y-48818000D02*
X130230714Y-48865619D01*
X130230714Y-48865619D02*
X130183095Y-48960857D01*
X130183095Y-48960857D02*
X130183095Y-49056095D01*
X130183095Y-49056095D02*
X130230714Y-49198952D01*
X130230714Y-49198952D02*
X130802142Y-49770380D01*
X130802142Y-49770380D02*
X130183095Y-49770380D01*
%TO.C,Y1*%
X137852153Y-69233190D02*
X137852153Y-69709380D01*
X138185486Y-68709380D02*
X137852153Y-69233190D01*
X137852153Y-69233190D02*
X137518820Y-68709380D01*
X136661677Y-69709380D02*
X137233105Y-69709380D01*
X136947391Y-69709380D02*
X136947391Y-68709380D01*
X136947391Y-68709380D02*
X137042629Y-68852238D01*
X137042629Y-68852238D02*
X137137867Y-68947476D01*
X137137867Y-68947476D02*
X137233105Y-68995095D01*
%TO.C,R15*%
X142542357Y-94093380D02*
X142875690Y-93617190D01*
X143113785Y-94093380D02*
X143113785Y-93093380D01*
X143113785Y-93093380D02*
X142732833Y-93093380D01*
X142732833Y-93093380D02*
X142637595Y-93141000D01*
X142637595Y-93141000D02*
X142589976Y-93188619D01*
X142589976Y-93188619D02*
X142542357Y-93283857D01*
X142542357Y-93283857D02*
X142542357Y-93426714D01*
X142542357Y-93426714D02*
X142589976Y-93521952D01*
X142589976Y-93521952D02*
X142637595Y-93569571D01*
X142637595Y-93569571D02*
X142732833Y-93617190D01*
X142732833Y-93617190D02*
X143113785Y-93617190D01*
X141589976Y-94093380D02*
X142161404Y-94093380D01*
X141875690Y-94093380D02*
X141875690Y-93093380D01*
X141875690Y-93093380D02*
X141970928Y-93236238D01*
X141970928Y-93236238D02*
X142066166Y-93331476D01*
X142066166Y-93331476D02*
X142161404Y-93379095D01*
X140685214Y-93093380D02*
X141161404Y-93093380D01*
X141161404Y-93093380D02*
X141209023Y-93569571D01*
X141209023Y-93569571D02*
X141161404Y-93521952D01*
X141161404Y-93521952D02*
X141066166Y-93474333D01*
X141066166Y-93474333D02*
X140828071Y-93474333D01*
X140828071Y-93474333D02*
X140732833Y-93521952D01*
X140732833Y-93521952D02*
X140685214Y-93569571D01*
X140685214Y-93569571D02*
X140637595Y-93664809D01*
X140637595Y-93664809D02*
X140637595Y-93902904D01*
X140637595Y-93902904D02*
X140685214Y-93998142D01*
X140685214Y-93998142D02*
X140732833Y-94045761D01*
X140732833Y-94045761D02*
X140828071Y-94093380D01*
X140828071Y-94093380D02*
X141066166Y-94093380D01*
X141066166Y-94093380D02*
X141161404Y-94045761D01*
X141161404Y-94045761D02*
X141209023Y-93998142D01*
%TO.C,D2*%
X154662094Y-75805380D02*
X154662094Y-74805380D01*
X154662094Y-74805380D02*
X154423999Y-74805380D01*
X154423999Y-74805380D02*
X154281142Y-74853000D01*
X154281142Y-74853000D02*
X154185904Y-74948238D01*
X154185904Y-74948238D02*
X154138285Y-75043476D01*
X154138285Y-75043476D02*
X154090666Y-75233952D01*
X154090666Y-75233952D02*
X154090666Y-75376809D01*
X154090666Y-75376809D02*
X154138285Y-75567285D01*
X154138285Y-75567285D02*
X154185904Y-75662523D01*
X154185904Y-75662523D02*
X154281142Y-75757761D01*
X154281142Y-75757761D02*
X154423999Y-75805380D01*
X154423999Y-75805380D02*
X154662094Y-75805380D01*
X153709713Y-74900619D02*
X153662094Y-74853000D01*
X153662094Y-74853000D02*
X153566856Y-74805380D01*
X153566856Y-74805380D02*
X153328761Y-74805380D01*
X153328761Y-74805380D02*
X153233523Y-74853000D01*
X153233523Y-74853000D02*
X153185904Y-74900619D01*
X153185904Y-74900619D02*
X153138285Y-74995857D01*
X153138285Y-74995857D02*
X153138285Y-75091095D01*
X153138285Y-75091095D02*
X153185904Y-75233952D01*
X153185904Y-75233952D02*
X153757332Y-75805380D01*
X153757332Y-75805380D02*
X153138285Y-75805380D01*
%TO.C,R14*%
X132722857Y-81647380D02*
X133056190Y-81171190D01*
X133294285Y-81647380D02*
X133294285Y-80647380D01*
X133294285Y-80647380D02*
X132913333Y-80647380D01*
X132913333Y-80647380D02*
X132818095Y-80695000D01*
X132818095Y-80695000D02*
X132770476Y-80742619D01*
X132770476Y-80742619D02*
X132722857Y-80837857D01*
X132722857Y-80837857D02*
X132722857Y-80980714D01*
X132722857Y-80980714D02*
X132770476Y-81075952D01*
X132770476Y-81075952D02*
X132818095Y-81123571D01*
X132818095Y-81123571D02*
X132913333Y-81171190D01*
X132913333Y-81171190D02*
X133294285Y-81171190D01*
X131770476Y-81647380D02*
X132341904Y-81647380D01*
X132056190Y-81647380D02*
X132056190Y-80647380D01*
X132056190Y-80647380D02*
X132151428Y-80790238D01*
X132151428Y-80790238D02*
X132246666Y-80885476D01*
X132246666Y-80885476D02*
X132341904Y-80933095D01*
X130913333Y-80980714D02*
X130913333Y-81647380D01*
X131151428Y-80599761D02*
X131389523Y-81314047D01*
X131389523Y-81314047D02*
X130770476Y-81314047D01*
%TO.C,FB1*%
X139517333Y-86457571D02*
X139850666Y-86457571D01*
X139850666Y-86981380D02*
X139850666Y-85981380D01*
X139850666Y-85981380D02*
X139374476Y-85981380D01*
X138660190Y-86457571D02*
X138517333Y-86505190D01*
X138517333Y-86505190D02*
X138469714Y-86552809D01*
X138469714Y-86552809D02*
X138422095Y-86648047D01*
X138422095Y-86648047D02*
X138422095Y-86790904D01*
X138422095Y-86790904D02*
X138469714Y-86886142D01*
X138469714Y-86886142D02*
X138517333Y-86933761D01*
X138517333Y-86933761D02*
X138612571Y-86981380D01*
X138612571Y-86981380D02*
X138993523Y-86981380D01*
X138993523Y-86981380D02*
X138993523Y-85981380D01*
X138993523Y-85981380D02*
X138660190Y-85981380D01*
X138660190Y-85981380D02*
X138564952Y-86029000D01*
X138564952Y-86029000D02*
X138517333Y-86076619D01*
X138517333Y-86076619D02*
X138469714Y-86171857D01*
X138469714Y-86171857D02*
X138469714Y-86267095D01*
X138469714Y-86267095D02*
X138517333Y-86362333D01*
X138517333Y-86362333D02*
X138564952Y-86409952D01*
X138564952Y-86409952D02*
X138660190Y-86457571D01*
X138660190Y-86457571D02*
X138993523Y-86457571D01*
X137469714Y-86981380D02*
X138041142Y-86981380D01*
X137755428Y-86981380D02*
X137755428Y-85981380D01*
X137755428Y-85981380D02*
X137850666Y-86124238D01*
X137850666Y-86124238D02*
X137945904Y-86219476D01*
X137945904Y-86219476D02*
X138041142Y-86267095D01*
D12*
%TO.C,SK6812MINI_E8*%
X102001427Y-104967761D02*
X101858570Y-105015380D01*
X101858570Y-105015380D02*
X101620475Y-105015380D01*
X101620475Y-105015380D02*
X101525237Y-104967761D01*
X101525237Y-104967761D02*
X101477618Y-104920142D01*
X101477618Y-104920142D02*
X101429999Y-104824904D01*
X101429999Y-104824904D02*
X101429999Y-104729666D01*
X101429999Y-104729666D02*
X101477618Y-104634428D01*
X101477618Y-104634428D02*
X101525237Y-104586809D01*
X101525237Y-104586809D02*
X101620475Y-104539190D01*
X101620475Y-104539190D02*
X101810951Y-104491571D01*
X101810951Y-104491571D02*
X101906189Y-104443952D01*
X101906189Y-104443952D02*
X101953808Y-104396333D01*
X101953808Y-104396333D02*
X102001427Y-104301095D01*
X102001427Y-104301095D02*
X102001427Y-104205857D01*
X102001427Y-104205857D02*
X101953808Y-104110619D01*
X101953808Y-104110619D02*
X101906189Y-104063000D01*
X101906189Y-104063000D02*
X101810951Y-104015380D01*
X101810951Y-104015380D02*
X101572856Y-104015380D01*
X101572856Y-104015380D02*
X101429999Y-104063000D01*
X101001427Y-105015380D02*
X101001427Y-104015380D01*
X100429999Y-105015380D02*
X100858570Y-104443952D01*
X100429999Y-104015380D02*
X101001427Y-104586809D01*
X99572856Y-104015380D02*
X99763332Y-104015380D01*
X99763332Y-104015380D02*
X99858570Y-104063000D01*
X99858570Y-104063000D02*
X99906189Y-104110619D01*
X99906189Y-104110619D02*
X100001427Y-104253476D01*
X100001427Y-104253476D02*
X100049046Y-104443952D01*
X100049046Y-104443952D02*
X100049046Y-104824904D01*
X100049046Y-104824904D02*
X100001427Y-104920142D01*
X100001427Y-104920142D02*
X99953808Y-104967761D01*
X99953808Y-104967761D02*
X99858570Y-105015380D01*
X99858570Y-105015380D02*
X99668094Y-105015380D01*
X99668094Y-105015380D02*
X99572856Y-104967761D01*
X99572856Y-104967761D02*
X99525237Y-104920142D01*
X99525237Y-104920142D02*
X99477618Y-104824904D01*
X99477618Y-104824904D02*
X99477618Y-104586809D01*
X99477618Y-104586809D02*
X99525237Y-104491571D01*
X99525237Y-104491571D02*
X99572856Y-104443952D01*
X99572856Y-104443952D02*
X99668094Y-104396333D01*
X99668094Y-104396333D02*
X99858570Y-104396333D01*
X99858570Y-104396333D02*
X99953808Y-104443952D01*
X99953808Y-104443952D02*
X100001427Y-104491571D01*
X100001427Y-104491571D02*
X100049046Y-104586809D01*
X98906189Y-104443952D02*
X99001427Y-104396333D01*
X99001427Y-104396333D02*
X99049046Y-104348714D01*
X99049046Y-104348714D02*
X99096665Y-104253476D01*
X99096665Y-104253476D02*
X99096665Y-104205857D01*
X99096665Y-104205857D02*
X99049046Y-104110619D01*
X99049046Y-104110619D02*
X99001427Y-104063000D01*
X99001427Y-104063000D02*
X98906189Y-104015380D01*
X98906189Y-104015380D02*
X98715713Y-104015380D01*
X98715713Y-104015380D02*
X98620475Y-104063000D01*
X98620475Y-104063000D02*
X98572856Y-104110619D01*
X98572856Y-104110619D02*
X98525237Y-104205857D01*
X98525237Y-104205857D02*
X98525237Y-104253476D01*
X98525237Y-104253476D02*
X98572856Y-104348714D01*
X98572856Y-104348714D02*
X98620475Y-104396333D01*
X98620475Y-104396333D02*
X98715713Y-104443952D01*
X98715713Y-104443952D02*
X98906189Y-104443952D01*
X98906189Y-104443952D02*
X99001427Y-104491571D01*
X99001427Y-104491571D02*
X99049046Y-104539190D01*
X99049046Y-104539190D02*
X99096665Y-104634428D01*
X99096665Y-104634428D02*
X99096665Y-104824904D01*
X99096665Y-104824904D02*
X99049046Y-104920142D01*
X99049046Y-104920142D02*
X99001427Y-104967761D01*
X99001427Y-104967761D02*
X98906189Y-105015380D01*
X98906189Y-105015380D02*
X98715713Y-105015380D01*
X98715713Y-105015380D02*
X98620475Y-104967761D01*
X98620475Y-104967761D02*
X98572856Y-104920142D01*
X98572856Y-104920142D02*
X98525237Y-104824904D01*
X98525237Y-104824904D02*
X98525237Y-104634428D01*
X98525237Y-104634428D02*
X98572856Y-104539190D01*
X98572856Y-104539190D02*
X98620475Y-104491571D01*
X98620475Y-104491571D02*
X98715713Y-104443952D01*
X97572856Y-105015380D02*
X98144284Y-105015380D01*
X97858570Y-105015380D02*
X97858570Y-104015380D01*
X97858570Y-104015380D02*
X97953808Y-104158238D01*
X97953808Y-104158238D02*
X98049046Y-104253476D01*
X98049046Y-104253476D02*
X98144284Y-104301095D01*
X97191903Y-104110619D02*
X97144284Y-104063000D01*
X97144284Y-104063000D02*
X97049046Y-104015380D01*
X97049046Y-104015380D02*
X96810951Y-104015380D01*
X96810951Y-104015380D02*
X96715713Y-104063000D01*
X96715713Y-104063000D02*
X96668094Y-104110619D01*
X96668094Y-104110619D02*
X96620475Y-104205857D01*
X96620475Y-104205857D02*
X96620475Y-104301095D01*
X96620475Y-104301095D02*
X96668094Y-104443952D01*
X96668094Y-104443952D02*
X97239522Y-105015380D01*
X97239522Y-105015380D02*
X96620475Y-105015380D01*
X96191903Y-105015380D02*
X96191903Y-104015380D01*
X96191903Y-104015380D02*
X95858570Y-104729666D01*
X95858570Y-104729666D02*
X95525237Y-104015380D01*
X95525237Y-104015380D02*
X95525237Y-105015380D01*
X95049046Y-105015380D02*
X95049046Y-104015380D01*
X94572856Y-105015380D02*
X94572856Y-104015380D01*
X94572856Y-104015380D02*
X94001428Y-105015380D01*
X94001428Y-105015380D02*
X94001428Y-104015380D01*
X93525237Y-105015380D02*
X93525237Y-104015380D01*
X93287143Y-105110619D02*
X92525238Y-105110619D01*
X92287142Y-104491571D02*
X91953809Y-104491571D01*
X91810952Y-105015380D02*
X92287142Y-105015380D01*
X92287142Y-105015380D02*
X92287142Y-104015380D01*
X92287142Y-104015380D02*
X91810952Y-104015380D01*
X91239523Y-104443952D02*
X91334761Y-104396333D01*
X91334761Y-104396333D02*
X91382380Y-104348714D01*
X91382380Y-104348714D02*
X91429999Y-104253476D01*
X91429999Y-104253476D02*
X91429999Y-104205857D01*
X91429999Y-104205857D02*
X91382380Y-104110619D01*
X91382380Y-104110619D02*
X91334761Y-104063000D01*
X91334761Y-104063000D02*
X91239523Y-104015380D01*
X91239523Y-104015380D02*
X91049047Y-104015380D01*
X91049047Y-104015380D02*
X90953809Y-104063000D01*
X90953809Y-104063000D02*
X90906190Y-104110619D01*
X90906190Y-104110619D02*
X90858571Y-104205857D01*
X90858571Y-104205857D02*
X90858571Y-104253476D01*
X90858571Y-104253476D02*
X90906190Y-104348714D01*
X90906190Y-104348714D02*
X90953809Y-104396333D01*
X90953809Y-104396333D02*
X91049047Y-104443952D01*
X91049047Y-104443952D02*
X91239523Y-104443952D01*
X91239523Y-104443952D02*
X91334761Y-104491571D01*
X91334761Y-104491571D02*
X91382380Y-104539190D01*
X91382380Y-104539190D02*
X91429999Y-104634428D01*
X91429999Y-104634428D02*
X91429999Y-104824904D01*
X91429999Y-104824904D02*
X91382380Y-104920142D01*
X91382380Y-104920142D02*
X91334761Y-104967761D01*
X91334761Y-104967761D02*
X91239523Y-105015380D01*
X91239523Y-105015380D02*
X91049047Y-105015380D01*
X91049047Y-105015380D02*
X90953809Y-104967761D01*
X90953809Y-104967761D02*
X90906190Y-104920142D01*
X90906190Y-104920142D02*
X90858571Y-104824904D01*
X90858571Y-104824904D02*
X90858571Y-104634428D01*
X90858571Y-104634428D02*
X90906190Y-104539190D01*
X90906190Y-104539190D02*
X90953809Y-104491571D01*
X90953809Y-104491571D02*
X91049047Y-104443952D01*
D11*
%TO.C,D12*%
X69412285Y-109555380D02*
X69412285Y-108555380D01*
X69412285Y-108555380D02*
X69174190Y-108555380D01*
X69174190Y-108555380D02*
X69031333Y-108603000D01*
X69031333Y-108603000D02*
X68936095Y-108698238D01*
X68936095Y-108698238D02*
X68888476Y-108793476D01*
X68888476Y-108793476D02*
X68840857Y-108983952D01*
X68840857Y-108983952D02*
X68840857Y-109126809D01*
X68840857Y-109126809D02*
X68888476Y-109317285D01*
X68888476Y-109317285D02*
X68936095Y-109412523D01*
X68936095Y-109412523D02*
X69031333Y-109507761D01*
X69031333Y-109507761D02*
X69174190Y-109555380D01*
X69174190Y-109555380D02*
X69412285Y-109555380D01*
X67888476Y-109555380D02*
X68459904Y-109555380D01*
X68174190Y-109555380D02*
X68174190Y-108555380D01*
X68174190Y-108555380D02*
X68269428Y-108698238D01*
X68269428Y-108698238D02*
X68364666Y-108793476D01*
X68364666Y-108793476D02*
X68459904Y-108841095D01*
X67507523Y-108650619D02*
X67459904Y-108603000D01*
X67459904Y-108603000D02*
X67364666Y-108555380D01*
X67364666Y-108555380D02*
X67126571Y-108555380D01*
X67126571Y-108555380D02*
X67031333Y-108603000D01*
X67031333Y-108603000D02*
X66983714Y-108650619D01*
X66983714Y-108650619D02*
X66936095Y-108745857D01*
X66936095Y-108745857D02*
X66936095Y-108841095D01*
X66936095Y-108841095D02*
X66983714Y-108983952D01*
X66983714Y-108983952D02*
X67555142Y-109555380D01*
X67555142Y-109555380D02*
X66936095Y-109555380D01*
%TO.C,C20*%
X131845309Y-72505858D02*
X131892928Y-72553477D01*
X131892928Y-72553477D02*
X132035785Y-72601096D01*
X132035785Y-72601096D02*
X132131023Y-72601096D01*
X132131023Y-72601096D02*
X132273880Y-72553477D01*
X132273880Y-72553477D02*
X132369118Y-72458239D01*
X132369118Y-72458239D02*
X132416737Y-72363001D01*
X132416737Y-72363001D02*
X132464356Y-72172525D01*
X132464356Y-72172525D02*
X132464356Y-72029668D01*
X132464356Y-72029668D02*
X132416737Y-71839192D01*
X132416737Y-71839192D02*
X132369118Y-71743954D01*
X132369118Y-71743954D02*
X132273880Y-71648716D01*
X132273880Y-71648716D02*
X132131023Y-71601096D01*
X132131023Y-71601096D02*
X132035785Y-71601096D01*
X132035785Y-71601096D02*
X131892928Y-71648716D01*
X131892928Y-71648716D02*
X131845309Y-71696335D01*
X131464356Y-71696335D02*
X131416737Y-71648716D01*
X131416737Y-71648716D02*
X131321499Y-71601096D01*
X131321499Y-71601096D02*
X131083404Y-71601096D01*
X131083404Y-71601096D02*
X130988166Y-71648716D01*
X130988166Y-71648716D02*
X130940547Y-71696335D01*
X130940547Y-71696335D02*
X130892928Y-71791573D01*
X130892928Y-71791573D02*
X130892928Y-71886811D01*
X130892928Y-71886811D02*
X130940547Y-72029668D01*
X130940547Y-72029668D02*
X131511975Y-72601096D01*
X131511975Y-72601096D02*
X130892928Y-72601096D01*
X130273880Y-71601096D02*
X130178642Y-71601096D01*
X130178642Y-71601096D02*
X130083404Y-71648716D01*
X130083404Y-71648716D02*
X130035785Y-71696335D01*
X130035785Y-71696335D02*
X129988166Y-71791573D01*
X129988166Y-71791573D02*
X129940547Y-71982049D01*
X129940547Y-71982049D02*
X129940547Y-72220144D01*
X129940547Y-72220144D02*
X129988166Y-72410620D01*
X129988166Y-72410620D02*
X130035785Y-72505858D01*
X130035785Y-72505858D02*
X130083404Y-72553477D01*
X130083404Y-72553477D02*
X130178642Y-72601096D01*
X130178642Y-72601096D02*
X130273880Y-72601096D01*
X130273880Y-72601096D02*
X130369118Y-72553477D01*
X130369118Y-72553477D02*
X130416737Y-72505858D01*
X130416737Y-72505858D02*
X130464356Y-72410620D01*
X130464356Y-72410620D02*
X130511975Y-72220144D01*
X130511975Y-72220144D02*
X130511975Y-71982049D01*
X130511975Y-71982049D02*
X130464356Y-71791573D01*
X130464356Y-71791573D02*
X130416737Y-71696335D01*
X130416737Y-71696335D02*
X130369118Y-71648716D01*
X130369118Y-71648716D02*
X130273880Y-71601096D01*
%TO.C,C7*%
X138088666Y-88664142D02*
X138136285Y-88711761D01*
X138136285Y-88711761D02*
X138279142Y-88759380D01*
X138279142Y-88759380D02*
X138374380Y-88759380D01*
X138374380Y-88759380D02*
X138517237Y-88711761D01*
X138517237Y-88711761D02*
X138612475Y-88616523D01*
X138612475Y-88616523D02*
X138660094Y-88521285D01*
X138660094Y-88521285D02*
X138707713Y-88330809D01*
X138707713Y-88330809D02*
X138707713Y-88187952D01*
X138707713Y-88187952D02*
X138660094Y-87997476D01*
X138660094Y-87997476D02*
X138612475Y-87902238D01*
X138612475Y-87902238D02*
X138517237Y-87807000D01*
X138517237Y-87807000D02*
X138374380Y-87759380D01*
X138374380Y-87759380D02*
X138279142Y-87759380D01*
X138279142Y-87759380D02*
X138136285Y-87807000D01*
X138136285Y-87807000D02*
X138088666Y-87854619D01*
X137755332Y-87759380D02*
X137088666Y-87759380D01*
X137088666Y-87759380D02*
X137517237Y-88759380D01*
D12*
%TO.C,SK6812MINI_E2*%
X102255427Y-66359761D02*
X102112570Y-66407380D01*
X102112570Y-66407380D02*
X101874475Y-66407380D01*
X101874475Y-66407380D02*
X101779237Y-66359761D01*
X101779237Y-66359761D02*
X101731618Y-66312142D01*
X101731618Y-66312142D02*
X101683999Y-66216904D01*
X101683999Y-66216904D02*
X101683999Y-66121666D01*
X101683999Y-66121666D02*
X101731618Y-66026428D01*
X101731618Y-66026428D02*
X101779237Y-65978809D01*
X101779237Y-65978809D02*
X101874475Y-65931190D01*
X101874475Y-65931190D02*
X102064951Y-65883571D01*
X102064951Y-65883571D02*
X102160189Y-65835952D01*
X102160189Y-65835952D02*
X102207808Y-65788333D01*
X102207808Y-65788333D02*
X102255427Y-65693095D01*
X102255427Y-65693095D02*
X102255427Y-65597857D01*
X102255427Y-65597857D02*
X102207808Y-65502619D01*
X102207808Y-65502619D02*
X102160189Y-65455000D01*
X102160189Y-65455000D02*
X102064951Y-65407380D01*
X102064951Y-65407380D02*
X101826856Y-65407380D01*
X101826856Y-65407380D02*
X101683999Y-65455000D01*
X101255427Y-66407380D02*
X101255427Y-65407380D01*
X100683999Y-66407380D02*
X101112570Y-65835952D01*
X100683999Y-65407380D02*
X101255427Y-65978809D01*
X99826856Y-65407380D02*
X100017332Y-65407380D01*
X100017332Y-65407380D02*
X100112570Y-65455000D01*
X100112570Y-65455000D02*
X100160189Y-65502619D01*
X100160189Y-65502619D02*
X100255427Y-65645476D01*
X100255427Y-65645476D02*
X100303046Y-65835952D01*
X100303046Y-65835952D02*
X100303046Y-66216904D01*
X100303046Y-66216904D02*
X100255427Y-66312142D01*
X100255427Y-66312142D02*
X100207808Y-66359761D01*
X100207808Y-66359761D02*
X100112570Y-66407380D01*
X100112570Y-66407380D02*
X99922094Y-66407380D01*
X99922094Y-66407380D02*
X99826856Y-66359761D01*
X99826856Y-66359761D02*
X99779237Y-66312142D01*
X99779237Y-66312142D02*
X99731618Y-66216904D01*
X99731618Y-66216904D02*
X99731618Y-65978809D01*
X99731618Y-65978809D02*
X99779237Y-65883571D01*
X99779237Y-65883571D02*
X99826856Y-65835952D01*
X99826856Y-65835952D02*
X99922094Y-65788333D01*
X99922094Y-65788333D02*
X100112570Y-65788333D01*
X100112570Y-65788333D02*
X100207808Y-65835952D01*
X100207808Y-65835952D02*
X100255427Y-65883571D01*
X100255427Y-65883571D02*
X100303046Y-65978809D01*
X99160189Y-65835952D02*
X99255427Y-65788333D01*
X99255427Y-65788333D02*
X99303046Y-65740714D01*
X99303046Y-65740714D02*
X99350665Y-65645476D01*
X99350665Y-65645476D02*
X99350665Y-65597857D01*
X99350665Y-65597857D02*
X99303046Y-65502619D01*
X99303046Y-65502619D02*
X99255427Y-65455000D01*
X99255427Y-65455000D02*
X99160189Y-65407380D01*
X99160189Y-65407380D02*
X98969713Y-65407380D01*
X98969713Y-65407380D02*
X98874475Y-65455000D01*
X98874475Y-65455000D02*
X98826856Y-65502619D01*
X98826856Y-65502619D02*
X98779237Y-65597857D01*
X98779237Y-65597857D02*
X98779237Y-65645476D01*
X98779237Y-65645476D02*
X98826856Y-65740714D01*
X98826856Y-65740714D02*
X98874475Y-65788333D01*
X98874475Y-65788333D02*
X98969713Y-65835952D01*
X98969713Y-65835952D02*
X99160189Y-65835952D01*
X99160189Y-65835952D02*
X99255427Y-65883571D01*
X99255427Y-65883571D02*
X99303046Y-65931190D01*
X99303046Y-65931190D02*
X99350665Y-66026428D01*
X99350665Y-66026428D02*
X99350665Y-66216904D01*
X99350665Y-66216904D02*
X99303046Y-66312142D01*
X99303046Y-66312142D02*
X99255427Y-66359761D01*
X99255427Y-66359761D02*
X99160189Y-66407380D01*
X99160189Y-66407380D02*
X98969713Y-66407380D01*
X98969713Y-66407380D02*
X98874475Y-66359761D01*
X98874475Y-66359761D02*
X98826856Y-66312142D01*
X98826856Y-66312142D02*
X98779237Y-66216904D01*
X98779237Y-66216904D02*
X98779237Y-66026428D01*
X98779237Y-66026428D02*
X98826856Y-65931190D01*
X98826856Y-65931190D02*
X98874475Y-65883571D01*
X98874475Y-65883571D02*
X98969713Y-65835952D01*
X97826856Y-66407380D02*
X98398284Y-66407380D01*
X98112570Y-66407380D02*
X98112570Y-65407380D01*
X98112570Y-65407380D02*
X98207808Y-65550238D01*
X98207808Y-65550238D02*
X98303046Y-65645476D01*
X98303046Y-65645476D02*
X98398284Y-65693095D01*
X97445903Y-65502619D02*
X97398284Y-65455000D01*
X97398284Y-65455000D02*
X97303046Y-65407380D01*
X97303046Y-65407380D02*
X97064951Y-65407380D01*
X97064951Y-65407380D02*
X96969713Y-65455000D01*
X96969713Y-65455000D02*
X96922094Y-65502619D01*
X96922094Y-65502619D02*
X96874475Y-65597857D01*
X96874475Y-65597857D02*
X96874475Y-65693095D01*
X96874475Y-65693095D02*
X96922094Y-65835952D01*
X96922094Y-65835952D02*
X97493522Y-66407380D01*
X97493522Y-66407380D02*
X96874475Y-66407380D01*
X96445903Y-66407380D02*
X96445903Y-65407380D01*
X96445903Y-65407380D02*
X96112570Y-66121666D01*
X96112570Y-66121666D02*
X95779237Y-65407380D01*
X95779237Y-65407380D02*
X95779237Y-66407380D01*
X95303046Y-66407380D02*
X95303046Y-65407380D01*
X94826856Y-66407380D02*
X94826856Y-65407380D01*
X94826856Y-65407380D02*
X94255428Y-66407380D01*
X94255428Y-66407380D02*
X94255428Y-65407380D01*
X93779237Y-66407380D02*
X93779237Y-65407380D01*
X93541143Y-66502619D02*
X92779238Y-66502619D01*
X92541142Y-65883571D02*
X92207809Y-65883571D01*
X92064952Y-66407380D02*
X92541142Y-66407380D01*
X92541142Y-66407380D02*
X92541142Y-65407380D01*
X92541142Y-65407380D02*
X92064952Y-65407380D01*
X91683999Y-65502619D02*
X91636380Y-65455000D01*
X91636380Y-65455000D02*
X91541142Y-65407380D01*
X91541142Y-65407380D02*
X91303047Y-65407380D01*
X91303047Y-65407380D02*
X91207809Y-65455000D01*
X91207809Y-65455000D02*
X91160190Y-65502619D01*
X91160190Y-65502619D02*
X91112571Y-65597857D01*
X91112571Y-65597857D02*
X91112571Y-65693095D01*
X91112571Y-65693095D02*
X91160190Y-65835952D01*
X91160190Y-65835952D02*
X91731618Y-66407380D01*
X91731618Y-66407380D02*
X91112571Y-66407380D01*
D11*
%TO.C,D5*%
X127875380Y-88415905D02*
X126875380Y-88415905D01*
X126875380Y-88415905D02*
X126875380Y-88654000D01*
X126875380Y-88654000D02*
X126923000Y-88796857D01*
X126923000Y-88796857D02*
X127018238Y-88892095D01*
X127018238Y-88892095D02*
X127113476Y-88939714D01*
X127113476Y-88939714D02*
X127303952Y-88987333D01*
X127303952Y-88987333D02*
X127446809Y-88987333D01*
X127446809Y-88987333D02*
X127637285Y-88939714D01*
X127637285Y-88939714D02*
X127732523Y-88892095D01*
X127732523Y-88892095D02*
X127827761Y-88796857D01*
X127827761Y-88796857D02*
X127875380Y-88654000D01*
X127875380Y-88654000D02*
X127875380Y-88415905D01*
X126875380Y-89892095D02*
X126875380Y-89415905D01*
X126875380Y-89415905D02*
X127351571Y-89368286D01*
X127351571Y-89368286D02*
X127303952Y-89415905D01*
X127303952Y-89415905D02*
X127256333Y-89511143D01*
X127256333Y-89511143D02*
X127256333Y-89749238D01*
X127256333Y-89749238D02*
X127303952Y-89844476D01*
X127303952Y-89844476D02*
X127351571Y-89892095D01*
X127351571Y-89892095D02*
X127446809Y-89939714D01*
X127446809Y-89939714D02*
X127684904Y-89939714D01*
X127684904Y-89939714D02*
X127780142Y-89892095D01*
X127780142Y-89892095D02*
X127827761Y-89844476D01*
X127827761Y-89844476D02*
X127875380Y-89749238D01*
X127875380Y-89749238D02*
X127875380Y-89511143D01*
X127875380Y-89511143D02*
X127827761Y-89415905D01*
X127827761Y-89415905D02*
X127780142Y-89368286D01*
%TO.C,D4*%
X128754094Y-69201380D02*
X128754094Y-68201380D01*
X128754094Y-68201380D02*
X128515999Y-68201380D01*
X128515999Y-68201380D02*
X128373142Y-68249000D01*
X128373142Y-68249000D02*
X128277904Y-68344238D01*
X128277904Y-68344238D02*
X128230285Y-68439476D01*
X128230285Y-68439476D02*
X128182666Y-68629952D01*
X128182666Y-68629952D02*
X128182666Y-68772809D01*
X128182666Y-68772809D02*
X128230285Y-68963285D01*
X128230285Y-68963285D02*
X128277904Y-69058523D01*
X128277904Y-69058523D02*
X128373142Y-69153761D01*
X128373142Y-69153761D02*
X128515999Y-69201380D01*
X128515999Y-69201380D02*
X128754094Y-69201380D01*
X127325523Y-68534714D02*
X127325523Y-69201380D01*
X127563618Y-68153761D02*
X127801713Y-68868047D01*
X127801713Y-68868047D02*
X127182666Y-68868047D01*
%TO.C,C14*%
X127919736Y-75234452D02*
X127967355Y-75186833D01*
X127967355Y-75186833D02*
X128014974Y-75043976D01*
X128014974Y-75043976D02*
X128014974Y-74948738D01*
X128014974Y-74948738D02*
X127967355Y-74805881D01*
X127967355Y-74805881D02*
X127872117Y-74710643D01*
X127872117Y-74710643D02*
X127776879Y-74663024D01*
X127776879Y-74663024D02*
X127586403Y-74615405D01*
X127586403Y-74615405D02*
X127443546Y-74615405D01*
X127443546Y-74615405D02*
X127253070Y-74663024D01*
X127253070Y-74663024D02*
X127157832Y-74710643D01*
X127157832Y-74710643D02*
X127062594Y-74805881D01*
X127062594Y-74805881D02*
X127014974Y-74948738D01*
X127014974Y-74948738D02*
X127014974Y-75043976D01*
X127014974Y-75043976D02*
X127062594Y-75186833D01*
X127062594Y-75186833D02*
X127110213Y-75234452D01*
X128014974Y-76186833D02*
X128014974Y-75615405D01*
X128014974Y-75901119D02*
X127014974Y-75901119D01*
X127014974Y-75901119D02*
X127157832Y-75805881D01*
X127157832Y-75805881D02*
X127253070Y-75710643D01*
X127253070Y-75710643D02*
X127300689Y-75615405D01*
X127348308Y-77043976D02*
X128014974Y-77043976D01*
X126967355Y-76805881D02*
X127681641Y-76567786D01*
X127681641Y-76567786D02*
X127681641Y-77186833D01*
D13*
%TO.C,SW8*%
X73857908Y-105660837D02*
X78957908Y-105660837D01*
X77757908Y-109860837D02*
X82857908Y-109860837D01*
X73857908Y-105660837D02*
G75*
G03*
X71857908Y-107660837I-1J-1999999D01*
G01*
X77757908Y-109860837D02*
G75*
G03*
X75757908Y-111860837I-1J-1999999D01*
G01*
%TO.C,SW9*%
X93003888Y-105630038D02*
X98103888Y-105630038D01*
X96903888Y-109830038D02*
X102003888Y-109830038D01*
X93003888Y-105630038D02*
G75*
G03*
X91003888Y-107630038I-1J-1999999D01*
G01*
X96903888Y-109830038D02*
G75*
G03*
X94903888Y-111830038I-1J-1999999D01*
G01*
%TO.C,SW4*%
X73915933Y-67462629D02*
X79015933Y-67462629D01*
X77815933Y-71662629D02*
X82915933Y-71662629D01*
X73915933Y-67462629D02*
G75*
G03*
X71915933Y-69462629I-1J-1999999D01*
G01*
X77815933Y-71662629D02*
G75*
G03*
X75815933Y-73662629I-1J-1999999D01*
G01*
%TO.C,SW7*%
X112169498Y-86571096D02*
X117269498Y-86571096D01*
X116069498Y-90771096D02*
X121169498Y-90771096D01*
X112169498Y-86571096D02*
G75*
G03*
X110169498Y-88571096I-1J-1999999D01*
G01*
X116069498Y-90771096D02*
G75*
G03*
X114069498Y-92771096I-1J-1999999D01*
G01*
%TO.C,SW2*%
X93057945Y-67459349D02*
X98157945Y-67459349D01*
X96957945Y-71659349D02*
X102057945Y-71659349D01*
X93057945Y-67459349D02*
G75*
G03*
X91057945Y-69459349I-1J-1999999D01*
G01*
X96957945Y-71659349D02*
G75*
G03*
X94957945Y-73659349I-1J-1999999D01*
G01*
%TO.C,SW10*%
X112128411Y-105662624D02*
X117228411Y-105662624D01*
X116028411Y-109862624D02*
X121128411Y-109862624D01*
X112128411Y-105662624D02*
G75*
G03*
X110128411Y-107662624I-1J-1999999D01*
G01*
X116028411Y-109862624D02*
G75*
G03*
X114028411Y-111862624I-1J-1999999D01*
G01*
%TO.C,SW3*%
X112183814Y-67457520D02*
X117283814Y-67457520D01*
X116083814Y-71657520D02*
X121183814Y-71657520D01*
X112183814Y-67457520D02*
G75*
G03*
X110183814Y-69457520I-1J-1999999D01*
G01*
X116083814Y-71657520D02*
G75*
G03*
X114083814Y-73657520I-1J-1999999D01*
G01*
%TO.C,SW5*%
X73885586Y-86511284D02*
X78985586Y-86511284D01*
X77785586Y-90711284D02*
X82885586Y-90711284D01*
X73885586Y-86511284D02*
G75*
G03*
X71885586Y-88511284I-1J-1999999D01*
G01*
X77785586Y-90711284D02*
G75*
G03*
X75785586Y-92711284I-1J-1999999D01*
G01*
%TO.C,SW6*%
X93044954Y-86523789D02*
X98144954Y-86523789D01*
X96944954Y-90723789D02*
X102044954Y-90723789D01*
X93044954Y-86523789D02*
G75*
G03*
X91044954Y-88523789I-1J-1999999D01*
G01*
X96944954Y-90723789D02*
G75*
G03*
X94944954Y-92723789I-1J-1999999D01*
G01*
%TO.C,C34*%
X83442073Y-118930676D02*
X83149539Y-118930676D01*
X83442073Y-117910676D02*
X83149539Y-117910676D01*
%TO.C,C32*%
X102757276Y-80861691D02*
X102464742Y-80861691D01*
X102757276Y-79841691D02*
X102464742Y-79841691D01*
D12*
%TO.C,SK6812MINI_E5*%
X96131000Y-96752943D02*
X96131000Y-99673943D01*
X96131000Y-99673943D02*
X99433000Y-99673943D01*
X99433000Y-96752943D02*
X96131000Y-96752943D01*
X99433000Y-99673943D02*
X99433000Y-96752943D01*
D13*
%TO.C,FB8*%
X131133351Y-50502591D02*
X131475885Y-50502591D01*
X131133351Y-51522591D02*
X131475885Y-51522591D01*
D12*
%TO.C,SK6812MINI_E9*%
X79383000Y-118860130D02*
X79383000Y-115939130D01*
X79383000Y-115939130D02*
X76081000Y-115939130D01*
X76081000Y-118860130D02*
X79383000Y-118860130D01*
X76081000Y-115939130D02*
X76081000Y-118860130D01*
D13*
%TO.C,R1*%
X145934748Y-87418936D02*
X145934748Y-87873064D01*
X144464748Y-87418936D02*
X144464748Y-87873064D01*
%TO.C,C5*%
X145763219Y-84205272D02*
X146055753Y-84205272D01*
X145763219Y-85225272D02*
X146055753Y-85225272D01*
%TO.C,C30*%
X72532632Y-96632232D02*
X72825166Y-96632232D01*
X72532632Y-97652232D02*
X72825166Y-97652232D01*
%TO.C,C3*%
X129568000Y-77401720D02*
X129568000Y-77109186D01*
X130588000Y-77401720D02*
X130588000Y-77109186D01*
%TO.C,C28*%
X91933726Y-96670758D02*
X92226260Y-96670758D01*
X91933726Y-97690758D02*
X92226260Y-97690758D01*
%TO.C,C25*%
X110954111Y-96639779D02*
X111246645Y-96639779D01*
X110954111Y-97659779D02*
X111246645Y-97659779D01*
%TO.C,C10*%
X135166517Y-49787338D02*
X134873983Y-49787338D01*
X135166517Y-48767338D02*
X134873983Y-48767338D01*
%TO.C,C35*%
X102588143Y-118916550D02*
X102295609Y-118916550D01*
X102588143Y-117896550D02*
X102295609Y-117896550D01*
D12*
%TO.C,SK6812MINI_E3*%
X79383000Y-80760130D02*
X79383000Y-77839130D01*
X79383000Y-77839130D02*
X76081000Y-77839130D01*
X76081000Y-80760130D02*
X79383000Y-80760130D01*
X76081000Y-77839130D02*
X76081000Y-80760130D01*
D13*
%TO.C,C38*%
X131165316Y-53979204D02*
X131457850Y-53979204D01*
X131165316Y-54999204D02*
X131457850Y-54999204D01*
%TO.C,C36*%
X121990564Y-118942688D02*
X121698030Y-118942688D01*
X121990564Y-117922688D02*
X121698030Y-117922688D01*
D12*
%TO.C,SK6812MINI_E6*%
X115181000Y-96728081D02*
X115181000Y-99649081D01*
X115181000Y-99649081D02*
X118483000Y-99649081D01*
X118483000Y-96728081D02*
X115181000Y-96728081D01*
X118483000Y-99649081D02*
X118483000Y-96728081D01*
D13*
%TO.C,D10*%
X65838000Y-67580000D02*
X69848000Y-67580000D01*
X65838000Y-69580000D02*
X65838000Y-67580000D01*
X65838000Y-69580000D02*
X69848000Y-69580000D01*
%TO.C,C21*%
X140608267Y-72808872D02*
X140315733Y-72808872D01*
X140608267Y-71788872D02*
X140315733Y-71788872D01*
%TO.C,C31*%
X121884215Y-80869082D02*
X121591681Y-80869082D01*
X121884215Y-79849082D02*
X121591681Y-79849082D01*
%TO.C,C1*%
X132887767Y-74932000D02*
X132595233Y-74932000D01*
X132887767Y-73912000D02*
X132595233Y-73912000D01*
%TO.C,C6*%
X142003267Y-90537992D02*
X141710733Y-90537992D01*
X142003267Y-89517992D02*
X141710733Y-89517992D01*
%TO.C,R4*%
X150675264Y-76903448D02*
X151129392Y-76903448D01*
X150675264Y-78373448D02*
X151129392Y-78373448D01*
%TO.C,U5*%
X142310500Y-54500000D02*
X140910500Y-54500000D01*
X140910500Y-52180000D02*
X142810500Y-52180000D01*
%TO.C,R16*%
X151119064Y-80491000D02*
X150664936Y-80491000D01*
X151119064Y-79021000D02*
X150664936Y-79021000D01*
D12*
%TO.C,SK6812MINI_E7*%
X117737000Y-118860130D02*
X117737000Y-115939130D01*
X117737000Y-115939130D02*
X114435000Y-115939130D01*
X114435000Y-118860130D02*
X117737000Y-118860130D01*
X114435000Y-115939130D02*
X114435000Y-118860130D01*
D13*
%TO.C,C4*%
X131346000Y-77401720D02*
X131346000Y-77109186D01*
X132366000Y-77401720D02*
X132366000Y-77109186D01*
%TO.C,C33*%
X83570868Y-80850148D02*
X83278334Y-80850148D01*
X83570868Y-79830148D02*
X83278334Y-79830148D01*
%TO.C,D11*%
X65838000Y-86884000D02*
X69848000Y-86884000D01*
X65838000Y-88884000D02*
X65838000Y-86884000D01*
X65838000Y-88884000D02*
X69848000Y-88884000D01*
D12*
%TO.C,SK6812MINI_E1*%
X117737000Y-80711096D02*
X117737000Y-77790096D01*
X117737000Y-77790096D02*
X114435000Y-77790096D01*
X114435000Y-80711096D02*
X117737000Y-80711096D01*
X114435000Y-77790096D02*
X114435000Y-80711096D01*
D13*
%TO.C,D9*%
X88408926Y-105844000D02*
X88408926Y-109854000D01*
X86408926Y-105844000D02*
X88408926Y-105844000D01*
X86408926Y-105844000D02*
X86408926Y-109854000D01*
%TO.C,U1*%
X140392000Y-83112992D02*
X140867000Y-83112992D01*
X140392000Y-82637992D02*
X140392000Y-83112992D01*
X145612000Y-82637992D02*
X145612000Y-83112992D01*
X140392000Y-78367992D02*
X140392000Y-77892992D01*
X145612000Y-78367992D02*
X145612000Y-77892992D01*
X140392000Y-77892992D02*
X140867000Y-77892992D01*
X145612000Y-77892992D02*
X145137000Y-77892992D01*
%TO.C,C11*%
X135162892Y-51512468D02*
X134870358Y-51512468D01*
X135162892Y-50492468D02*
X134870358Y-50492468D01*
D12*
%TO.C,SK6812MINI_E4*%
X76690087Y-96726888D02*
X76690087Y-99647888D01*
X76690087Y-99647888D02*
X79992087Y-99647888D01*
X79992087Y-96726888D02*
X76690087Y-96726888D01*
X79992087Y-99647888D02*
X79992087Y-96726888D01*
D13*
%TO.C,C39*%
X131450860Y-53209954D02*
X131158326Y-53209954D01*
X131450860Y-52189954D02*
X131158326Y-52189954D01*
%TO.C,C12*%
X135170134Y-53212428D02*
X134877600Y-53212428D01*
X135170134Y-52192428D02*
X134877600Y-52192428D01*
%TO.C,D8*%
X86613873Y-101006384D02*
X86613873Y-96996384D01*
X88613873Y-101006384D02*
X86613873Y-101006384D01*
X88613873Y-101006384D02*
X88613873Y-96996384D01*
%TO.C,D1*%
X144228888Y-93412045D02*
X144228888Y-90552045D01*
X146148888Y-93412045D02*
X144228888Y-93412045D01*
X146148888Y-90552045D02*
X146148888Y-93412045D01*
%TO.C,C8*%
X141974810Y-85254292D02*
X141682276Y-85254292D01*
X141974810Y-84234292D02*
X141682276Y-84234292D01*
%TO.C,D7*%
X86630000Y-80466000D02*
X86630000Y-76456000D01*
X88630000Y-80466000D02*
X86630000Y-80466000D01*
X88630000Y-80466000D02*
X88630000Y-76456000D01*
%TO.C,C2*%
X136644767Y-74932000D02*
X136352233Y-74932000D01*
X136644767Y-73912000D02*
X136352233Y-73912000D01*
%TO.C,D6*%
X126476000Y-106478000D02*
X126476000Y-110488000D01*
X124476000Y-106478000D02*
X126476000Y-106478000D01*
X124476000Y-106478000D02*
X124476000Y-110488000D01*
%TO.C,C13*%
X135173767Y-54990044D02*
X134881233Y-54990044D01*
X135173767Y-53970044D02*
X134881233Y-53970044D01*
%TO.C,C42*%
X131141460Y-48791569D02*
X131433994Y-48791569D01*
X131141460Y-49811569D02*
X131433994Y-49811569D01*
%TO.C,Y1*%
X133455963Y-66918000D02*
X133455963Y-68188000D01*
X133455963Y-66918000D02*
X141295963Y-66918000D01*
X133455963Y-71258000D02*
X133455963Y-69988000D01*
X133455963Y-71258000D02*
X141295963Y-71258000D01*
X141295963Y-66918000D02*
X141295963Y-68188000D01*
X141295963Y-71258000D02*
X141295963Y-69988000D01*
%TO.C,R15*%
X142126564Y-92667992D02*
X141672436Y-92667992D01*
X142126564Y-91197992D02*
X141672436Y-91197992D01*
%TO.C,D2*%
X149069228Y-74517459D02*
X151929228Y-74517459D01*
X149069228Y-76437459D02*
X149069228Y-74517459D01*
X151929228Y-76437459D02*
X149069228Y-76437459D01*
%TO.C,R14*%
X128717064Y-82190000D02*
X127262936Y-82190000D01*
X128717064Y-80370000D02*
X127262936Y-80370000D01*
%TO.C,FB1*%
X142018655Y-87027594D02*
X141676121Y-87027594D01*
X142018655Y-86007594D02*
X141676121Y-86007594D01*
D12*
%TO.C,SK6812MINI_E8*%
X98433000Y-118860130D02*
X98433000Y-115939130D01*
X98433000Y-115939130D02*
X95131000Y-115939130D01*
X95131000Y-118860130D02*
X98433000Y-118860130D01*
X95131000Y-115939130D02*
X95131000Y-118860130D01*
D13*
%TO.C,D12*%
X65838000Y-106188000D02*
X69848000Y-106188000D01*
X65838000Y-108188000D02*
X65838000Y-106188000D01*
X65838000Y-108188000D02*
X69848000Y-108188000D01*
%TO.C,C20*%
X134137121Y-71773375D02*
X134429655Y-71773375D01*
X134137121Y-72793375D02*
X134429655Y-72793375D01*
%TO.C,C7*%
X142003267Y-88721932D02*
X141710733Y-88721932D01*
X142003267Y-87701932D02*
X141710733Y-87701932D01*
D12*
%TO.C,SK6812MINI_E2*%
X98687000Y-80760130D02*
X98687000Y-77839130D01*
X98687000Y-77839130D02*
X95385000Y-77839130D01*
X95385000Y-80760130D02*
X98687000Y-80760130D01*
X95385000Y-77839130D02*
X95385000Y-80760130D01*
D13*
%TO.C,D5*%
X126476000Y-86540000D02*
X126476000Y-90550000D01*
X124476000Y-86540000D02*
X126476000Y-86540000D01*
X124476000Y-86540000D02*
X124476000Y-90550000D01*
%TO.C,D4*%
X128980000Y-71612000D02*
X124970000Y-71612000D01*
X128980000Y-69612000D02*
X128980000Y-71612000D01*
X128980000Y-69612000D02*
X124970000Y-69612000D01*
%TD*%
M02*
