M48
; DRILL file {KiCad (7.0.0)} date Sun Jun 18 19:00:39 2023
; FORMAT={-:-/ absolute / metric / decimal}
; #@! TF.CreationDate,2023-06-18T19:00:39+02:00
; #@! TF.GenerationSoftware,Kicad,Pcbnew,(7.0.0)
; #@! TF.FileFunction,Plated,1,4,PTH
FMAT,2
METRIC
; #@! TA.AperFunction,Plated,PTH,ViaDrill
T1C0.400
; #@! TA.AperFunction,Plated,PTH,ComponentDrill
T2C0.400
; #@! TA.AperFunction,Plated,PTH,ComponentDrill
T3C0.600
; #@! TA.AperFunction,Plated,PTH,ComponentDrill
T4C1.000
; #@! TA.AperFunction,Plated,PTH,ComponentDrill
T5C1.100
; #@! TA.AperFunction,Plated,PTH,ComponentDrill
T6C1.300
; #@! TA.AperFunction,Plated,PTH,ComponentDrill
T7C2.000
; #@! TA.AperFunction,Plated,PTH,ComponentDrill
T8C2.200
; #@! TA.AperFunction,Plated,PTH,ComponentDrill
T9C2.300
%
G90
G05
T1
X63.5Y-45.72
X63.5Y-50.8
X63.5Y-55.88
X63.5Y-60.96
X63.5Y-66.04
X63.5Y-71.12
X63.5Y-76.2
X63.5Y-81.28
X63.5Y-86.36
X63.5Y-91.44
X63.5Y-96.52
X63.5Y-101.6
X63.5Y-106.68
X63.5Y-111.76
X63.5Y-116.84
X63.5Y-121.92
X66.04Y-41.275
X66.548Y-82.804
X68.58Y-54.864
X68.58Y-56.388
X68.58Y-121.92
X71.12Y-41.275
X71.837Y-95.489
X72.898Y-80.01
X72.898Y-118.11
X73.539Y-95.526
X73.66Y-121.92
X75.438Y-57.15
X76.2Y-41.275
X76.327Y-60.698
X78.74Y-121.92
X78.994Y-57.15
X81.28Y-41.275
X81.963Y-60.71
X82.422Y-119.875
X82.548Y-81.665
X82.804Y-54.864
X83.085Y-97.452
X83.82Y-121.92
X84.141Y-119.924
X84.301Y-81.693
X86.36Y-41.275
X87.409Y-101.6
X87.621Y-83.808
X88.9Y-121.92
X91.207Y-95.5
X91.44Y-41.275
X91.738Y-58.454
X91.948Y-118.11
X92.456Y-80.01
X92.959Y-95.495
X93.98Y-121.92
X95.25Y-57.15
X96.012Y-59.436
X96.52Y-41.275
X96.52Y-62.738
X99.06Y-121.92
X99.314Y-56.896
X100.584Y-57.15
X101.584Y-119.763
X101.6Y-41.275
X101.734Y-81.638
X101.854Y-59.436
X102.616Y-97.536
X103.303Y-119.759
X104.14Y-121.92
X105.069Y-80.338
X106.68Y-41.275
X109.22Y-121.92
X110.236Y-95.504
X111.252Y-118.11
X111.506Y-80.01
X111.76Y-41.275
X111.984Y-95.542
X114.3Y-121.92
X115.062Y-57.404
X115.062Y-58.928
X115.316Y-61.214
X116.84Y-41.275
X119.126Y-57.15
X119.38Y-121.92
X120.65Y-58.928
X120.875Y-81.698
X120.966Y-119.815
X121.412Y-97.536
X121.92Y-41.275
X121.92Y-85.344
X121.92Y-104.648
X122.585Y-81.769
X124.256Y-118.443
X124.46Y-121.92
X126.492Y-68.58
X126.619Y-74.168
X127.0Y-41.275
X129.032Y-49.276
X129.032Y-54.356
X129.032Y-67.564
X129.54Y-121.92
X130.048Y-70.612
X130.048Y-74.93
X131.864Y-79.558
X131.889Y-73.004
X132.08Y-41.275
X132.527Y-61.807
X134.62Y-121.92
X135.128Y-65.024
X136.906Y-78.398
X137.16Y-41.275
X137.16Y-49.276
X137.414Y-72.257
X137.591Y-60.198
X138.044Y-81.091
X138.14Y-82.466
X138.176Y-83.82
X138.176Y-85.344
X138.641Y-60.198
X138.684Y-76.708
X138.684Y-79.248
X138.938Y-55.499
X138.938Y-67.056
X139.497Y-88.242
X140.068Y-50.547
X140.081Y-67.056
X140.117Y-77.831
X141.224Y-74.422
X141.25Y-76.736
X141.723Y-79.22
X142.24Y-41.275
X142.341Y-62.756
X142.952Y-68.834
X143.894Y-85.618
X144.051Y-68.829
X144.272Y-52.324
X144.272Y-54.356
X144.29Y-81.807
X145.796Y-83.312
X146.05Y-50.8
X146.304Y-57.912
X146.964Y-86.673
X147.32Y-41.275
X147.572Y-80.45
X147.601Y-81.399
X148.291Y-84.712
X148.336Y-83.312
X149.86Y-121.92
X150.876Y-81.534
X151.932Y-54.604
X152.4Y-41.275
X152.934Y-67.549
X154.94Y-45.72
X154.94Y-50.8
X154.94Y-55.88
X154.94Y-60.96
X154.94Y-66.04
X154.94Y-71.12
X154.94Y-76.2
X154.94Y-81.28
X154.94Y-86.36
X154.94Y-91.44
X154.94Y-96.52
X154.94Y-101.6
X154.94Y-106.68
X154.94Y-111.76
X154.94Y-116.84
X154.94Y-121.92
T2
X140.095Y-48.175
X140.095Y-49.525
X140.945Y-48.175
X140.945Y-49.525
X141.795Y-48.175
X141.795Y-49.525
X142.645Y-48.175
X142.645Y-49.525
X143.495Y-48.175
X143.495Y-49.525
X144.345Y-48.175
X144.345Y-49.525
X145.195Y-48.175
X145.195Y-49.525
X146.045Y-48.175
X146.045Y-49.525
T4
X127.97Y-120.32
X129.08Y-43.23
X133.58Y-43.23
X138.166Y-104.419
X140.706Y-104.419
X143.246Y-104.419
X145.786Y-104.419
T5
X135.37Y-112.56
X135.37Y-117.56
X149.87Y-112.56
X149.87Y-115.06
X149.87Y-117.56
T6
X127.83Y-45.73
X134.83Y-45.73
T8
X66.04Y-119.38
X66.548Y-44.704
X151.384Y-49.276
X153.416Y-119.126
T9
X70.642Y-51.216
X83.782Y-51.216
X90.458Y-51.244
X103.598Y-51.244
X110.374Y-51.22
X123.514Y-51.22
T3
G00X138.745Y-45.565
M15
G01X138.745Y-44.765
M16
G05
G00X138.745Y-49.295
M15
G01X138.745Y-47.795
M16
G05
G00X147.395Y-45.565
M15
G01X147.395Y-44.765
M16
G05
G00X147.395Y-49.295
M15
G01X147.395Y-47.795
M16
G05
T7
G00X141.97Y-109.36
M15
G01X142.77Y-109.36
M16
G05
G00X141.97Y-120.76
M15
G01X142.77Y-120.76
M16
G05
T0
M30
